G04*
G04 #@! TF.GenerationSoftware,Altium Limited,Altium Designer,26.6.0 (10)*
G04*
G04 Layer_Color=32896*
G04 Board_Origin=0|0*
%FSLAX25Y25*%
%MOIN*%
G70*
G04*
G04 #@! TF.SameCoordinates,8E7C0F2F-DEA9-465B-9AF9-77FAD4C454B9*
G04*
G04*
G04 #@! TF.FilePolarity,Positive*
G04*
G01*
G75*
%ADD10C,0.01000*%
D10*
X396753Y193631D02*
G03*
X396753Y193631I-39904J0D01*
G01*
X396404Y142500D02*
G03*
X396404Y142500I-39904J0D01*
G01*
X734169Y342158D02*
G03*
X734169Y342158I-20669J0D01*
G01*
X778669Y341657D02*
G03*
X778669Y341657I-20669J0D01*
G01*
Y298158D02*
G03*
X778669Y298158I-20669J0D01*
G01*
X733669Y297657D02*
G03*
X733669Y297657I-20669J0D01*
G01*
X129083Y368500D02*
G03*
X129083Y368500I-13583J0D01*
G01*
X464587Y267500D02*
G03*
X464587Y267500I-7087J0D01*
G01*
X465087Y372500D02*
G03*
X465087Y372500I-7087J0D01*
G01*
X808083Y368000D02*
G03*
X808083Y368000I-13583J0D01*
G01*
X196087Y339000D02*
G03*
X196087Y339000I-7087J0D01*
G01*
Y299500D02*
G03*
X196087Y299500I-7087J0D01*
G01*
X245087Y260000D02*
G03*
X245087Y260000I-7087J0D01*
G01*
X321087Y336500D02*
G03*
X321087Y336500I-7087J0D01*
G01*
X266087Y305000D02*
G03*
X266087Y305000I-7087J0D01*
G01*
X129264Y115681D02*
G03*
X129264Y115681I-13583J0D01*
G01*
X319087Y279500D02*
G03*
X319087Y279500I-7087J0D01*
G01*
X807583Y116500D02*
G03*
X807583Y116500I-13583J0D01*
G01*
X751587Y140500D02*
G03*
X751587Y140500I-7087J0D01*
G01*
X135087Y144000D02*
G03*
X135087Y144000I-7087J0D01*
G01*
X652189Y247835D02*
Y302165D01*
X625811D02*
X652189D01*
X625811Y247835D02*
X652189D01*
X625811D02*
Y302165D01*
X628835Y347311D02*
X683165D01*
Y373689D01*
X628835Y347311D02*
Y373689D01*
X683165D01*
X629335Y317311D02*
X683665D01*
Y343689D01*
X629335Y317311D02*
Y343689D01*
X683665D01*
X559311Y124469D02*
Y160531D01*
X530177D02*
X559311D01*
X530177Y124469D02*
X559311D01*
X530177D02*
Y160531D01*
X127362Y219142D02*
Y345126D01*
Y219142D02*
X172638D01*
X127362Y345126D02*
X172638D01*
Y219142D02*
Y345126D01*
X655835Y247858D02*
Y302189D01*
Y247858D02*
X682213D01*
X655835Y302189D02*
X682213D01*
Y247858D02*
Y302189D01*
X761378Y224465D02*
X808622D01*
X761378Y177220D02*
Y224465D01*
X808622Y177220D02*
Y224465D01*
X761378Y177220D02*
X808622D01*
X700524Y187524D02*
Y210949D01*
X705051Y215476D01*
X710366D02*
Y220004D01*
X705051Y215476D02*
X710366D01*
X700524Y187524D02*
X710366D01*
Y182996D02*
Y187524D01*
Y220004D02*
X718634D01*
Y215476D02*
Y220004D01*
Y182996D02*
Y187524D01*
X710366Y182996D02*
X718634D01*
Y215476D02*
X723949D01*
X728476Y210949D01*
Y187524D02*
Y210949D01*
X718634Y187524D02*
X728476D01*
X647610Y198716D02*
X661390D01*
X647610Y163284D02*
Y198716D01*
X661390Y163284D02*
Y198716D01*
X647610Y163284D02*
X661390D01*
X629370Y104079D02*
Y143842D01*
Y104079D02*
X650630D01*
X629370Y143842D02*
X650630D01*
Y104079D02*
Y143842D01*
X602370Y104079D02*
Y143842D01*
Y104079D02*
X623630D01*
X602370Y143842D02*
X623630D01*
Y104079D02*
Y143842D01*
X534567Y211642D02*
Y229358D01*
Y211642D02*
X575906D01*
X534567Y229358D02*
X575906D01*
Y211642D02*
Y229358D01*
X545000Y111500D02*
X563000D01*
X545000Y100500D02*
Y111500D01*
X563000Y100500D02*
Y111500D01*
X545000Y100500D02*
X563000D01*
X450126Y122110D02*
Y135890D01*
Y122110D02*
X485559D01*
X450126Y135890D02*
X485559D01*
Y122110D02*
Y135890D01*
X420307Y112250D02*
Y127368D01*
Y112250D02*
X433693D01*
X420307Y127368D02*
X433693D01*
Y112250D02*
Y127368D01*
X399673Y177610D02*
Y250445D01*
Y177610D02*
X421327D01*
X399673Y250445D02*
X421327D01*
Y177610D02*
Y250445D01*
X251610Y252626D02*
X265390D01*
Y288059D01*
X251610Y252626D02*
Y288059D01*
X265390D01*
X250157Y242299D02*
X300551D01*
X250157Y229701D02*
Y242299D01*
X300551Y229701D02*
Y242299D01*
X250157Y229701D02*
X300551D01*
X250303Y212201D02*
X300697D01*
Y224799D01*
X250303Y212201D02*
Y224799D01*
X300697D01*
X185110Y250941D02*
X198890D01*
Y286374D01*
X185110Y250941D02*
Y286374D01*
X198890D01*
X189157Y242299D02*
X239551D01*
X189157Y229701D02*
Y242299D01*
X239551Y229701D02*
Y242299D01*
X189157Y229701D02*
X239551D01*
X189449Y212201D02*
X239843D01*
Y224799D01*
X189449Y212201D02*
Y224799D01*
X239843D01*
X196185Y190701D02*
Y203299D01*
Y190701D02*
X236815D01*
X196185Y203299D02*
X236815D01*
Y190701D02*
Y203299D01*
X196866Y173079D02*
Y182921D01*
Y173079D02*
X235134D01*
X196866Y182921D02*
X235134D01*
Y173079D02*
Y182921D01*
X201614Y125118D02*
Y164882D01*
Y125118D02*
X228386D01*
X201614Y164882D02*
X228386D01*
Y125118D02*
Y164882D01*
X445827Y178110D02*
Y250945D01*
X424173D02*
X445827D01*
X424173Y178110D02*
X445827D01*
X424173D02*
Y250945D01*
X789500Y298972D02*
X809500D01*
Y338028D01*
X789500Y298972D02*
Y338028D01*
X809500D01*
X469827Y178110D02*
Y250945D01*
X448173D02*
X469827D01*
X448173Y178110D02*
X469827D01*
X448173D02*
Y250945D01*
X229279Y300342D02*
Y344043D01*
X201720D02*
X229279D01*
X201720Y300342D02*
X229279D01*
X201720D02*
Y344043D01*
X468327Y280110D02*
Y352945D01*
X446673D02*
X468327D01*
X446673Y280110D02*
X468327D01*
X446673D02*
Y352945D01*
X104500Y285472D02*
X124500D01*
Y324528D01*
X104500Y285472D02*
Y324528D01*
X124500D01*
X789500Y240972D02*
X809500D01*
Y280028D01*
X789500Y240972D02*
Y280028D01*
X809500D01*
X692193Y184441D02*
Y199559D01*
X678807D02*
X692193D01*
X678807Y184441D02*
X692193D01*
X678807D02*
Y199559D01*
X104000Y208972D02*
X124000D01*
Y248028D01*
X104000Y208972D02*
Y248028D01*
X124000D01*
X682126Y160110D02*
Y173890D01*
Y160110D02*
X717559D01*
X682126Y173890D02*
X717559D01*
Y160110D02*
Y173890D01*
X635941Y205110D02*
Y218890D01*
Y205110D02*
X671374D01*
X635941Y218890D02*
X671374D01*
Y205110D02*
Y218890D01*
X300783Y300476D02*
Y344177D01*
X273224D02*
X300783D01*
X273224Y300476D02*
X300783D01*
X273224D02*
Y344177D01*
X748634Y187524D02*
X758476D01*
Y210949D01*
X753949Y215476D02*
X758476Y210949D01*
X748634Y215476D02*
X753949D01*
X740366Y182996D02*
X748634D01*
Y187524D01*
Y215476D02*
Y220004D01*
X740366D02*
X748634D01*
X740366Y182996D02*
Y187524D01*
X730524D02*
X740366D01*
X735051Y215476D02*
X740366D01*
Y220004D01*
X730524Y210949D02*
X735051Y215476D01*
X730524Y187524D02*
Y210949D01*
X556000Y184000D02*
X574000D01*
Y195000D01*
X556000Y184000D02*
Y195000D01*
X574000D01*
X519500Y190000D02*
X537500D01*
Y201000D01*
X519500Y190000D02*
Y201000D01*
X537500D01*
X701465Y100878D02*
Y148122D01*
X654220D02*
X701465D01*
X654220Y100878D02*
X701465D01*
X654220D02*
Y148122D01*
M02*
