G04*
G04 #@! TF.GenerationSoftware,Altium Limited,Altium Designer,26.6.0 (10)*
G04*
G04 Layer_Physical_Order=1*
G04 Layer_Color=255*
G04 Board_Origin=0|0*
%FSLAX25Y25*%
%MOIN*%
G70*
G04*
G04 #@! TF.SameCoordinates,8E7C0F2F-DEA9-465B-9AF9-77FAD4C454B9*
G04*
G04*
G04 #@! TF.FilePolarity,Positive*
G04*
G01*
G75*
G04:AMPARAMS|DCode=11|XSize=137.8mil|YSize=70.87mil|CornerRadius=4.96mil|HoleSize=0mil|Usage=FLASHONLY|Rotation=180.000|XOffset=0mil|YOffset=0mil|HoleType=Round|Shape=RoundedRectangle|*
%AMROUNDEDRECTD11*
21,1,0.13780,0.06095,0,0,180.0*
21,1,0.12787,0.07087,0,0,180.0*
1,1,0.00992,-0.06394,0.03047*
1,1,0.00992,0.06394,0.03047*
1,1,0.00992,0.06394,-0.03047*
1,1,0.00992,-0.06394,-0.03047*
%
%ADD11ROUNDEDRECTD11*%
G04:AMPARAMS|DCode=12|XSize=86.61mil|YSize=47.24mil|CornerRadius=4.96mil|HoleSize=0mil|Usage=FLASHONLY|Rotation=90.000|XOffset=0mil|YOffset=0mil|HoleType=Round|Shape=RoundedRectangle|*
%AMROUNDEDRECTD12*
21,1,0.08661,0.03732,0,0,90.0*
21,1,0.07669,0.04724,0,0,90.0*
1,1,0.00992,0.01866,0.03835*
1,1,0.00992,0.01866,-0.03835*
1,1,0.00992,-0.01866,-0.03835*
1,1,0.00992,-0.01866,0.03835*
%
%ADD12ROUNDEDRECTD12*%
G04:AMPARAMS|DCode=13|XSize=47.24mil|YSize=55.12mil|CornerRadius=4.96mil|HoleSize=0mil|Usage=FLASHONLY|Rotation=270.000|XOffset=0mil|YOffset=0mil|HoleType=Round|Shape=RoundedRectangle|*
%AMROUNDEDRECTD13*
21,1,0.04724,0.04520,0,0,270.0*
21,1,0.03732,0.05512,0,0,270.0*
1,1,0.00992,-0.02260,-0.01866*
1,1,0.00992,-0.02260,0.01866*
1,1,0.00992,0.02260,0.01866*
1,1,0.00992,0.02260,-0.01866*
%
%ADD13ROUNDEDRECTD13*%
G04:AMPARAMS|DCode=14|XSize=47.24mil|YSize=55.12mil|CornerRadius=4.96mil|HoleSize=0mil|Usage=FLASHONLY|Rotation=180.000|XOffset=0mil|YOffset=0mil|HoleType=Round|Shape=RoundedRectangle|*
%AMROUNDEDRECTD14*
21,1,0.04724,0.04520,0,0,180.0*
21,1,0.03732,0.05512,0,0,180.0*
1,1,0.00992,-0.01866,0.02260*
1,1,0.00992,0.01866,0.02260*
1,1,0.00992,0.01866,-0.02260*
1,1,0.00992,-0.01866,-0.02260*
%
%ADD14ROUNDEDRECTD14*%
G04:AMPARAMS|DCode=15|XSize=51.18mil|YSize=68.9mil|CornerRadius=4.86mil|HoleSize=0mil|Usage=FLASHONLY|Rotation=90.000|XOffset=0mil|YOffset=0mil|HoleType=Round|Shape=RoundedRectangle|*
%AMROUNDEDRECTD15*
21,1,0.05118,0.05917,0,0,90.0*
21,1,0.04146,0.06890,0,0,90.0*
1,1,0.00972,0.02959,0.02073*
1,1,0.00972,0.02959,-0.02073*
1,1,0.00972,-0.02959,-0.02073*
1,1,0.00972,-0.02959,0.02073*
%
%ADD15ROUNDEDRECTD15*%
G04:AMPARAMS|DCode=16|XSize=137.8mil|YSize=62.99mil|CornerRadius=5.04mil|HoleSize=0mil|Usage=FLASHONLY|Rotation=270.000|XOffset=0mil|YOffset=0mil|HoleType=Round|Shape=RoundedRectangle|*
%AMROUNDEDRECTD16*
21,1,0.13780,0.05291,0,0,270.0*
21,1,0.12772,0.06299,0,0,270.0*
1,1,0.01008,-0.02646,-0.06386*
1,1,0.01008,-0.02646,0.06386*
1,1,0.01008,0.02646,0.06386*
1,1,0.01008,0.02646,-0.06386*
%
%ADD16ROUNDEDRECTD16*%
G04:AMPARAMS|DCode=17|XSize=46.26mil|YSize=57.09mil|CornerRadius=4.86mil|HoleSize=0mil|Usage=FLASHONLY|Rotation=90.000|XOffset=0mil|YOffset=0mil|HoleType=Round|Shape=RoundedRectangle|*
%AMROUNDEDRECTD17*
21,1,0.04626,0.04737,0,0,90.0*
21,1,0.03655,0.05709,0,0,90.0*
1,1,0.00972,0.02369,0.01827*
1,1,0.00972,0.02369,-0.01827*
1,1,0.00972,-0.02369,-0.01827*
1,1,0.00972,-0.02369,0.01827*
%
%ADD17ROUNDEDRECTD17*%
G04:AMPARAMS|DCode=18|XSize=137.8mil|YSize=70.87mil|CornerRadius=4.96mil|HoleSize=0mil|Usage=FLASHONLY|Rotation=270.000|XOffset=0mil|YOffset=0mil|HoleType=Round|Shape=RoundedRectangle|*
%AMROUNDEDRECTD18*
21,1,0.13780,0.06095,0,0,270.0*
21,1,0.12787,0.07087,0,0,270.0*
1,1,0.00992,-0.03047,-0.06394*
1,1,0.00992,-0.03047,0.06394*
1,1,0.00992,0.03047,0.06394*
1,1,0.00992,0.03047,-0.06394*
%
%ADD18ROUNDEDRECTD18*%
G04:AMPARAMS|DCode=19|XSize=46.26mil|YSize=57.09mil|CornerRadius=4.86mil|HoleSize=0mil|Usage=FLASHONLY|Rotation=0.000|XOffset=0mil|YOffset=0mil|HoleType=Round|Shape=RoundedRectangle|*
%AMROUNDEDRECTD19*
21,1,0.04626,0.04737,0,0,0.0*
21,1,0.03655,0.05709,0,0,0.0*
1,1,0.00972,0.01827,-0.02369*
1,1,0.00972,-0.01827,-0.02369*
1,1,0.00972,-0.01827,0.02369*
1,1,0.00972,0.01827,0.02369*
%
%ADD19ROUNDEDRECTD19*%
G04:AMPARAMS|DCode=20|XSize=76.77mil|YSize=23.62mil|CornerRadius=2.95mil|HoleSize=0mil|Usage=FLASHONLY|Rotation=0.000|XOffset=0mil|YOffset=0mil|HoleType=Round|Shape=RoundedRectangle|*
%AMROUNDEDRECTD20*
21,1,0.07677,0.01772,0,0,0.0*
21,1,0.07087,0.02362,0,0,0.0*
1,1,0.00591,0.03543,-0.00886*
1,1,0.00591,-0.03543,-0.00886*
1,1,0.00591,-0.03543,0.00886*
1,1,0.00591,0.03543,0.00886*
%
%ADD20ROUNDEDRECTD20*%
G04:AMPARAMS|DCode=21|XSize=58.07mil|YSize=23.62mil|CornerRadius=2.95mil|HoleSize=0mil|Usage=FLASHONLY|Rotation=90.000|XOffset=0mil|YOffset=0mil|HoleType=Round|Shape=RoundedRectangle|*
%AMROUNDEDRECTD21*
21,1,0.05807,0.01772,0,0,90.0*
21,1,0.05217,0.02362,0,0,90.0*
1,1,0.00591,0.00886,0.02608*
1,1,0.00591,0.00886,-0.02608*
1,1,0.00591,-0.00886,-0.02608*
1,1,0.00591,-0.00886,0.02608*
%
%ADD21ROUNDEDRECTD21*%
%ADD22R,0.13583X0.07284*%
G04:AMPARAMS|DCode=23|XSize=51.18mil|YSize=68.9mil|CornerRadius=4.86mil|HoleSize=0mil|Usage=FLASHONLY|Rotation=0.000|XOffset=0mil|YOffset=0mil|HoleType=Round|Shape=RoundedRectangle|*
%AMROUNDEDRECTD23*
21,1,0.05118,0.05917,0,0,0.0*
21,1,0.04146,0.06890,0,0,0.0*
1,1,0.00972,0.02073,-0.02959*
1,1,0.00972,-0.02073,-0.02959*
1,1,0.00972,-0.02073,0.02959*
1,1,0.00972,0.02073,0.02959*
%
%ADD23ROUNDEDRECTD23*%
%ADD24R,0.05118X0.06102*%
G04:AMPARAMS|DCode=25|XSize=120.08mil|YSize=108.27mil|CornerRadius=4.87mil|HoleSize=0mil|Usage=FLASHONLY|Rotation=90.000|XOffset=0mil|YOffset=0mil|HoleType=Round|Shape=RoundedRectangle|*
%AMROUNDEDRECTD25*
21,1,0.12008,0.09852,0,0,90.0*
21,1,0.11033,0.10827,0,0,90.0*
1,1,0.00974,0.04926,0.05517*
1,1,0.00974,0.04926,-0.05517*
1,1,0.00974,-0.04926,-0.05517*
1,1,0.00974,-0.04926,0.05517*
%
%ADD25ROUNDEDRECTD25*%
%ADD26R,0.07874X0.11811*%
G04:AMPARAMS|DCode=27|XSize=251.97mil|YSize=228.35mil|CornerRadius=4.57mil|HoleSize=0mil|Usage=FLASHONLY|Rotation=90.000|XOffset=0mil|YOffset=0mil|HoleType=Round|Shape=RoundedRectangle|*
%AMROUNDEDRECTD27*
21,1,0.25197,0.21921,0,0,90.0*
21,1,0.24284,0.22835,0,0,90.0*
1,1,0.00913,0.10961,0.12142*
1,1,0.00913,0.10961,-0.12142*
1,1,0.00913,-0.10961,-0.12142*
1,1,0.00913,-0.10961,0.12142*
%
%ADD27ROUNDEDRECTD27*%
%ADD28C,0.07874*%
G04:AMPARAMS|DCode=29|XSize=177.17mil|YSize=129.92mil|CornerRadius=5.2mil|HoleSize=0mil|Usage=FLASHONLY|Rotation=270.000|XOffset=0mil|YOffset=0mil|HoleType=Round|Shape=RoundedRectangle|*
%AMROUNDEDRECTD29*
21,1,0.17717,0.11953,0,0,270.0*
21,1,0.16677,0.12992,0,0,270.0*
1,1,0.01039,-0.05976,-0.08339*
1,1,0.01039,-0.05976,0.08339*
1,1,0.01039,0.05976,0.08339*
1,1,0.01039,0.05976,-0.08339*
%
%ADD29ROUNDEDRECTD29*%
G04:AMPARAMS|DCode=30|XSize=177.17mil|YSize=129.92mil|CornerRadius=5.2mil|HoleSize=0mil|Usage=FLASHONLY|Rotation=0.000|XOffset=0mil|YOffset=0mil|HoleType=Round|Shape=RoundedRectangle|*
%AMROUNDEDRECTD30*
21,1,0.17717,0.11953,0,0,0.0*
21,1,0.16677,0.12992,0,0,0.0*
1,1,0.01039,0.08339,-0.05976*
1,1,0.01039,-0.08339,-0.05976*
1,1,0.01039,-0.08339,0.05976*
1,1,0.01039,0.08339,0.05976*
%
%ADD30ROUNDEDRECTD30*%
%ADD31C,0.09449*%
%ADD32C,0.06299*%
%ADD33R,0.08661X0.08661*%
G04:AMPARAMS|DCode=34|XSize=177.17mil|YSize=106.3mil|CornerRadius=4.78mil|HoleSize=0mil|Usage=FLASHONLY|Rotation=180.000|XOffset=0mil|YOffset=0mil|HoleType=Round|Shape=RoundedRectangle|*
%AMROUNDEDRECTD34*
21,1,0.17717,0.09673,0,0,180.0*
21,1,0.16760,0.10630,0,0,180.0*
1,1,0.00957,-0.08380,0.04837*
1,1,0.00957,0.08380,0.04837*
1,1,0.00957,0.08380,-0.04837*
1,1,0.00957,-0.08380,-0.04837*
%
%ADD34ROUNDEDRECTD34*%
%ADD35C,0.03150*%
%ADD36C,0.25197*%
%ADD37C,0.07677*%
%ADD38C,0.05669*%
%ADD39C,0.11811*%
G04:AMPARAMS|DCode=40|XSize=106.3mil|YSize=98.43mil|CornerRadius=49.21mil|HoleSize=0mil|Usage=FLASHONLY|Rotation=90.000|XOffset=0mil|YOffset=0mil|HoleType=Round|Shape=RoundedRectangle|*
%AMROUNDEDRECTD40*
21,1,0.10630,0.00000,0,0,90.0*
21,1,0.00787,0.09843,0,0,90.0*
1,1,0.09843,0.00000,0.00394*
1,1,0.09843,0.00000,-0.00394*
1,1,0.09843,0.00000,-0.00394*
1,1,0.09843,0.00000,0.00394*
%
%ADD40ROUNDEDRECTD40*%
%ADD41R,0.07874X0.07874*%
G04:AMPARAMS|DCode=42|XSize=86.61mil|YSize=86.61mil|CornerRadius=43.31mil|HoleSize=0mil|Usage=FLASHONLY|Rotation=180.000|XOffset=0mil|YOffset=0mil|HoleType=Round|Shape=RoundedRectangle|*
%AMROUNDEDRECTD42*
21,1,0.08661,0.00000,0,0,180.0*
21,1,0.00000,0.08661,0,0,180.0*
1,1,0.08661,0.00000,0.00000*
1,1,0.08661,0.00000,0.00000*
1,1,0.08661,0.00000,0.00000*
1,1,0.08661,0.00000,0.00000*
%
%ADD42ROUNDEDRECTD42*%
%ADD43R,0.06299X0.06299*%
G04:AMPARAMS|DCode=44|XSize=62.99mil|YSize=62.99mil|CornerRadius=31.5mil|HoleSize=0mil|Usage=FLASHONLY|Rotation=0.000|XOffset=0mil|YOffset=0mil|HoleType=Round|Shape=RoundedRectangle|*
%AMROUNDEDRECTD44*
21,1,0.06299,0.00000,0,0,0.0*
21,1,0.00000,0.06299,0,0,0.0*
1,1,0.06299,0.00000,0.00000*
1,1,0.06299,0.00000,0.00000*
1,1,0.06299,0.00000,0.00000*
1,1,0.06299,0.00000,0.00000*
%
%ADD44ROUNDEDRECTD44*%
%ADD45C,0.02400*%
%ADD46C,0.05000*%
%ADD47C,0.02000*%
%ADD48C,0.11000*%
%ADD49C,0.10000*%
%ADD50C,0.11800*%
%ADD51C,0.04000*%
%ADD52C,0.07800*%
G36*
X808471Y374940D02*
X806471Y374460D01*
X806130Y375127D01*
X804872Y376859D01*
X803359Y378372D01*
X801627Y379630D01*
X800931Y382230D01*
X801083Y382471D01*
X808471D01*
Y374940D01*
D02*
G37*
G36*
X624565Y330398D02*
Y324524D01*
X624683Y323931D01*
X625019Y323428D01*
X625521Y323092D01*
X626114Y322974D01*
X632067D01*
Y316079D01*
X631535Y315707D01*
X630067Y315317D01*
X618442Y326942D01*
X617780Y327384D01*
X617000Y327539D01*
X603000D01*
Y332272D01*
X605000Y333101D01*
X605024Y333077D01*
X606149Y332427D01*
X607405Y332090D01*
X608705D01*
X609961Y332427D01*
X611087Y333077D01*
X612006Y333996D01*
X612656Y335122D01*
X612992Y336378D01*
Y337678D01*
X612656Y338933D01*
X612006Y340059D01*
X611087Y340978D01*
X609961Y341628D01*
X608705Y341965D01*
X607405D01*
X606149Y341628D01*
X605024Y340978D01*
X605000Y340954D01*
X603000Y341783D01*
Y349134D01*
X605000Y349962D01*
X624565Y330398D01*
D02*
G37*
G36*
X626961Y312655D02*
Y290605D01*
X624961Y290104D01*
X624657Y290672D01*
X623795Y291723D01*
X623795Y291723D01*
X614989Y300529D01*
Y317342D01*
X614855Y318695D01*
X614461Y319996D01*
X613820Y321195D01*
X613765Y321262D01*
X614563Y323042D01*
X616386Y323230D01*
X626961Y312655D01*
D02*
G37*
G36*
X788069Y382230D02*
X787373Y379630D01*
X785641Y378372D01*
X784128Y376859D01*
X782870Y375127D01*
X781898Y373220D01*
X781236Y371184D01*
X780902Y369070D01*
Y368500D01*
X794500D01*
Y368000D01*
X795000D01*
Y354402D01*
X795570D01*
X797684Y354736D01*
X799720Y355398D01*
X801627Y356370D01*
X803359Y357628D01*
X804872Y359141D01*
X806130Y360873D01*
X806471Y361541D01*
X808471Y361060D01*
Y282500D01*
X764573D01*
X762937Y283378D01*
X762937Y284500D01*
Y293252D01*
X753063D01*
Y284500D01*
X753063Y283378D01*
X751427Y282500D01*
X723500D01*
X703500Y262500D01*
Y255340D01*
X676549D01*
Y261315D01*
X676432Y261908D01*
X676096Y262411D01*
X675593Y262747D01*
X675000Y262864D01*
X669524D01*
Y252976D01*
X668524D01*
Y262864D01*
X663047D01*
X662454Y262747D01*
X661952Y262411D01*
X661616Y261908D01*
X661498Y261315D01*
Y259898D01*
X646526D01*
Y261291D01*
X646408Y261884D01*
X646072Y262387D01*
X645569Y262723D01*
X644976Y262841D01*
X641280D01*
X625826Y278295D01*
Y281051D01*
X626747Y281587D01*
X627825Y281791D01*
X631558Y278058D01*
X632220Y277616D01*
X633000Y277461D01*
X704685D01*
X705465Y277616D01*
X706127Y278058D01*
X710947Y282878D01*
X717937D01*
Y292752D01*
X708063D01*
Y285762D01*
X703840Y281539D01*
X633845D01*
X631039Y284345D01*
Y285802D01*
X631430Y286216D01*
X633024Y287159D01*
X644976D01*
X645569Y287277D01*
X646072Y287613D01*
X646408Y288116D01*
X646526Y288709D01*
Y305386D01*
X646408Y305979D01*
X646072Y306482D01*
X645933Y306574D01*
Y325953D01*
X645800Y327305D01*
X645406Y328606D01*
X644765Y329805D01*
X644341Y330322D01*
Y336476D01*
X644223Y337069D01*
X643887Y337572D01*
X643384Y337908D01*
X642791Y338026D01*
X636520D01*
X636397Y338176D01*
X636397Y338176D01*
X612958Y361615D01*
X611907Y362477D01*
X610708Y363118D01*
X609408Y363513D01*
X608055Y363646D01*
X606703Y363513D01*
X605402Y363118D01*
X605000Y362903D01*
X603151Y363847D01*
X603000Y364043D01*
Y369067D01*
X603151Y369263D01*
X605000Y370207D01*
X605402Y369992D01*
X606703Y369598D01*
X608055Y369464D01*
X612821D01*
X624065Y358221D01*
Y354524D01*
X624183Y353931D01*
X624518Y353428D01*
X625021Y353092D01*
X625614Y352974D01*
X634035D01*
X648670Y338339D01*
Y312853D01*
X648804Y311500D01*
X649198Y310199D01*
X649839Y309001D01*
X650701Y307950D01*
X661498Y297154D01*
Y288732D01*
X661616Y288139D01*
X661952Y287637D01*
X662454Y287301D01*
X663047Y287183D01*
X675000D01*
X675593Y287301D01*
X676096Y287637D01*
X676432Y288139D01*
X676549Y288732D01*
Y305410D01*
X676432Y306002D01*
X676096Y306505D01*
X675593Y306841D01*
X675000Y306959D01*
X671303D01*
X662537Y315725D01*
Y341211D01*
X662404Y342564D01*
X662010Y343864D01*
X661369Y345063D01*
X660507Y346114D01*
X660506Y346114D01*
X643841Y362779D01*
Y366476D01*
X643723Y367069D01*
X643387Y367572D01*
X642884Y367908D01*
X642291Y368026D01*
X633870D01*
X621425Y380471D01*
X622254Y382471D01*
X787917D01*
X788069Y382230D01*
D02*
G37*
G36*
X610634Y285273D02*
X610528Y284467D01*
X608705Y282909D01*
X607405D01*
X606149Y282573D01*
X605024Y281923D01*
X605000Y281899D01*
X603000Y282728D01*
Y290079D01*
X605000Y290907D01*
X610634Y285273D01*
D02*
G37*
G36*
X605024Y274022D02*
X606149Y273372D01*
X607405Y273035D01*
X608705D01*
X609961Y273372D01*
X610179Y273498D01*
X612419Y272817D01*
X612548Y272655D01*
X613127Y271571D01*
X613989Y270520D01*
X631057Y253453D01*
X639000D01*
Y252453D01*
X631474D01*
Y244614D01*
X629557Y244000D01*
X626622D01*
X612991Y257631D01*
X612992Y257637D01*
Y258937D01*
X612656Y260193D01*
X612006Y261319D01*
X611087Y262238D01*
X609961Y262888D01*
X608705Y263224D01*
X607405D01*
X606149Y262888D01*
X605024Y262238D01*
X605000Y262214D01*
X603000Y263043D01*
Y273217D01*
X605000Y274046D01*
X605024Y274022D01*
D02*
G37*
G36*
X608555Y233665D02*
X608705D01*
X609961Y234002D01*
X611087Y234652D01*
X612006Y235571D01*
X612656Y236697D01*
X612992Y237952D01*
Y238000D01*
X624063D01*
X637799Y224264D01*
Y216573D01*
X637421D01*
X636837Y216457D01*
X636343Y216126D01*
X636012Y215631D01*
X635896Y215047D01*
Y208953D01*
X636012Y208369D01*
X636343Y207874D01*
X636837Y207543D01*
X637421Y207427D01*
X650209D01*
X650792Y207543D01*
X651287Y207874D01*
X651618Y208369D01*
X651734Y208953D01*
Y215047D01*
X651618Y215631D01*
X651287Y216126D01*
X650792Y216457D01*
X650209Y216573D01*
X643851D01*
Y225517D01*
X643851Y225517D01*
X643748Y226301D01*
X643446Y227030D01*
X642965Y227657D01*
X634470Y236152D01*
X635235Y238000D01*
X771616D01*
X778072Y231544D01*
Y231522D01*
X777699Y231149D01*
X777239Y230351D01*
X777010Y229500D01*
X783989D01*
X783762Y230351D01*
X783301Y231149D01*
X782649Y231801D01*
X782150Y232089D01*
Y232389D01*
X781995Y233169D01*
X781553Y233831D01*
X779232Y236152D01*
X779997Y238000D01*
X782616D01*
X803461Y217155D01*
Y199845D01*
X790325Y186709D01*
X788872Y188029D01*
X789509Y189132D01*
X789839Y190363D01*
Y190500D01*
X785500D01*
Y186161D01*
X785637D01*
X786868Y186491D01*
X787971Y187128D01*
X789291Y185675D01*
X763655Y160039D01*
X611829D01*
Y161760D01*
X611712Y162344D01*
X611382Y162838D01*
X610887Y163169D01*
X610303Y163285D01*
Y165215D01*
X610887Y165331D01*
X611382Y165662D01*
X611712Y166156D01*
X611829Y166740D01*
Y171260D01*
X611712Y171844D01*
X611382Y172338D01*
X610887Y172669D01*
X610508Y172745D01*
Y175310D01*
X611459D01*
X612039Y175425D01*
X612530Y175753D01*
X612859Y176245D01*
X612974Y176825D01*
Y180971D01*
X612859Y181550D01*
X612530Y182042D01*
X612039Y182370D01*
X611459Y182486D01*
X605541D01*
X604961Y182370D01*
X604470Y182042D01*
X604141Y181550D01*
X604026Y180971D01*
Y180937D01*
X601974D01*
Y180971D01*
X601859Y181550D01*
X601530Y182042D01*
X601039Y182370D01*
X600459Y182486D01*
X594541D01*
X593961Y182370D01*
X593470Y182042D01*
X593141Y181550D01*
X593026Y180971D01*
Y176825D01*
X593141Y176245D01*
X593470Y175753D01*
X593961Y175425D01*
X594541Y175310D01*
X600459D01*
X601039Y175425D01*
X601530Y175753D01*
X601859Y176245D01*
X601974Y176825D01*
Y176858D01*
X604026D01*
Y176825D01*
X604141Y176245D01*
X604470Y175753D01*
X604961Y175425D01*
X605541Y175310D01*
X606429D01*
Y172757D01*
X605987Y172669D01*
X605657Y172448D01*
X605326Y172338D01*
X603674D01*
X603343Y172448D01*
X603013Y172669D01*
X602429Y172785D01*
X598697D01*
X598113Y172669D01*
X597618Y172338D01*
X597288Y171844D01*
X597171Y171260D01*
Y168783D01*
X586508D01*
X585200Y170562D01*
Y171438D01*
X584865Y172246D01*
X584246Y172865D01*
X583463Y173189D01*
X583172Y173384D01*
X582392Y173539D01*
X579391D01*
Y173760D01*
X579275Y174344D01*
X578945Y174838D01*
X578450Y175169D01*
X577866Y175285D01*
X574134D01*
X573550Y175169D01*
X573220Y174948D01*
X572889Y174838D01*
X571994D01*
X570165Y176395D01*
Y177813D01*
X570010Y178593D01*
X569568Y179255D01*
X567039Y181784D01*
Y184858D01*
X572791D01*
Y194142D01*
X557209D01*
Y184858D01*
X562961D01*
Y180939D01*
X563116Y180159D01*
X563558Y179497D01*
X565879Y177176D01*
X565725Y175655D01*
X565648Y175150D01*
X565181Y174838D01*
X564851Y174344D01*
X564735Y173760D01*
Y172317D01*
X564278D01*
X563497Y172162D01*
X562836Y171720D01*
X556142Y165026D01*
X555754Y164865D01*
X555135Y164246D01*
X554800Y163438D01*
Y162562D01*
X554961Y162174D01*
Y159706D01*
X550945D01*
X550440Y159606D01*
X550011Y159320D01*
X549725Y158891D01*
X549624Y158386D01*
Y156614D01*
X549708Y156194D01*
X549725Y156109D01*
X549725Y156109D01*
X550011Y155507D01*
Y154493D01*
X549725Y153891D01*
X549725Y153891D01*
X549708Y153806D01*
X549624Y153386D01*
Y151614D01*
X549708Y151194D01*
X549725Y151109D01*
X549725Y151109D01*
X550011Y150507D01*
Y149493D01*
X549725Y148891D01*
X549725Y148891D01*
X549708Y148806D01*
X549624Y148386D01*
Y146614D01*
X549708Y146194D01*
X549725Y146109D01*
X549725Y146109D01*
X550011Y145507D01*
Y144493D01*
X549725Y143891D01*
X549725Y143891D01*
X549708Y143806D01*
X549624Y143386D01*
Y143000D01*
X554488D01*
Y142000D01*
X549624D01*
Y141614D01*
X549708Y141194D01*
X549725Y141109D01*
X549725Y141109D01*
X550011Y140507D01*
Y139493D01*
X549725Y138891D01*
X549725Y138891D01*
X549708Y138806D01*
X549624Y138386D01*
Y136614D01*
X549708Y136194D01*
X549725Y136109D01*
X549725Y136109D01*
X550011Y135507D01*
Y134493D01*
X549725Y133891D01*
X549725Y133891D01*
X549708Y133806D01*
X549624Y133386D01*
Y131614D01*
X549708Y131194D01*
X549725Y131109D01*
X549725Y131109D01*
X550011Y130507D01*
Y129493D01*
X549725Y128891D01*
X549725Y128891D01*
X549708Y128806D01*
X549624Y128386D01*
Y126614D01*
X549725Y126109D01*
X550011Y125680D01*
X550440Y125394D01*
X550945Y125294D01*
X556468D01*
X561204Y120558D01*
X561204Y120558D01*
X561865Y120116D01*
X562646Y119961D01*
X565171D01*
Y119740D01*
X565288Y119156D01*
X565618Y118662D01*
X566113Y118331D01*
X566524Y118249D01*
Y117172D01*
X566679Y116391D01*
X567121Y115730D01*
X568293Y114558D01*
X568293Y114558D01*
X568954Y114116D01*
X569735Y113961D01*
X581328D01*
X582109Y114116D01*
X582770Y114558D01*
X583942Y115730D01*
X583942Y115730D01*
X584384Y116391D01*
X584539Y117172D01*
Y135638D01*
X584681Y135812D01*
X586539Y136810D01*
X586562Y136800D01*
X587438D01*
X588011Y137037D01*
X590033D01*
X590814Y137193D01*
X591475Y137635D01*
X600055Y146215D01*
X602429D01*
X603013Y146331D01*
X603343Y146552D01*
X603674Y146662D01*
X605326D01*
X605657Y146552D01*
X605987Y146331D01*
X606571Y146215D01*
X610303D01*
X610887Y146331D01*
X611382Y146662D01*
X611712Y147156D01*
X611829Y147740D01*
Y147961D01*
X734136D01*
X734199Y147851D01*
X734851Y147199D01*
X735649Y146739D01*
X736539Y146500D01*
X737461D01*
X738351Y146739D01*
X739149Y147199D01*
X739801Y147851D01*
X740262Y148649D01*
X740500Y149539D01*
Y150461D01*
X740262Y151351D01*
X739801Y152149D01*
X739149Y152801D01*
X738351Y153261D01*
X737461Y153500D01*
X736539D01*
X735649Y153261D01*
X734851Y152801D01*
X734199Y152149D01*
X734136Y152039D01*
X611829D01*
Y152260D01*
X611712Y152844D01*
X611382Y153338D01*
X611582Y155399D01*
X611591Y155421D01*
X612201Y155961D01*
X764500D01*
X765280Y156116D01*
X765942Y156558D01*
X806471Y197087D01*
X808331Y196467D01*
X808471Y196357D01*
Y123083D01*
X808230Y122931D01*
X805630Y123627D01*
X804372Y125359D01*
X802859Y126872D01*
X801127Y128130D01*
X799220Y129102D01*
X797184Y129764D01*
X795070Y130098D01*
X794500D01*
Y116500D01*
X794000D01*
Y116000D01*
X780402D01*
Y115430D01*
X780736Y113316D01*
X781398Y111280D01*
X782370Y109373D01*
X783628Y107641D01*
X785141Y106128D01*
X786873Y104870D01*
X788780Y103898D01*
X789914Y103529D01*
X789597Y101529D01*
X561791D01*
Y110642D01*
X546209D01*
Y108039D01*
X541577D01*
X539249Y110367D01*
X540015Y112215D01*
X540866D01*
X541450Y112331D01*
X541945Y112662D01*
X542275Y113156D01*
X542391Y113740D01*
Y116901D01*
X545442Y119952D01*
X545884Y120613D01*
X546039Y121394D01*
Y146175D01*
X545884Y146956D01*
X545442Y147617D01*
X540866Y152193D01*
X540813Y152228D01*
X539864Y153177D01*
Y153386D01*
X539780Y153806D01*
X539763Y153891D01*
X539763Y153891D01*
X539477Y154493D01*
Y155507D01*
X539763Y156109D01*
X539763Y156109D01*
X539780Y156194D01*
X539864Y156614D01*
X541427Y157877D01*
X543135Y157754D01*
X543379Y157510D01*
X543754Y157135D01*
X544500Y156826D01*
Y159000D01*
X545000D01*
Y159500D01*
X547174D01*
X546865Y160246D01*
X546246Y160865D01*
X546948Y162739D01*
X547071Y162715D01*
X548437D01*
Y166500D01*
Y170285D01*
X547071D01*
X546487Y170169D01*
X546157Y169948D01*
X545826Y169838D01*
X544174D01*
X543843Y169948D01*
X543513Y170169D01*
X542929Y170285D01*
X539197D01*
X538613Y170169D01*
X538118Y169838D01*
X537788Y169344D01*
X537672Y168760D01*
Y164240D01*
X537788Y163656D01*
X538118Y163162D01*
X538264Y161293D01*
X538175Y160901D01*
X536994Y159720D01*
X532290D01*
X526883Y165126D01*
Y167412D01*
X526768Y167992D01*
X526440Y168483D01*
X525948Y168811D01*
X525369Y168927D01*
X522641D01*
X522588Y169007D01*
X516883Y174711D01*
Y176997D01*
X516768Y177576D01*
X516440Y178068D01*
X515948Y178396D01*
X515369Y178511D01*
X510631D01*
X510052Y178396D01*
X509560Y178068D01*
X509232Y177576D01*
X509159Y177208D01*
X500669D01*
X499889Y177053D01*
X499227Y176611D01*
X493481Y170865D01*
X493039Y170204D01*
X492884Y169423D01*
Y165268D01*
X476243Y148627D01*
X475801Y147965D01*
X475646Y147185D01*
Y133573D01*
X471291D01*
X470039Y135232D01*
Y151779D01*
X469884Y152560D01*
X469442Y153221D01*
X463185Y159478D01*
Y170405D01*
X453311D01*
Y156595D01*
X460301D01*
X465961Y150935D01*
Y135145D01*
X465805Y134878D01*
X464394Y133573D01*
X463961Y133573D01*
X451606D01*
X451023Y133457D01*
X450528Y133126D01*
X450197Y132631D01*
X450081Y132047D01*
Y125953D01*
X450197Y125369D01*
X450528Y124874D01*
X451023Y124543D01*
X451606Y124427D01*
X454076D01*
Y118109D01*
X453958Y118030D01*
X453629Y117539D01*
X453514Y116959D01*
Y111041D01*
X453629Y110461D01*
X453958Y109970D01*
X454450Y109641D01*
X455029Y109526D01*
X459175D01*
X459755Y109641D01*
X460247Y109970D01*
X460575Y110461D01*
X460690Y111041D01*
Y116959D01*
X460575Y117539D01*
X460247Y118030D01*
X460128Y118109D01*
Y124427D01*
X463961D01*
X464394Y124427D01*
X465805Y123122D01*
X465961Y122855D01*
Y114500D01*
X466116Y113720D01*
X466558Y113058D01*
X472058Y107558D01*
X472058Y107558D01*
X472720Y107116D01*
X473500Y106961D01*
X476766D01*
X478237Y105500D01*
X482763D01*
X484234Y106961D01*
X491266D01*
X492737Y105500D01*
X497263D01*
X498734Y106961D01*
X516674D01*
X517062Y106800D01*
X517938D01*
X518746Y107135D01*
X519365Y107754D01*
X519700Y108562D01*
Y109438D01*
X519365Y110246D01*
X519262Y110349D01*
X520039Y112011D01*
X520225Y112215D01*
X523866D01*
X524450Y112331D01*
X524945Y112662D01*
X525275Y113156D01*
X525391Y113740D01*
Y113961D01*
X527735D01*
Y113740D01*
X527851Y113156D01*
X528181Y112662D01*
X528676Y112331D01*
X529260Y112215D01*
X531634D01*
X539290Y104558D01*
X539952Y104116D01*
X540732Y103961D01*
X546209D01*
Y101529D01*
X497254D01*
X497154Y101688D01*
X496641Y103529D01*
X496865Y103754D01*
X497174Y104500D01*
X492826D01*
X493135Y103754D01*
X493359Y103529D01*
X492846Y101688D01*
X492746Y101529D01*
X482754D01*
X482654Y101688D01*
X482141Y103529D01*
X482365Y103754D01*
X482674Y104500D01*
X478326D01*
X478635Y103754D01*
X478859Y103529D01*
X478346Y101688D01*
X478246Y101529D01*
X396500D01*
Y144077D01*
X411391D01*
X411470Y143958D01*
X411961Y143630D01*
X412541Y143514D01*
X418459D01*
X419039Y143630D01*
X419530Y143958D01*
X419609Y144077D01*
X422891D01*
X422970Y143958D01*
X423461Y143630D01*
X424041Y143514D01*
X429959D01*
X430539Y143630D01*
X431030Y143958D01*
X431359Y144450D01*
X431474Y145029D01*
Y149175D01*
X431359Y149755D01*
X431030Y150247D01*
X430539Y150575D01*
X429959Y150690D01*
X424041D01*
X423461Y150575D01*
X422970Y150247D01*
X422891Y150128D01*
X419609D01*
X419530Y150247D01*
X419039Y150575D01*
X418459Y150690D01*
X412541D01*
X411961Y150575D01*
X411470Y150247D01*
X411391Y150128D01*
X399741D01*
X398976Y151976D01*
X420500Y173500D01*
Y174000D01*
X490500D01*
X524000Y207500D01*
X551560D01*
X552124Y206580D01*
X552533Y205500D01*
X552326Y205000D01*
X556674D01*
X556467Y205500D01*
X556876Y206580D01*
X557440Y207500D01*
X578000D01*
X580524Y210024D01*
X582460Y209479D01*
X583105Y207822D01*
X583127Y207726D01*
X582826Y207000D01*
X587174D01*
X586865Y207746D01*
X586361Y208250D01*
X586865Y208754D01*
X587174Y209500D01*
X585000D01*
Y210500D01*
X587174D01*
X586865Y211246D01*
X586246Y211865D01*
X585438Y212200D01*
X584700Y214200D01*
X587000Y216500D01*
Y238000D01*
X590961D01*
Y228500D01*
X591116Y227720D01*
X591558Y227058D01*
X621926Y196690D01*
X621097Y194691D01*
X616541D01*
X615961Y194575D01*
X615470Y194247D01*
X615141Y193755D01*
X615026Y193175D01*
Y193141D01*
X612974D01*
Y193175D01*
X612859Y193755D01*
X612530Y194247D01*
X612039Y194575D01*
X611459Y194691D01*
X605541D01*
X604961Y194575D01*
X604470Y194247D01*
X604141Y193755D01*
X604026Y193175D01*
Y189030D01*
X604141Y188450D01*
X604470Y187958D01*
X604961Y187629D01*
X605541Y187514D01*
X611459D01*
X612039Y187629D01*
X612530Y187958D01*
X612859Y188450D01*
X612974Y189030D01*
Y189063D01*
X615026D01*
Y189030D01*
X615141Y188450D01*
X615470Y187958D01*
X615961Y187629D01*
X616541Y187514D01*
X622459D01*
X623039Y187629D01*
X623530Y187958D01*
X623859Y188450D01*
X623974Y189030D01*
Y189465D01*
X625974Y190534D01*
X626026Y190499D01*
Y188927D01*
X626141Y188347D01*
X626470Y187856D01*
X626961Y187527D01*
X627541Y187412D01*
X633459D01*
X634039Y187527D01*
X634530Y187856D01*
X634859Y188347D01*
X634974Y188927D01*
Y193073D01*
X634859Y193653D01*
X634530Y194144D01*
X634039Y194473D01*
X633459Y194588D01*
X629697D01*
X629497Y194887D01*
X595039Y229345D01*
Y238000D01*
X603118D01*
Y237952D01*
X603455Y236697D01*
X604105Y235571D01*
X605024Y234652D01*
X606149Y234002D01*
X607405Y233665D01*
X607555D01*
Y238602D01*
X608555D01*
Y233665D01*
D02*
G37*
G36*
X808471Y220643D02*
X808331Y220533D01*
X806471Y219913D01*
X790232Y236152D01*
X790997Y238000D01*
X808471D01*
Y220643D01*
D02*
G37*
G36*
X509232Y172762D02*
X509560Y172271D01*
X509679Y172192D01*
X509858Y171249D01*
Y170921D01*
X509679Y169977D01*
X509560Y169898D01*
X509232Y169407D01*
X509117Y168827D01*
Y167476D01*
X506251D01*
X506169Y167887D01*
X505838Y168382D01*
X505344Y168712D01*
X504760Y168828D01*
X500240D01*
X499991Y168779D01*
X499198Y169643D01*
X498812Y170429D01*
X501514Y173130D01*
X509159D01*
X509232Y172762D01*
D02*
G37*
G36*
X518837Y165062D02*
X519117Y164875D01*
Y163757D01*
X519232Y163178D01*
X519560Y162686D01*
X519679Y162607D01*
X519858Y161664D01*
Y161336D01*
X519679Y160393D01*
X519560Y160314D01*
X519232Y159822D01*
X519173Y159528D01*
X506265D01*
X506169Y160013D01*
X505948Y160343D01*
X505838Y160674D01*
Y161569D01*
X507395Y163398D01*
X510896D01*
X511676Y163553D01*
X511833Y163658D01*
X515369D01*
X515948Y163773D01*
X516440Y164102D01*
X516768Y164593D01*
X518672Y165071D01*
X518837Y165062D01*
D02*
G37*
G36*
X565676Y167831D02*
X565805Y167805D01*
X566557Y166644D01*
X566814Y165715D01*
X566593Y165383D01*
X566003D01*
X565424Y165268D01*
X564932Y164940D01*
X564604Y164448D01*
X564489Y163869D01*
Y159131D01*
X564532Y158911D01*
X563931Y157971D01*
X563846Y157869D01*
X563102Y157200D01*
X562562D01*
X561754Y156865D01*
X561280Y156392D01*
X560869Y156439D01*
X560590Y156500D01*
X559352Y157077D01*
Y158386D01*
X559252Y158891D01*
X559039Y159209D01*
Y162155D01*
X563768Y166884D01*
X565181Y168162D01*
X565676Y167831D01*
D02*
G37*
G36*
X597374Y163403D02*
X597529Y162705D01*
X597288Y162344D01*
X597171Y161760D01*
Y157240D01*
X597288Y156656D01*
X597618Y156162D01*
X598113Y155831D01*
X598524Y155749D01*
Y153751D01*
X598113Y153669D01*
X597618Y153338D01*
X597288Y152844D01*
X597171Y152260D01*
Y151553D01*
X596076Y151064D01*
X595171Y150940D01*
X594746Y151365D01*
X593938Y151700D01*
X593253Y152500D01*
X591000D01*
Y153500D01*
X593174D01*
X592865Y154246D01*
X592246Y154865D01*
X591497Y155175D01*
X591438Y155200D01*
X590276Y155776D01*
X589700Y156938D01*
X589675Y156997D01*
X589365Y157746D01*
X588746Y158365D01*
X588048Y158654D01*
X587938Y158700D01*
X587115Y159115D01*
X586378Y159777D01*
X586057Y160283D01*
X585865Y160746D01*
X585246Y161365D01*
X584500Y161674D01*
Y159500D01*
X584000D01*
Y159000D01*
X581826D01*
X582135Y158254D01*
X582754Y157635D01*
X583452Y157346D01*
X583562Y157300D01*
X584385Y156885D01*
X585122Y156223D01*
X585443Y155717D01*
X585635Y155254D01*
X586254Y154635D01*
X587003Y154325D01*
X587062Y154300D01*
X588224Y153724D01*
X588800Y152562D01*
X588825Y152503D01*
X589135Y151754D01*
X589754Y151135D01*
X590562Y150800D01*
X591247Y150000D01*
X593500D01*
Y149000D01*
X591326D01*
X591635Y148254D01*
X592254Y147635D01*
X592696Y147452D01*
X593244Y146130D01*
X593373Y145300D01*
X589189Y141116D01*
X587641D01*
X587438Y141200D01*
X586562D01*
X586539Y141190D01*
X584681Y142188D01*
X584539Y142362D01*
Y144043D01*
X584384Y144824D01*
X583942Y145485D01*
X579391Y150036D01*
Y153760D01*
X579275Y154344D01*
X578945Y154838D01*
X578450Y155169D01*
X577866Y155285D01*
X574134D01*
X573550Y155169D01*
X573220Y154948D01*
X572889Y154838D01*
X571835D01*
X570669Y155798D01*
X570566Y156261D01*
X570717Y158052D01*
X570729Y158060D01*
X570808Y158179D01*
X571751Y158358D01*
X572080D01*
X573023Y158179D01*
X573102Y158060D01*
X573593Y157732D01*
X574173Y157617D01*
X575500D01*
Y161500D01*
X576000D01*
Y162000D01*
X579342D01*
Y163869D01*
X581215Y164705D01*
X596812D01*
X597374Y163403D01*
D02*
G37*
G36*
X520107Y143179D02*
X520186Y143060D01*
X520678Y142732D01*
X521257Y142617D01*
X523444D01*
X524133Y141504D01*
X523318Y140285D01*
X521071D01*
X520487Y140169D01*
X520157Y139948D01*
X519826Y139838D01*
X518174D01*
X517843Y139948D01*
X517513Y140169D01*
X516929Y140285D01*
X513197D01*
X513130Y140823D01*
X514943Y142617D01*
X516743D01*
X517322Y142732D01*
X517814Y143060D01*
X517893Y143179D01*
X518836Y143358D01*
X519164D01*
X520107Y143179D01*
D02*
G37*
G36*
X527553Y132063D02*
X527556Y132060D01*
X526832Y129956D01*
X526279Y129887D01*
X525734Y129937D01*
X525387Y130169D01*
X524803Y130285D01*
X521071D01*
X520487Y130169D01*
X520157Y129948D01*
X519826Y129838D01*
X518931D01*
X517754Y130840D01*
X517671Y131530D01*
X517813Y132784D01*
X517912Y133075D01*
X518174Y133162D01*
X519826D01*
X520157Y133052D01*
X520487Y132831D01*
X521071Y132715D01*
X524803D01*
X525387Y132831D01*
X525882Y133162D01*
X527553Y132063D01*
D02*
G37*
G36*
X565171Y129240D02*
X565288Y128656D01*
X565618Y128162D01*
X566113Y127831D01*
X566697Y127715D01*
Y125785D01*
X566113Y125669D01*
X565618Y125338D01*
X565288Y124844D01*
X565245Y124631D01*
X563666Y124313D01*
X563200Y124329D01*
X559352Y128177D01*
Y128386D01*
X560280Y129858D01*
X560729Y130280D01*
X565171D01*
Y129240D01*
D02*
G37*
G36*
X541961Y129301D02*
Y122238D01*
X539508Y119785D01*
X537134D01*
X536550Y119669D01*
X536220Y119448D01*
X535889Y119338D01*
X534237D01*
X533906Y119448D01*
X533576Y119669D01*
X532992Y119785D01*
X529260D01*
X528676Y119669D01*
X528181Y119338D01*
X527851Y118844D01*
X527735Y118260D01*
Y118039D01*
X525391D01*
Y118260D01*
X525275Y118844D01*
X524945Y119338D01*
X524508Y119631D01*
Y122715D01*
X524803D01*
X525387Y122831D01*
X525882Y123162D01*
X526212Y123656D01*
X526329Y124240D01*
Y125280D01*
X534819D01*
X534888Y125294D01*
X538543D01*
X539049Y125394D01*
X539477Y125680D01*
X539763Y126109D01*
X539864Y126614D01*
Y128386D01*
X539780Y128806D01*
X539763Y128891D01*
X540227Y130092D01*
X541961Y129301D01*
D02*
G37*
G36*
X498715Y163571D02*
X498831Y162987D01*
X499052Y162657D01*
X499162Y162326D01*
Y160674D01*
X499052Y160343D01*
X498831Y160013D01*
X498715Y159429D01*
Y155697D01*
X498831Y155113D01*
X499162Y154618D01*
X499656Y154288D01*
X500240Y154172D01*
X504760D01*
X505344Y154288D01*
X505838Y154618D01*
X506169Y155113D01*
X506236Y155450D01*
X514324D01*
X514372Y155391D01*
X515047Y153450D01*
X514069Y152472D01*
X513627Y151810D01*
X513472Y151030D01*
Y150383D01*
X513088D01*
X512508Y150268D01*
X512017Y149940D01*
X511689Y149448D01*
X511573Y148869D01*
Y148539D01*
X510500D01*
X509720Y148384D01*
X509058Y147942D01*
X507558Y146442D01*
X507116Y145780D01*
X506961Y145000D01*
Y121520D01*
X507116Y120739D01*
X507558Y120078D01*
X510735Y116901D01*
Y116500D01*
X514126D01*
Y115500D01*
X510735D01*
Y113740D01*
X510851Y113156D01*
X510929Y113039D01*
X510488Y111674D01*
X510043Y111039D01*
X498941D01*
X497306Y112000D01*
X495000D01*
Y112500D01*
X494500D01*
Y114674D01*
X493754Y114365D01*
X493135Y113746D01*
X492879Y113128D01*
X491500Y112469D01*
X490121Y113128D01*
X489865Y113746D01*
X489246Y114365D01*
X488500Y114674D01*
Y112500D01*
X487500D01*
Y114674D01*
X486754Y114365D01*
X486135Y113746D01*
X485800Y112938D01*
Y112278D01*
X484250Y111381D01*
X482700Y112278D01*
Y112938D01*
X482365Y113746D01*
X481746Y114365D01*
X481000Y114674D01*
Y112500D01*
X480500D01*
Y112000D01*
X478194D01*
X476559Y111039D01*
X474345D01*
X470039Y115345D01*
Y122768D01*
X471291Y124427D01*
X484079D01*
X484662Y124543D01*
X485157Y124874D01*
X485488Y125369D01*
X485604Y125953D01*
Y132047D01*
X485488Y132631D01*
X485157Y133126D01*
X484662Y133457D01*
X484079Y133573D01*
X479724D01*
Y146340D01*
X496365Y162981D01*
X496732Y163530D01*
X497480Y163618D01*
X498715Y163571D01*
D02*
G37*
G36*
X808471Y109917D02*
Y101529D01*
X798403D01*
X798086Y103529D01*
X799220Y103898D01*
X801127Y104870D01*
X802859Y106128D01*
X804372Y107641D01*
X805630Y109373D01*
X808230Y110069D01*
X808471Y109917D01*
D02*
G37*
%LPC*%
G36*
X794000Y367500D02*
X780902D01*
Y366930D01*
X781236Y364816D01*
X781898Y362780D01*
X782870Y360873D01*
X782964Y360743D01*
X760564Y338343D01*
X759668Y338615D01*
X758315Y338748D01*
X758000D01*
X756647Y338615D01*
X755347Y338221D01*
X754148Y337580D01*
X753097Y336718D01*
X752235Y335667D01*
X751594Y334468D01*
X751200Y333168D01*
X751067Y331815D01*
X751200Y330462D01*
X751594Y329162D01*
X752235Y327963D01*
X753097Y326912D01*
X754148Y326050D01*
X755347Y325409D01*
X756647Y325015D01*
X758000Y324882D01*
X758315D01*
X759668Y325015D01*
X760968Y325409D01*
X762167Y326050D01*
X763218Y326912D01*
X764080Y327963D01*
X764721Y329162D01*
X765115Y330462D01*
X765248Y331815D01*
X765115Y333168D01*
X764843Y334064D01*
X787243Y356464D01*
X787373Y356370D01*
X789280Y355398D01*
X791316Y354736D01*
X793430Y354402D01*
X794000D01*
Y367500D01*
D02*
G37*
G36*
X718437Y356937D02*
X708563D01*
Y347063D01*
X718437D01*
Y356937D01*
D02*
G37*
G36*
X762937Y356437D02*
X753063D01*
Y346563D01*
X762937D01*
Y356437D01*
D02*
G37*
G36*
X714150Y337252D02*
X714000D01*
Y332815D01*
X718437D01*
Y332965D01*
X718101Y334221D01*
X717451Y335346D01*
X716531Y336265D01*
X715406Y336915D01*
X714150Y337252D01*
D02*
G37*
G36*
X713000D02*
X712850D01*
X711594Y336915D01*
X710469Y336265D01*
X709549Y335346D01*
X708899Y334221D01*
X708563Y332965D01*
Y332815D01*
X713000D01*
Y337252D01*
D02*
G37*
G36*
X736000Y333674D02*
Y332000D01*
X737674D01*
X737365Y332746D01*
X736746Y333365D01*
X736000Y333674D01*
D02*
G37*
G36*
X735000D02*
X734254Y333365D01*
X733635Y332746D01*
X733326Y332000D01*
X735000D01*
Y333674D01*
D02*
G37*
G36*
X737674Y331000D02*
X736000D01*
Y329326D01*
X736746Y329635D01*
X737365Y330254D01*
X737674Y331000D01*
D02*
G37*
G36*
X735000D02*
X733326D01*
X733635Y330254D01*
X734254Y329635D01*
X735000Y329326D01*
Y331000D01*
D02*
G37*
G36*
X718437Y331815D02*
X714000D01*
Y327378D01*
X714150D01*
X715406Y327714D01*
X716531Y328364D01*
X717451Y329284D01*
X718101Y330409D01*
X718437Y331665D01*
Y331815D01*
D02*
G37*
G36*
X713000D02*
X708563D01*
Y331665D01*
X708899Y330409D01*
X709549Y329284D01*
X710469Y328364D01*
X711594Y327714D01*
X712850Y327378D01*
X713000D01*
Y331815D01*
D02*
G37*
G36*
X686386Y368026D02*
X669709D01*
X669116Y367908D01*
X668613Y367572D01*
X668277Y367069D01*
X668159Y366476D01*
Y354524D01*
X668277Y353931D01*
X668613Y353428D01*
X669116Y353092D01*
X669709Y352974D01*
X671364D01*
Y338026D01*
X670209D01*
X669616Y337908D01*
X669113Y337572D01*
X668777Y337069D01*
X668659Y336476D01*
Y324524D01*
X668777Y323931D01*
X669113Y323428D01*
X669616Y323092D01*
X670209Y322974D01*
X686886D01*
X687479Y323092D01*
X687982Y323428D01*
X688317Y323931D01*
X688435Y324524D01*
Y336476D01*
X688317Y337069D01*
X687982Y337572D01*
X687479Y337908D01*
X686886Y338026D01*
X685231D01*
Y352974D01*
X686386D01*
X686979Y353092D01*
X687481Y353428D01*
X687817Y353931D01*
X687935Y354524D01*
Y366476D01*
X687817Y367069D01*
X687481Y367572D01*
X686979Y367908D01*
X686386Y368026D01*
D02*
G37*
G36*
X799500Y334844D02*
X798339Y334729D01*
X797223Y334391D01*
X796194Y333841D01*
X795293Y333101D01*
X794553Y332199D01*
X794003Y331171D01*
X793664Y330054D01*
X793550Y328894D01*
Y328106D01*
X793664Y326945D01*
X794003Y325829D01*
X794553Y324801D01*
X795293Y323899D01*
X796194Y323159D01*
X797223Y322609D01*
X798339Y322271D01*
X799500Y322156D01*
X800661Y322271D01*
X801777Y322609D01*
X802806Y323159D01*
X803707Y323899D01*
X804447Y324801D01*
X804997Y325829D01*
X805336Y326945D01*
X805450Y328106D01*
Y328894D01*
X805336Y330054D01*
X804997Y331171D01*
X804447Y332199D01*
X803707Y333101D01*
X802806Y333841D01*
X801777Y334391D01*
X800661Y334729D01*
X799500Y334844D01*
D02*
G37*
G36*
X739000Y322174D02*
X738271Y321872D01*
X738254Y321865D01*
X737000Y321454D01*
X735746Y321865D01*
X735729Y321872D01*
X735000Y322174D01*
Y320000D01*
Y317826D01*
X735729Y318128D01*
X735746Y318135D01*
X737000Y318546D01*
X738254Y318135D01*
X738271Y318128D01*
X739000Y317826D01*
Y320000D01*
Y322174D01*
D02*
G37*
G36*
X734000D02*
X733271Y321872D01*
X733254Y321865D01*
X732000Y321454D01*
X730746Y321865D01*
X730729Y321872D01*
X730000Y322174D01*
Y320000D01*
Y317826D01*
X730729Y318128D01*
X730746Y318135D01*
X732000Y318546D01*
X733254Y318135D01*
X733271Y318128D01*
X734000Y317826D01*
Y320000D01*
Y322174D01*
D02*
G37*
G36*
X729000D02*
X728271Y321872D01*
X728254Y321865D01*
X727000Y321454D01*
X725746Y321865D01*
X725729Y321872D01*
X725000Y322174D01*
Y320000D01*
Y317826D01*
X725729Y318128D01*
X725746Y318135D01*
X727000Y318546D01*
X728254Y318135D01*
X728271Y318128D01*
X729000Y317826D01*
Y320000D01*
Y322174D01*
D02*
G37*
G36*
X744500D02*
X743754Y321865D01*
X743414Y321526D01*
X742250Y321367D01*
X741086Y321526D01*
X740746Y321865D01*
X740000Y322174D01*
Y320000D01*
Y317826D01*
X740746Y318135D01*
X741086Y318475D01*
X742250Y318633D01*
X743414Y318475D01*
X743754Y318135D01*
X744500Y317826D01*
Y320000D01*
Y322174D01*
D02*
G37*
G36*
X745500D02*
Y320500D01*
X747174D01*
X746865Y321246D01*
X746246Y321865D01*
X745500Y322174D01*
D02*
G37*
G36*
X724000D02*
X723254Y321865D01*
X722635Y321246D01*
X722326Y320500D01*
X724000D01*
Y322174D01*
D02*
G37*
G36*
X704000Y321174D02*
Y319500D01*
X705674D01*
X705365Y320246D01*
X704746Y320865D01*
X704000Y321174D01*
D02*
G37*
G36*
X703000D02*
X702254Y320865D01*
X701635Y320246D01*
X701326Y319500D01*
X703000D01*
Y321174D01*
D02*
G37*
G36*
X695500D02*
Y319500D01*
X697174D01*
X696865Y320246D01*
X696246Y320865D01*
X695500Y321174D01*
D02*
G37*
G36*
X694500D02*
X693754Y320865D01*
X693135Y320246D01*
X692826Y319500D01*
X694500D01*
Y321174D01*
D02*
G37*
G36*
X747174Y319500D02*
X745500D01*
Y317826D01*
X746246Y318135D01*
X746865Y318754D01*
X747174Y319500D01*
D02*
G37*
G36*
X724000D02*
X722326D01*
X722635Y318754D01*
X723254Y318135D01*
X724000Y317826D01*
Y319500D01*
D02*
G37*
G36*
X705674Y318500D02*
X704000D01*
Y316826D01*
X704746Y317135D01*
X705365Y317754D01*
X705674Y318500D01*
D02*
G37*
G36*
X703000D02*
X701326D01*
X701635Y317754D01*
X702254Y317135D01*
X703000Y316826D01*
Y318500D01*
D02*
G37*
G36*
X697174D02*
X695500D01*
Y316826D01*
X696246Y317135D01*
X696865Y317754D01*
X697174Y318500D01*
D02*
G37*
G36*
X694500D02*
X692826D01*
X693135Y317754D01*
X693754Y317135D01*
X694500Y316826D01*
Y318500D01*
D02*
G37*
G36*
X758650Y312937D02*
X758500D01*
Y308500D01*
X762937D01*
Y308650D01*
X762601Y309906D01*
X761951Y311031D01*
X761031Y311951D01*
X759906Y312601D01*
X758650Y312937D01*
D02*
G37*
G36*
X757500D02*
X757350D01*
X756094Y312601D01*
X754969Y311951D01*
X754049Y311031D01*
X753399Y309906D01*
X753063Y308650D01*
Y308500D01*
X757500D01*
Y312937D01*
D02*
G37*
G36*
X713650Y312437D02*
X713500D01*
Y308000D01*
X717937D01*
Y308150D01*
X717601Y309406D01*
X716951Y310531D01*
X716031Y311451D01*
X714906Y312101D01*
X713650Y312437D01*
D02*
G37*
G36*
X712500D02*
X712350D01*
X711094Y312101D01*
X709969Y311451D01*
X709049Y310531D01*
X708399Y309406D01*
X708063Y308150D01*
Y308000D01*
X712500D01*
Y312437D01*
D02*
G37*
G36*
X736000Y309174D02*
Y307500D01*
X737674D01*
X737365Y308246D01*
X736746Y308865D01*
X736000Y309174D01*
D02*
G37*
G36*
X735000D02*
X734254Y308865D01*
X733635Y308246D01*
X733326Y307500D01*
X735000D01*
Y309174D01*
D02*
G37*
G36*
X737674Y306500D02*
X736000D01*
Y304826D01*
X736746Y305135D01*
X737365Y305754D01*
X737674Y306500D01*
D02*
G37*
G36*
X735000D02*
X733326D01*
X733635Y305754D01*
X734254Y305135D01*
X735000Y304826D01*
Y306500D01*
D02*
G37*
G36*
X762937Y307500D02*
X758500D01*
Y303063D01*
X758650D01*
X759906Y303399D01*
X761031Y304049D01*
X761951Y304969D01*
X762601Y306094D01*
X762937Y307350D01*
Y307500D01*
D02*
G37*
G36*
X757500D02*
X753063D01*
Y307350D01*
X753399Y306094D01*
X754049Y304969D01*
X754969Y304049D01*
X756094Y303399D01*
X757350Y303063D01*
X757500D01*
Y307500D01*
D02*
G37*
G36*
X717937Y307000D02*
X713500D01*
Y302563D01*
X713650D01*
X714906Y302899D01*
X716031Y303549D01*
X716951Y304469D01*
X717601Y305594D01*
X717937Y306850D01*
Y307000D01*
D02*
G37*
G36*
X712500D02*
X708063D01*
Y306850D01*
X708399Y305594D01*
X709049Y304469D01*
X709969Y303549D01*
X711094Y302899D01*
X712350Y302563D01*
X712500D01*
Y307000D01*
D02*
G37*
G36*
X799500Y314844D02*
X798339Y314729D01*
X797223Y314391D01*
X796194Y313841D01*
X795293Y313101D01*
X794553Y312199D01*
X794003Y311171D01*
X793664Y310054D01*
X793550Y308894D01*
Y308106D01*
X793664Y306945D01*
X794003Y305829D01*
X794553Y304801D01*
X795293Y303899D01*
X796194Y303159D01*
X797223Y302609D01*
X798339Y302271D01*
X799500Y302156D01*
X800661Y302271D01*
X801777Y302609D01*
X802806Y303159D01*
X803707Y303899D01*
X804447Y304801D01*
X804997Y305829D01*
X805336Y306945D01*
X805450Y308106D01*
Y308894D01*
X805336Y310054D01*
X804997Y311171D01*
X804447Y312199D01*
X803707Y313101D01*
X802806Y313841D01*
X801777Y314391D01*
X800661Y314729D01*
X799500Y314844D01*
D02*
G37*
G36*
X783989Y228500D02*
X781000D01*
Y225511D01*
X781851Y225739D01*
X782649Y226199D01*
X783301Y226851D01*
X783762Y227649D01*
X783989Y228500D01*
D02*
G37*
G36*
X780000D02*
X777010D01*
X777239Y227649D01*
X777699Y226851D01*
X778351Y226199D01*
X779149Y225739D01*
X780000Y225511D01*
Y228500D01*
D02*
G37*
G36*
X717146Y220049D02*
X711854D01*
X711268Y219932D01*
X710770Y219600D01*
X710438Y219103D01*
X710321Y218516D01*
Y215026D01*
X696177D01*
X696075Y215539D01*
X695747Y216030D01*
X695255Y216359D01*
X694675Y216474D01*
X690529D01*
X689950Y216359D01*
X689458Y216030D01*
X689129Y215539D01*
X689014Y214959D01*
Y212388D01*
X685986Y209360D01*
X683986Y210188D01*
Y214959D01*
X683871Y215539D01*
X683542Y216030D01*
X683050Y216359D01*
X682471Y216474D01*
X678325D01*
X677745Y216359D01*
X677253Y216030D01*
X676925Y215539D01*
X676823Y215026D01*
X671419D01*
Y215047D01*
X671303Y215631D01*
X670972Y216126D01*
X670477Y216457D01*
X669894Y216573D01*
X657106D01*
X656523Y216457D01*
X656028Y216126D01*
X655697Y215631D01*
X655581Y215047D01*
Y208953D01*
X655697Y208369D01*
X656028Y207874D01*
X656523Y207543D01*
X657106Y207427D01*
X669894D01*
X670477Y207543D01*
X670972Y207874D01*
X671303Y208369D01*
X671419Y208953D01*
Y208974D01*
X676823D01*
X676925Y208461D01*
X677253Y207970D01*
X677745Y207641D01*
X678325Y207526D01*
X681447D01*
X682103Y206877D01*
X682668Y205622D01*
X682670Y205602D01*
X682577Y205378D01*
X682474Y204594D01*
Y198590D01*
X674027D01*
X673844Y198712D01*
X673260Y198828D01*
X668740D01*
X668156Y198712D01*
X667662Y198382D01*
X667331Y197887D01*
X667215Y197303D01*
Y193571D01*
X667331Y192987D01*
X667552Y192657D01*
X667588Y192547D01*
X667485Y192044D01*
X666910Y190589D01*
X659073D01*
Y197236D01*
X658956Y197820D01*
X658626Y198315D01*
X658131Y198645D01*
X657547Y198762D01*
X651453D01*
X650869Y198645D01*
X650374Y198315D01*
X650043Y197820D01*
X649927Y197236D01*
Y184449D01*
X650043Y183865D01*
X650374Y183370D01*
X650869Y183040D01*
X651453Y182923D01*
X657547D01*
X658131Y183040D01*
X658496Y183283D01*
X659180Y183133D01*
X660496Y182569D01*
Y181106D01*
X660599Y180323D01*
X660901Y179593D01*
X661382Y178967D01*
X667117Y173232D01*
Y172342D01*
X667232Y171762D01*
X667560Y171271D01*
X667679Y171192D01*
X667710Y171026D01*
X666703Y169427D01*
X666139Y169026D01*
X660570D01*
X660173Y169191D01*
X659390Y169294D01*
X659073D01*
Y170658D01*
X655000D01*
Y163238D01*
X657547D01*
X657564Y163242D01*
X658477D01*
X658874Y163077D01*
X659657Y162974D01*
X667751D01*
X668052Y162773D01*
X668631Y162658D01*
X670500D01*
Y166000D01*
X671000D01*
Y166500D01*
X674883D01*
Y167827D01*
X674768Y168407D01*
X674440Y168898D01*
X674321Y168977D01*
X674142Y169921D01*
Y170249D01*
X674321Y171192D01*
X674440Y171271D01*
X674768Y171762D01*
X674883Y172342D01*
Y175997D01*
X674768Y176576D01*
X674440Y177068D01*
X673948Y177396D01*
X673369Y177511D01*
X671396D01*
X667505Y181402D01*
X667418Y181678D01*
X667600Y182621D01*
X668740Y184171D01*
X673260D01*
X673844Y184288D01*
X674338Y184618D01*
X674526Y184899D01*
X679852D01*
X679940Y184767D01*
X680369Y184481D01*
X680874Y184380D01*
X682646D01*
X683151Y184481D01*
X683579Y184767D01*
X683866Y185195D01*
X684214Y185384D01*
X686173Y184218D01*
X686214Y184131D01*
Y171573D01*
X683606D01*
X683023Y171457D01*
X682528Y171126D01*
X682197Y170631D01*
X682081Y170047D01*
Y163953D01*
X682197Y163369D01*
X682528Y162874D01*
X683023Y162543D01*
X683606Y162427D01*
X696394D01*
X696977Y162543D01*
X697472Y162874D01*
X697803Y163369D01*
X697919Y163953D01*
Y167970D01*
X698878Y168875D01*
X699919Y169140D01*
X701766Y167293D01*
Y163953D01*
X701882Y163369D01*
X702213Y162874D01*
X702708Y162543D01*
X703291Y162427D01*
X716079D01*
X716663Y162543D01*
X717157Y162874D01*
X717488Y163369D01*
X717604Y163953D01*
Y170047D01*
X717488Y170631D01*
X717157Y171126D01*
X716663Y171457D01*
X716079Y171573D01*
X706045D01*
X703254Y174364D01*
X702801Y175149D01*
X702149Y175801D01*
X701351Y176261D01*
X700461Y176500D01*
X699539D01*
X698649Y176261D01*
X697851Y175801D01*
X697199Y175149D01*
X696738Y174351D01*
X696500Y173461D01*
X696447Y172511D01*
X694688Y171573D01*
X692266D01*
Y188309D01*
X692163Y189092D01*
X691861Y189822D01*
X691447Y190362D01*
Y190917D01*
X691346Y191423D01*
X691060Y191851D01*
X690631Y192137D01*
X690126Y192238D01*
X689578D01*
X688953Y192520D01*
X688121Y194178D01*
X688423Y194908D01*
X688526Y195691D01*
Y203341D01*
X692711Y207526D01*
X694675D01*
X695255Y207641D01*
X695747Y207970D01*
X696075Y208461D01*
X696177Y208974D01*
X710321D01*
Y205744D01*
X710438Y205157D01*
X710770Y204660D01*
X711268Y204327D01*
X711854Y204211D01*
X717146D01*
X717732Y204327D01*
X718230Y204660D01*
X718562Y205157D01*
X718679Y205744D01*
Y218516D01*
X718562Y219103D01*
X718230Y219600D01*
X717732Y219932D01*
X717146Y220049D01*
D02*
G37*
G36*
X747146D02*
X741854D01*
X741267Y219932D01*
X740770Y219600D01*
X740438Y219103D01*
X740321Y218516D01*
Y205744D01*
X738982Y204410D01*
X736488D01*
X736080Y204645D01*
X735190Y204884D01*
X734269D01*
X733378Y204645D01*
X732580Y204185D01*
X731929Y203533D01*
X731468Y202735D01*
X731229Y201845D01*
Y200923D01*
X731468Y200033D01*
X731929Y199235D01*
X732580Y198583D01*
X733378Y198122D01*
X734269Y197884D01*
X735190D01*
X736080Y198122D01*
X736488Y198358D01*
X738560D01*
X740321Y197256D01*
Y193896D01*
X718679D01*
Y197256D01*
X718562Y197843D01*
X718230Y198340D01*
X717732Y198673D01*
X717146Y198789D01*
X715000D01*
Y190870D01*
Y182951D01*
X717146D01*
X717732Y183068D01*
X718230Y183400D01*
X718562Y183897D01*
X718679Y184484D01*
Y187844D01*
X740321D01*
Y184484D01*
X740438Y183897D01*
X740770Y183400D01*
X741267Y183068D01*
X741854Y182951D01*
X744000D01*
Y190870D01*
X744500D01*
Y191370D01*
X748679D01*
Y197256D01*
X749815Y198702D01*
X750212Y198974D01*
X757000D01*
X757783Y199077D01*
X758513Y199380D01*
X759140Y199860D01*
X770753Y211474D01*
X779565D01*
X780161Y210878D01*
Y210048D01*
X780491Y208817D01*
X781128Y207714D01*
X782029Y206813D01*
X783132Y206176D01*
X784363Y205847D01*
X785637D01*
X786868Y206176D01*
X787971Y206813D01*
X788872Y207714D01*
X789509Y208817D01*
X789839Y210048D01*
Y211322D01*
X789509Y212553D01*
X788872Y213656D01*
X787971Y214557D01*
X786868Y215194D01*
X785637Y215524D01*
X784363D01*
X784135Y215462D01*
X782958Y216640D01*
X782331Y217121D01*
X781601Y217423D01*
X780818Y217526D01*
X769500D01*
X768717Y217423D01*
X767987Y217121D01*
X767360Y216640D01*
X755747Y205026D01*
X750575D01*
X748679Y205744D01*
Y218516D01*
X748562Y219103D01*
X748230Y219600D01*
X747732Y219932D01*
X747146Y220049D01*
D02*
G37*
G36*
X587174Y206000D02*
X582826D01*
X583135Y205254D01*
X583639Y204750D01*
X583135Y204246D01*
X582826Y203500D01*
X587174D01*
X586865Y204246D01*
X586361Y204750D01*
X586865Y205254D01*
X587174Y206000D01*
D02*
G37*
G36*
X556674Y204000D02*
X552326D01*
X552635Y203254D01*
X553139Y202750D01*
X552635Y202246D01*
X552326Y201500D01*
X556674D01*
X556365Y202246D01*
X555861Y202750D01*
X556365Y203254D01*
X556674Y204000D01*
D02*
G37*
G36*
X587174Y202500D02*
X582826D01*
X583135Y201754D01*
X583639Y201250D01*
X583135Y200746D01*
X582826Y200000D01*
X587174D01*
X586865Y200746D01*
X586361Y201250D01*
X586865Y201754D01*
X587174Y202500D01*
D02*
G37*
G36*
X556674Y200500D02*
X552326D01*
X552635Y199754D01*
X553139Y199250D01*
X552635Y198746D01*
X552326Y198000D01*
X556674D01*
X556365Y198746D01*
X555861Y199250D01*
X556365Y199754D01*
X556674Y200500D01*
D02*
G37*
G36*
X587174Y199000D02*
X582826D01*
X583135Y198254D01*
X583639Y197750D01*
X583135Y197246D01*
X582826Y196500D01*
X587174D01*
X586865Y197246D01*
X586361Y197750D01*
X586865Y198254D01*
X587174Y199000D01*
D02*
G37*
G36*
X642500Y197174D02*
Y195500D01*
X644174D01*
X643865Y196246D01*
X643246Y196865D01*
X642500Y197174D01*
D02*
G37*
G36*
X641500D02*
X640754Y196865D01*
X640135Y196246D01*
X639826Y195500D01*
X641500D01*
Y197174D01*
D02*
G37*
G36*
X556674Y197000D02*
X555000D01*
Y195326D01*
X555746Y195635D01*
X556365Y196254D01*
X556674Y197000D01*
D02*
G37*
G36*
X554000D02*
X552326D01*
X552635Y196254D01*
X553254Y195635D01*
X554000Y195326D01*
Y197000D01*
D02*
G37*
G36*
X587174Y195500D02*
X582826D01*
X583135Y194754D01*
X583639Y194250D01*
X583135Y193746D01*
X582826Y193000D01*
X587174D01*
X586865Y193746D01*
X586361Y194250D01*
X586865Y194754D01*
X587174Y195500D01*
D02*
G37*
G36*
X600459Y194691D02*
X598000D01*
Y191602D01*
X601974D01*
Y193175D01*
X601859Y193755D01*
X601530Y194247D01*
X601039Y194575D01*
X600459Y194691D01*
D02*
G37*
G36*
X597000D02*
X594541D01*
X593961Y194575D01*
X593470Y194247D01*
X593141Y193755D01*
X593026Y193175D01*
Y191602D01*
X597000D01*
Y194691D01*
D02*
G37*
G36*
X785637Y195839D02*
X785500D01*
Y191500D01*
X789839D01*
Y191637D01*
X789509Y192868D01*
X788872Y193971D01*
X787971Y194872D01*
X786868Y195509D01*
X785637Y195839D01*
D02*
G37*
G36*
X784500D02*
X784363D01*
X783132Y195509D01*
X782029Y194872D01*
X781128Y193971D01*
X780491Y192868D01*
X780161Y191637D01*
Y191500D01*
X784500D01*
Y195839D01*
D02*
G37*
G36*
X714000Y198789D02*
X711854D01*
X711268Y198673D01*
X710770Y198340D01*
X710438Y197843D01*
X710321Y197256D01*
Y191370D01*
X714000D01*
Y198789D01*
D02*
G37*
G36*
X644174Y194500D02*
X639826D01*
X640135Y193754D01*
X640222Y192750D01*
X640135Y191746D01*
X639826Y191000D01*
X644174D01*
X643865Y191746D01*
X643778Y192750D01*
X643865Y193754D01*
X644174Y194500D01*
D02*
G37*
G36*
X536291Y200142D02*
X520709D01*
Y190858D01*
X536291D01*
Y200142D01*
D02*
G37*
G36*
X587174Y192000D02*
X582826D01*
X583135Y191254D01*
X583639Y190750D01*
X583135Y190246D01*
X582826Y189500D01*
X587174D01*
X586865Y190246D01*
X586361Y190750D01*
X586865Y191254D01*
X587174Y192000D01*
D02*
G37*
G36*
X601974Y190602D02*
X598000D01*
Y187514D01*
X600459D01*
X601039Y187629D01*
X601530Y187958D01*
X601859Y188450D01*
X601974Y189030D01*
Y190602D01*
D02*
G37*
G36*
X597000D02*
X593026D01*
Y189030D01*
X593141Y188450D01*
X593470Y187958D01*
X593961Y187629D01*
X594541Y187514D01*
X597000D01*
Y190602D01*
D02*
G37*
G36*
X757500Y187174D02*
X756754Y186865D01*
X756250Y186361D01*
X755746Y186865D01*
X755000Y187174D01*
Y185000D01*
X754500D01*
Y184500D01*
X752326D01*
X752635Y183754D01*
X753139Y183250D01*
X752635Y182746D01*
X752326Y182000D01*
X754500D01*
Y181000D01*
X752326D01*
X752635Y180254D01*
X753139Y179750D01*
X752635Y179246D01*
X752326Y178500D01*
X754500D01*
Y178000D01*
X755000D01*
Y175826D01*
X755746Y176135D01*
X756250Y176639D01*
X756754Y176135D01*
X757500Y175826D01*
Y178000D01*
X758000D01*
Y178500D01*
X760174D01*
X759865Y179246D01*
X759361Y179750D01*
X759865Y180254D01*
X760174Y181000D01*
X758000D01*
Y182000D01*
X760174D01*
X759865Y182746D01*
X759361Y183250D01*
X759865Y183754D01*
X760174Y184500D01*
X758000D01*
Y185000D01*
X757500D01*
Y187174D01*
D02*
G37*
G36*
X784500Y190500D02*
X780161D01*
Y190363D01*
X780491Y189132D01*
X781128Y188029D01*
X782029Y187128D01*
X783132Y186491D01*
X784363Y186161D01*
X784500D01*
Y190500D01*
D02*
G37*
G36*
X587174Y188500D02*
X582826D01*
X583135Y187754D01*
X583639Y187250D01*
X583135Y186746D01*
X582826Y186000D01*
X587174D01*
X586865Y186746D01*
X586361Y187250D01*
X586865Y187754D01*
X587174Y188500D01*
D02*
G37*
G36*
X758500Y187174D02*
Y185500D01*
X760174D01*
X759865Y186246D01*
X759246Y186865D01*
X758500Y187174D01*
D02*
G37*
G36*
X754000D02*
X753254Y186865D01*
X752635Y186246D01*
X752326Y185500D01*
X754000D01*
Y187174D01*
D02*
G37*
G36*
X644174Y190000D02*
X639826D01*
X640135Y189254D01*
X640475Y188914D01*
X640633Y187750D01*
X640475Y186586D01*
X640135Y186246D01*
X639826Y185500D01*
X644174D01*
X643865Y186246D01*
X643526Y186586D01*
X643367Y187750D01*
X643526Y188914D01*
X643865Y189254D01*
X644174Y190000D01*
D02*
G37*
G36*
X587174Y185000D02*
X585500D01*
Y183326D01*
X586246Y183635D01*
X586865Y184254D01*
X587174Y185000D01*
D02*
G37*
G36*
X584500D02*
X582826D01*
X583135Y184254D01*
X583754Y183635D01*
X584500Y183326D01*
Y185000D01*
D02*
G37*
G36*
X748679Y190370D02*
X745000D01*
Y182951D01*
X747146D01*
X747732Y183068D01*
X748230Y183400D01*
X748562Y183897D01*
X748679Y184484D01*
Y190370D01*
D02*
G37*
G36*
X714000D02*
X710321D01*
Y184484D01*
X710438Y183897D01*
X710770Y183400D01*
X711268Y183068D01*
X711854Y182951D01*
X714000D01*
Y190370D01*
D02*
G37*
G36*
X644174Y184500D02*
X639826D01*
X640135Y183754D01*
X640222Y182750D01*
X640135Y181746D01*
X639826Y181000D01*
X644174D01*
X643865Y181746D01*
X643778Y182750D01*
X643865Y183754D01*
X644174Y184500D01*
D02*
G37*
G36*
Y180000D02*
X639826D01*
X640135Y179254D01*
X640660Y178500D01*
X640135Y177746D01*
X639826Y177000D01*
X644174D01*
X643865Y177746D01*
X643340Y178500D01*
X643865Y179254D01*
X644174Y180000D01*
D02*
G37*
G36*
X760174Y177500D02*
X758500D01*
Y175826D01*
X759246Y176135D01*
X759865Y176754D01*
X760174Y177500D01*
D02*
G37*
G36*
X754000D02*
X752326D01*
X752635Y176754D01*
X753254Y176135D01*
X754000Y175826D01*
Y177500D01*
D02*
G37*
G36*
X622459Y182486D02*
X616541D01*
X615961Y182370D01*
X615470Y182042D01*
X615141Y181550D01*
X615026Y180971D01*
Y176825D01*
X615141Y176245D01*
X615470Y175753D01*
X615961Y175425D01*
X616541Y175310D01*
X622459D01*
X623039Y175425D01*
X623530Y175753D01*
X623859Y176245D01*
X623971Y176807D01*
X626026D01*
Y176723D01*
X626141Y176143D01*
X626470Y175651D01*
X626961Y175322D01*
X627541Y175207D01*
X633459D01*
X634039Y175322D01*
X634530Y175651D01*
X634859Y176143D01*
X634974Y176723D01*
Y180868D01*
X634859Y181448D01*
X634530Y181940D01*
X634039Y182268D01*
X633459Y182383D01*
X627541D01*
X626961Y182268D01*
X626470Y181940D01*
X626141Y181448D01*
X626029Y180886D01*
X623974D01*
Y180971D01*
X623859Y181550D01*
X623530Y182042D01*
X623039Y182370D01*
X622459Y182486D01*
D02*
G37*
G36*
X644174Y176000D02*
X642500D01*
Y174326D01*
X643246Y174635D01*
X643865Y175254D01*
X644174Y176000D01*
D02*
G37*
G36*
X641500D02*
X639826D01*
X640135Y175254D01*
X640754Y174635D01*
X641500Y174326D01*
Y176000D01*
D02*
G37*
G36*
X657547Y179077D02*
X655000D01*
Y171658D01*
X659073D01*
Y177551D01*
X658956Y178135D01*
X658626Y178630D01*
X658131Y178960D01*
X657547Y179077D01*
D02*
G37*
G36*
X654000D02*
X651453D01*
X650869Y178960D01*
X650374Y178630D01*
X650043Y178135D01*
X649927Y177551D01*
Y171658D01*
X654000D01*
Y179077D01*
D02*
G37*
G36*
X550803Y170285D02*
X549437D01*
Y167000D01*
X552328D01*
Y168760D01*
X552212Y169344D01*
X551882Y169838D01*
X551387Y170169D01*
X550803Y170285D01*
D02*
G37*
G36*
X447437Y170405D02*
X437563D01*
Y166026D01*
X420759D01*
X420351Y166261D01*
X419461Y166500D01*
X418539D01*
X417649Y166261D01*
X416851Y165801D01*
X416199Y165149D01*
X415738Y164351D01*
X415500Y163461D01*
Y162539D01*
X415738Y161649D01*
X416199Y160851D01*
X416851Y160199D01*
X417649Y159739D01*
X418539Y159500D01*
X419461D01*
X420351Y159739D01*
X420759Y159974D01*
X437563D01*
Y156595D01*
X447437D01*
Y170405D01*
D02*
G37*
G36*
X654000Y170658D02*
X649927D01*
Y164764D01*
X650043Y164180D01*
X650374Y163685D01*
X650869Y163355D01*
X651453Y163238D01*
X654000D01*
Y170658D01*
D02*
G37*
G36*
X552328Y166000D02*
X549437D01*
Y162715D01*
X550803D01*
X551387Y162831D01*
X551882Y163162D01*
X552212Y163656D01*
X552328Y164240D01*
Y166000D01*
D02*
G37*
G36*
X674883Y165500D02*
X671500D01*
Y162658D01*
X673369D01*
X673948Y162773D01*
X674440Y163102D01*
X674768Y163593D01*
X674883Y164173D01*
Y165500D01*
D02*
G37*
G36*
X547174Y158500D02*
X545500D01*
Y156826D01*
X546246Y157135D01*
X546865Y157754D01*
X547174Y158500D01*
D02*
G37*
G36*
X745150Y145437D02*
X745000D01*
Y141000D01*
X749437D01*
Y141150D01*
X749101Y142406D01*
X748451Y143531D01*
X747531Y144451D01*
X746406Y145101D01*
X745150Y145437D01*
D02*
G37*
G36*
X744000D02*
X743850D01*
X742594Y145101D01*
X741469Y144451D01*
X740549Y143531D01*
X739899Y142406D01*
X739563Y141150D01*
Y141000D01*
X744000D01*
Y145437D01*
D02*
G37*
G36*
X429959Y138486D02*
X424041D01*
X423461Y138371D01*
X422970Y138042D01*
X422891Y137924D01*
X419609D01*
X419530Y138042D01*
X419039Y138371D01*
X418459Y138486D01*
X412541D01*
X411961Y138371D01*
X411470Y138042D01*
X411141Y137550D01*
X411026Y136970D01*
Y132825D01*
X411141Y132245D01*
X411470Y131753D01*
X411961Y131425D01*
X412541Y131309D01*
X418459D01*
X419039Y131425D01*
X419530Y131753D01*
X419609Y131872D01*
X422891D01*
X422970Y131753D01*
X423461Y131425D01*
X424041Y131309D01*
X424961D01*
Y126714D01*
X424894Y126614D01*
X424793Y126108D01*
Y121957D01*
X424367Y120699D01*
X422922Y120047D01*
X422374D01*
X421869Y119947D01*
X421440Y119660D01*
X421154Y119232D01*
X421053Y118726D01*
Y113510D01*
X421154Y113005D01*
X421221Y112905D01*
Y109343D01*
X421376Y108563D01*
X421818Y107901D01*
X424161Y105558D01*
X424161Y105558D01*
X424823Y105116D01*
X425603Y104961D01*
X438784D01*
X439564Y105116D01*
X440225Y105558D01*
X444193Y109526D01*
X446971D01*
X447550Y109641D01*
X448042Y109970D01*
X448371Y110461D01*
X448486Y111041D01*
Y116959D01*
X448371Y117539D01*
X448042Y118030D01*
X447550Y118359D01*
X446971Y118474D01*
X442825D01*
X442245Y118359D01*
X441753Y118030D01*
X441425Y117539D01*
X441309Y116959D01*
Y112410D01*
X437939Y109039D01*
X426448D01*
X425299Y110188D01*
Y112905D01*
X425366Y113005D01*
X425466Y113510D01*
Y117661D01*
X425475Y117686D01*
X427000Y118358D01*
X428525Y117686D01*
X428534Y117661D01*
Y116618D01*
X430740D01*
X432947D01*
Y118726D01*
X432846Y119232D01*
X432560Y119660D01*
X432131Y119947D01*
X431626Y120047D01*
X431078D01*
X429633Y120699D01*
X429207Y121957D01*
Y126108D01*
X429106Y126614D01*
X429039Y126714D01*
Y131309D01*
X429959D01*
X430539Y131425D01*
X431030Y131753D01*
X431359Y132245D01*
X431474Y132825D01*
Y136970D01*
X431359Y137550D01*
X431030Y138042D01*
X430539Y138371D01*
X429959Y138486D01*
D02*
G37*
G36*
X749437Y140000D02*
X745000D01*
Y135563D01*
X745150D01*
X746406Y135899D01*
X747531Y136549D01*
X748451Y137469D01*
X749101Y138594D01*
X749437Y139850D01*
Y140000D01*
D02*
G37*
G36*
X744000D02*
X739563D01*
Y139850D01*
X739899Y138594D01*
X740549Y137469D01*
X741469Y136549D01*
X742594Y135899D01*
X743850Y135563D01*
X744000D01*
Y140000D01*
D02*
G37*
G36*
X640505Y137835D02*
X639495D01*
X638520Y137573D01*
X637645Y137068D01*
X636932Y136354D01*
X636427Y135480D01*
X636165Y134505D01*
Y133495D01*
X636427Y132520D01*
X636932Y131646D01*
X637645Y130931D01*
X638520Y130427D01*
X639495Y130165D01*
X640505D01*
X641480Y130427D01*
X642354Y130931D01*
X643069Y131646D01*
X643573Y132520D01*
X643835Y133495D01*
Y134505D01*
X643573Y135480D01*
X643069Y136354D01*
X642354Y137068D01*
X641480Y137573D01*
X640505Y137835D01*
D02*
G37*
G36*
X613505D02*
X612495D01*
X611520Y137573D01*
X610645Y137068D01*
X609932Y136354D01*
X609427Y135480D01*
X609165Y134505D01*
Y133495D01*
X609427Y132520D01*
X609932Y131646D01*
X610645Y130931D01*
X611520Y130427D01*
X612495Y130165D01*
X613505D01*
X614480Y130427D01*
X615354Y130931D01*
X616069Y131646D01*
X616573Y132520D01*
X616835Y133495D01*
Y134505D01*
X616573Y135480D01*
X616069Y136354D01*
X615354Y137068D01*
X614480Y137573D01*
X613505Y137835D01*
D02*
G37*
G36*
X688322Y129339D02*
X688185D01*
Y125000D01*
X692524D01*
Y125137D01*
X692194Y126368D01*
X691557Y127471D01*
X690656Y128372D01*
X689553Y129009D01*
X688322Y129339D01*
D02*
G37*
G36*
X687185D02*
X687048D01*
X685817Y129009D01*
X684714Y128372D01*
X683813Y127471D01*
X683176Y126368D01*
X682846Y125137D01*
Y125000D01*
X687185D01*
Y129339D01*
D02*
G37*
G36*
X640505Y127835D02*
X639495D01*
X638520Y127573D01*
X637645Y127068D01*
X636932Y126355D01*
X636427Y125480D01*
X636165Y124505D01*
Y123495D01*
X636427Y122520D01*
X636932Y121645D01*
X637645Y120931D01*
X638520Y120427D01*
X639495Y120165D01*
X640505D01*
X641480Y120427D01*
X642354Y120931D01*
X643069Y121645D01*
X643573Y122520D01*
X643835Y123495D01*
Y124505D01*
X643573Y125480D01*
X643069Y126355D01*
X642354Y127068D01*
X641480Y127573D01*
X640505Y127835D01*
D02*
G37*
G36*
X613505D02*
X612495D01*
X611520Y127573D01*
X610645Y127068D01*
X609932Y126355D01*
X609427Y125480D01*
X609165Y124505D01*
Y123495D01*
X609427Y122520D01*
X609932Y121645D01*
X610645Y120931D01*
X611520Y120427D01*
X612495Y120165D01*
X613505D01*
X614480Y120427D01*
X615354Y120931D01*
X616069Y121645D01*
X616573Y122520D01*
X616835Y123495D01*
Y124505D01*
X616573Y125480D01*
X616069Y126355D01*
X615354Y127068D01*
X614480Y127573D01*
X613505Y127835D01*
D02*
G37*
G36*
X692524Y124000D02*
X688185D01*
Y119661D01*
X688322D01*
X689553Y119991D01*
X690656Y120628D01*
X691557Y121529D01*
X692194Y122632D01*
X692524Y123863D01*
Y124000D01*
D02*
G37*
G36*
X687185D02*
X682846D01*
Y123863D01*
X683176Y122632D01*
X683813Y121529D01*
X684714Y120628D01*
X685817Y119991D01*
X687048Y119661D01*
X687185D01*
Y124000D01*
D02*
G37*
G36*
X668637Y129339D02*
X667363D01*
X666132Y129009D01*
X665029Y128372D01*
X664128Y127471D01*
X663491Y126368D01*
X663161Y125137D01*
Y123863D01*
X663491Y122632D01*
X664128Y121529D01*
X665029Y120628D01*
X666132Y119991D01*
X667363Y119661D01*
X668637D01*
X669868Y119991D01*
X670971Y120628D01*
X671872Y121529D01*
X672509Y122632D01*
X672839Y123863D01*
Y125137D01*
X672509Y126368D01*
X671872Y127471D01*
X670971Y128372D01*
X669868Y129009D01*
X668637Y129339D01*
D02*
G37*
G36*
X793500Y130098D02*
X792930D01*
X790816Y129764D01*
X788780Y129102D01*
X786873Y128130D01*
X785141Y126872D01*
X783628Y125359D01*
X782370Y123627D01*
X781398Y121720D01*
X780736Y119684D01*
X780402Y117570D01*
Y117000D01*
X793500D01*
Y130098D01*
D02*
G37*
G36*
X562000Y117674D02*
X561271Y117372D01*
X561254Y117365D01*
X560000Y116954D01*
X558746Y117365D01*
X558729Y117372D01*
X558000Y117674D01*
Y115500D01*
Y113326D01*
X558729Y113628D01*
X558746Y113635D01*
X560000Y114046D01*
X561254Y113635D01*
X561271Y113628D01*
X562000Y113326D01*
Y115500D01*
Y117674D01*
D02*
G37*
G36*
X563000D02*
Y116000D01*
X564674D01*
X564365Y116746D01*
X563746Y117365D01*
X563000Y117674D01*
D02*
G37*
G36*
X557000D02*
X556254Y117365D01*
X555635Y116746D01*
X555326Y116000D01*
X557000D01*
Y117674D01*
D02*
G37*
G36*
X593000Y115674D02*
X592271Y115372D01*
X592254Y115365D01*
X591000Y114954D01*
X589746Y115365D01*
X589729Y115372D01*
X589000Y115674D01*
Y113500D01*
Y111326D01*
X589729Y111628D01*
X589746Y111635D01*
X591000Y112046D01*
X592254Y111635D01*
X592271Y111628D01*
X593000Y111326D01*
Y113500D01*
Y115674D01*
D02*
G37*
G36*
X594000D02*
Y114000D01*
X595674D01*
X595365Y114746D01*
X594746Y115365D01*
X594000Y115674D01*
D02*
G37*
G36*
X588000D02*
X587254Y115365D01*
X586635Y114746D01*
X586326Y114000D01*
X588000D01*
Y115674D01*
D02*
G37*
G36*
X564674Y115000D02*
X563000D01*
Y113326D01*
X563746Y113635D01*
X564365Y114254D01*
X564674Y115000D01*
D02*
G37*
G36*
X557000D02*
X555326D01*
X555635Y114254D01*
X556254Y113635D01*
X557000Y113326D01*
Y115000D01*
D02*
G37*
G36*
X432947Y115618D02*
X431240D01*
Y112189D01*
X431626D01*
X432131Y112290D01*
X432560Y112576D01*
X432846Y113005D01*
X432947Y113510D01*
Y115618D01*
D02*
G37*
G36*
X430240D02*
X428534D01*
Y113510D01*
X428634Y113005D01*
X428921Y112576D01*
X429349Y112290D01*
X429854Y112189D01*
X430240D01*
Y115618D01*
D02*
G37*
G36*
X595674Y113000D02*
X594000D01*
Y111326D01*
X594746Y111635D01*
X595365Y112254D01*
X595674Y113000D01*
D02*
G37*
G36*
X588000D02*
X586326D01*
X586635Y112254D01*
X587254Y111635D01*
X588000Y111326D01*
Y113000D01*
D02*
G37*
G36*
X640505Y117835D02*
X639495D01*
X638520Y117573D01*
X637645Y117069D01*
X636932Y116355D01*
X636427Y115480D01*
X636165Y114505D01*
Y113495D01*
X636427Y112520D01*
X636932Y111645D01*
X637645Y110932D01*
X638520Y110427D01*
X639495Y110165D01*
X640505D01*
X641480Y110427D01*
X642354Y110932D01*
X643069Y111645D01*
X643573Y112520D01*
X643835Y113495D01*
Y114505D01*
X643573Y115480D01*
X643069Y116355D01*
X642354Y117069D01*
X641480Y117573D01*
X640505Y117835D01*
D02*
G37*
G36*
X613505D02*
X612495D01*
X611520Y117573D01*
X610645Y117069D01*
X609932Y116355D01*
X609427Y115480D01*
X609165Y114505D01*
Y113495D01*
X609427Y112520D01*
X609932Y111645D01*
X610645Y110932D01*
X611520Y110427D01*
X612495Y110165D01*
X613505D01*
X614480Y110427D01*
X615354Y110932D01*
X616069Y111645D01*
X616573Y112520D01*
X616835Y113495D01*
Y114505D01*
X616573Y115480D01*
X616069Y116355D01*
X615354Y117069D01*
X614480Y117573D01*
X613505Y117835D01*
D02*
G37*
G36*
X583500Y161674D02*
X582754Y161365D01*
X582135Y160746D01*
X581826Y160000D01*
X583500D01*
Y161674D01*
D02*
G37*
G36*
X579342Y161000D02*
X576500D01*
Y157617D01*
X577827D01*
X578407Y157732D01*
X578898Y158060D01*
X579227Y158552D01*
X579342Y159131D01*
Y161000D01*
D02*
G37*
G36*
X495500Y114674D02*
Y113000D01*
X497174D01*
X496865Y113746D01*
X496246Y114365D01*
X495500Y114674D01*
D02*
G37*
G36*
X480000D02*
X479254Y114365D01*
X478635Y113746D01*
X478326Y113000D01*
X480000D01*
Y114674D01*
D02*
G37*
%LPD*%
D11*
X643815Y212000D02*
D03*
X477685Y129000D02*
D03*
X709685Y167000D02*
D03*
X458000Y129000D02*
D03*
X690000Y167000D02*
D03*
X663500Y212000D02*
D03*
D12*
X224476Y305658D02*
D03*
X295980Y305791D02*
D03*
X206524Y305658D02*
D03*
X278028Y305791D02*
D03*
D13*
X225000Y264563D02*
D03*
X502500Y157563D02*
D03*
X291500Y264000D02*
D03*
X215500Y264563D02*
D03*
X671000Y195437D02*
D03*
Y187563D02*
D03*
X502500Y165437D02*
D03*
X291500Y271874D02*
D03*
X281500Y264063D02*
D03*
Y271937D02*
D03*
X272000Y264063D02*
D03*
Y271937D02*
D03*
X225000Y272437D02*
D03*
X215500D02*
D03*
X205500Y264563D02*
D03*
Y272437D02*
D03*
D14*
X568563Y141000D02*
D03*
X576437D02*
D03*
X548937Y166500D02*
D03*
X576437Y131500D02*
D03*
X514126Y116000D02*
D03*
X600563Y150000D02*
D03*
Y159500D02*
D03*
X541063Y166500D02*
D03*
X576437Y122000D02*
D03*
X568563Y131500D02*
D03*
X522937Y136500D02*
D03*
X568563Y122000D02*
D03*
X576000Y151500D02*
D03*
X522000Y116000D02*
D03*
X522937Y126500D02*
D03*
X531126Y116000D02*
D03*
X568126Y151500D02*
D03*
X600563Y169000D02*
D03*
X539000Y116000D02*
D03*
X515063Y136500D02*
D03*
Y126500D02*
D03*
X568126Y171500D02*
D03*
X608437Y169000D02*
D03*
Y159500D02*
D03*
Y150000D02*
D03*
X576000Y171500D02*
D03*
D15*
X750000Y250398D02*
D03*
X728000D02*
D03*
X717000D02*
D03*
X739000D02*
D03*
X597500Y191102D02*
D03*
X427000Y147102D02*
D03*
X415500D02*
D03*
X750000Y262602D02*
D03*
X717000D02*
D03*
X608500Y191102D02*
D03*
Y178898D02*
D03*
X415500Y134898D02*
D03*
X427000D02*
D03*
X739000Y262602D02*
D03*
X728000D02*
D03*
X630500Y178795D02*
D03*
Y191000D02*
D03*
X619500Y191102D02*
D03*
Y178898D02*
D03*
X597500D02*
D03*
D16*
X744500Y190870D02*
D03*
X714500D02*
D03*
X744500Y212130D02*
D03*
X714500D02*
D03*
D17*
X671000Y166000D02*
D03*
X513000Y175169D02*
D03*
X523000Y165585D02*
D03*
Y157415D02*
D03*
X671000Y174169D02*
D03*
X513000Y167000D02*
D03*
D18*
X654500Y171158D02*
D03*
X192000Y258815D02*
D03*
X654500Y190842D02*
D03*
X258500Y260500D02*
D03*
Y280185D02*
D03*
X192000Y278500D02*
D03*
D19*
X576000Y161500D02*
D03*
X514915Y146500D02*
D03*
X567831Y161500D02*
D03*
X523085Y146500D02*
D03*
D20*
X535000Y147500D02*
D03*
X554488Y142500D02*
D03*
Y137500D02*
D03*
X535000Y142500D02*
D03*
X554488Y157500D02*
D03*
Y152500D02*
D03*
Y147500D02*
D03*
Y132500D02*
D03*
Y127500D02*
D03*
X535000D02*
D03*
Y132500D02*
D03*
Y152500D02*
D03*
Y157500D02*
D03*
Y137500D02*
D03*
D21*
X430740Y116118D02*
D03*
X685500Y195691D02*
D03*
X423260Y116118D02*
D03*
X427000Y123500D02*
D03*
X689240Y188309D02*
D03*
X681760D02*
D03*
D22*
X554000Y106000D02*
D03*
X528500Y195500D02*
D03*
X565000Y189500D02*
D03*
D23*
X692602Y212000D02*
D03*
X680398D02*
D03*
X444898Y114000D02*
D03*
X457102D02*
D03*
D24*
X206142Y129331D02*
D03*
Y160669D02*
D03*
X223858Y129331D02*
D03*
Y160669D02*
D03*
D25*
X221504Y337055D02*
D03*
X209496D02*
D03*
X221504Y323866D02*
D03*
X209496D02*
D03*
X293008Y337189D02*
D03*
X281000D02*
D03*
X293008Y324000D02*
D03*
X281000D02*
D03*
D26*
X247000Y196500D02*
D03*
X249252Y337500D02*
D03*
X265000D02*
D03*
X442500Y163500D02*
D03*
X297000Y197000D02*
D03*
X262748Y196500D02*
D03*
X310748Y376000D02*
D03*
X295000D02*
D03*
X181500Y364500D02*
D03*
X458248Y163500D02*
D03*
X281252Y197000D02*
D03*
X197248Y364500D02*
D03*
D27*
X215500Y330461D02*
D03*
X287004Y330594D02*
D03*
D28*
X608055Y376398D02*
D03*
Y356713D02*
D03*
Y337028D02*
D03*
Y277972D02*
D03*
Y258287D02*
D03*
X489945Y238602D02*
D03*
Y258287D02*
D03*
Y277972D02*
D03*
Y297657D02*
D03*
Y317342D02*
D03*
Y335059D02*
D03*
Y356713D02*
D03*
Y376398D02*
D03*
X608055Y238602D02*
D03*
Y317342D02*
D03*
Y297657D02*
D03*
X458000Y372500D02*
D03*
X238000Y260000D02*
D03*
X457500Y267500D02*
D03*
X758000Y308000D02*
D03*
Y331815D02*
D03*
X713500Y332315D02*
D03*
X713000Y307500D02*
D03*
X744500Y140500D02*
D03*
X570000Y220500D02*
D03*
X312000Y279500D02*
D03*
X540472Y220500D02*
D03*
X128000Y144000D02*
D03*
X189000Y339000D02*
D03*
Y299500D02*
D03*
X314000Y336500D02*
D03*
X259000Y305000D02*
D03*
D29*
X669024Y297071D02*
D03*
X639000Y297047D02*
D03*
Y252953D02*
D03*
X669024Y252976D02*
D03*
D30*
X633953Y360500D02*
D03*
X634453Y330500D02*
D03*
X678047Y360500D02*
D03*
X678547Y330500D02*
D03*
D31*
X457500Y346055D02*
D03*
Y287000D02*
D03*
X459000Y185000D02*
D03*
X150000Y228000D02*
D03*
X435000Y185000D02*
D03*
X410500Y184500D02*
D03*
X150000Y336268D02*
D03*
X410500Y243555D02*
D03*
X435000Y244055D02*
D03*
X459000D02*
D03*
D32*
X345209Y371358D02*
D03*
Y351673D02*
D03*
X433791Y292618D02*
D03*
D33*
X231500Y197000D02*
D03*
D34*
X230000Y218500D02*
D03*
X290854D02*
D03*
X199000Y236000D02*
D03*
X260000D02*
D03*
X290709D02*
D03*
X260146Y218500D02*
D03*
X229709Y236000D02*
D03*
X199291Y218500D02*
D03*
D35*
X801181Y374681D02*
D03*
X794500Y377449D02*
D03*
X803949Y368000D02*
D03*
X801181Y361319D02*
D03*
X787819Y374681D02*
D03*
X785051Y368000D02*
D03*
X787819Y361319D02*
D03*
X794500Y358551D02*
D03*
X803449Y116500D02*
D03*
X800681Y123181D02*
D03*
Y109819D02*
D03*
X794000Y107051D02*
D03*
Y125949D02*
D03*
X787319Y123181D02*
D03*
Y109819D02*
D03*
X784551Y116500D02*
D03*
X124949Y368500D02*
D03*
X122181Y361819D02*
D03*
Y375181D02*
D03*
X115500Y377949D02*
D03*
X108819Y375181D02*
D03*
X115500Y359051D02*
D03*
X106051Y368500D02*
D03*
X108819Y361819D02*
D03*
X125130Y115681D02*
D03*
X122363Y122363D02*
D03*
Y109000D02*
D03*
X115681Y125130D02*
D03*
X109000Y122363D02*
D03*
X115681Y106233D02*
D03*
X106233Y115681D02*
D03*
X109000Y109000D02*
D03*
D36*
X794500Y368000D02*
D03*
X794000Y116500D02*
D03*
X115500Y368500D02*
D03*
X115681Y115681D02*
D03*
D37*
X785000Y191000D02*
D03*
X687685Y124500D02*
D03*
X785000Y210685D02*
D03*
X668000Y124500D02*
D03*
D38*
X613000Y124000D02*
D03*
Y134000D02*
D03*
X640000D02*
D03*
Y124000D02*
D03*
Y114000D02*
D03*
X613000D02*
D03*
D39*
X373500Y222000D02*
D03*
X341000D02*
D03*
X373500Y114500D02*
D03*
X341000D02*
D03*
X313500Y157000D02*
D03*
Y179500D02*
D03*
X328500D02*
D03*
X386000Y157000D02*
D03*
Y179500D02*
D03*
X328500Y157000D02*
D03*
D40*
X114000Y238500D02*
D03*
Y218500D02*
D03*
X114500Y315000D02*
D03*
Y295000D02*
D03*
X799500Y328500D02*
D03*
Y308500D02*
D03*
Y270500D02*
D03*
Y250500D02*
D03*
D41*
X713500Y352000D02*
D03*
X758000Y351500D02*
D03*
Y288315D02*
D03*
X713000Y287815D02*
D03*
D42*
X201500Y197000D02*
D03*
D43*
X201000Y178000D02*
D03*
D44*
X231000D02*
D03*
D45*
X574000Y146500D02*
D03*
X263500Y360000D02*
D03*
X312500Y319000D02*
D03*
X309500D02*
D03*
X319000Y316000D02*
D03*
Y319000D02*
D03*
Y322000D02*
D03*
X316000D02*
D03*
X313000D02*
D03*
X316000Y319000D02*
D03*
Y316000D02*
D03*
X313000D02*
D03*
X310000D02*
D03*
X307000D02*
D03*
X257500Y360000D02*
D03*
X260500D02*
D03*
X266500D02*
D03*
X257500Y357000D02*
D03*
X260500D02*
D03*
X263500D02*
D03*
X266500D02*
D03*
X257500Y354000D02*
D03*
X260500D02*
D03*
X263500D02*
D03*
X266500D02*
D03*
X642000Y176500D02*
D03*
Y180500D02*
D03*
Y190500D02*
D03*
Y195000D02*
D03*
X695000Y319000D02*
D03*
X703500D02*
D03*
X735500Y307000D02*
D03*
Y331500D02*
D03*
X745000Y320000D02*
D03*
X739500D02*
D03*
X734500D02*
D03*
X729500D02*
D03*
X724500D02*
D03*
X754500Y185000D02*
D03*
Y181500D02*
D03*
X758000D02*
D03*
Y178000D02*
D03*
X754500D02*
D03*
X758000Y185000D02*
D03*
X642000D02*
D03*
X585000Y210000D02*
D03*
Y206500D02*
D03*
Y203000D02*
D03*
Y199500D02*
D03*
Y192500D02*
D03*
Y189000D02*
D03*
Y185500D02*
D03*
Y196000D02*
D03*
X593500Y149500D02*
D03*
X591000Y153000D02*
D03*
X587500Y156500D02*
D03*
X584000Y159500D02*
D03*
X569500Y146500D02*
D03*
X576500Y136000D02*
D03*
X563500Y143500D02*
D03*
X554500Y204500D02*
D03*
Y197500D02*
D03*
Y201000D02*
D03*
X545000Y159000D02*
D03*
X593500Y113500D02*
D03*
X588500D02*
D03*
X562500Y115500D02*
D03*
X557500D02*
D03*
X495000Y105000D02*
D03*
X480500D02*
D03*
X495000Y112500D02*
D03*
X488000D02*
D03*
X480500D02*
D03*
X517500Y109000D02*
D03*
X528500Y195500D02*
D03*
X583000Y171000D02*
D03*
X587000Y139000D02*
D03*
X563000Y155000D02*
D03*
X563200Y139000D02*
D03*
X540800Y142500D02*
D03*
X540525Y135098D02*
D03*
X557000Y163000D02*
D03*
X528500Y141500D02*
D03*
D46*
X275278Y355748D02*
D03*
X737000Y150000D02*
D03*
X780500Y229000D02*
D03*
X734729Y201384D02*
D03*
X700000Y173000D02*
D03*
X419000Y163000D02*
D03*
X330000Y330500D02*
D03*
X273500Y188000D02*
D03*
X144500Y248000D02*
D03*
D47*
X566407Y146500D02*
X569500D01*
X563500Y143593D02*
X566407Y146500D01*
X563500Y143500D02*
Y143593D01*
X562407Y142500D02*
X563453Y143546D01*
X565409Y149744D02*
X566764D01*
X563164Y147500D02*
X565409Y149744D01*
X554488Y147500D02*
X563164D01*
X574000Y146392D02*
Y146500D01*
X575075Y142362D02*
X576469Y140969D01*
X569544Y146500D02*
X574000D01*
X575075Y142362D02*
Y145317D01*
X569522Y146522D02*
X569544Y146500D01*
X574000Y146392D02*
X575075Y145317D01*
X576469Y136031D02*
Y140969D01*
X554488Y142500D02*
X562407D01*
X247000Y196500D02*
Y198468D01*
X231500Y197000D02*
X232000Y196500D01*
X233543Y218500D02*
X236000Y216043D01*
X629000Y283500D02*
X633000Y279500D01*
X629000Y283500D02*
Y313500D01*
X617000Y325500D02*
X629000Y313500D01*
X609799Y158000D02*
X764500D01*
X805500Y199000D02*
Y218000D01*
X764500Y158000D02*
X805500Y199000D01*
X608437Y159362D02*
X609799Y158000D01*
X608437Y159362D02*
Y159500D01*
X779000Y244500D02*
Y262043D01*
Y244500D02*
X805500Y218000D01*
X593000Y228500D02*
Y316500D01*
Y228500D02*
X628055Y193445D01*
X593000Y316500D02*
X602000Y325500D01*
X617000D01*
X704685Y279500D02*
X713000Y287815D01*
X633000Y279500D02*
X704685D01*
X628055Y192559D02*
Y193445D01*
Y192559D02*
X629614Y191000D01*
X630500D01*
X608437Y150000D02*
X737000D01*
X576469Y131532D02*
Y135968D01*
Y136031D02*
X576500Y136000D01*
X576469Y135968D02*
X576500Y136000D01*
X576437Y131500D02*
X576469Y131532D01*
X468000Y114500D02*
X473500Y109000D01*
X517500D01*
X468000Y114500D02*
Y151779D01*
X477685Y147185D02*
X494923Y164423D01*
X477685Y129000D02*
Y147185D01*
X531445Y157681D02*
X537839D01*
X494923Y169423D02*
X500669Y175169D01*
X494923Y164423D02*
Y169423D01*
X500669Y175169D02*
X513000D01*
X630449Y178847D02*
X630500Y178795D01*
X619551Y178847D02*
X630449D01*
X619500Y178898D02*
X619551Y178847D01*
X762102Y250398D02*
X780111Y232389D01*
Y229389D02*
X780500Y229000D01*
X780111Y229389D02*
Y232389D01*
X750000Y250398D02*
X762102D01*
X458248Y161531D02*
X468000Y151779D01*
X458248Y161531D02*
Y163500D01*
X706339Y167000D02*
X709685D01*
X700000Y173000D02*
X700339D01*
X608500Y191102D02*
X619500D01*
X608437Y169000D02*
X608468Y169032D01*
Y178866D01*
X608500Y178898D01*
X597500D02*
X608500D01*
X599201Y167244D02*
X600563Y168606D01*
X598529Y167244D02*
X599201D01*
X598029Y166744D02*
X598529Y167244D01*
X600563Y168606D02*
Y169000D01*
X572533Y166744D02*
X598029D01*
X567831Y162041D02*
X572533Y166744D01*
X567831Y161500D02*
Y162041D01*
X600563Y150000D02*
Y159500D01*
X582392Y171500D02*
X582892Y171000D01*
X583000D01*
X576000Y171500D02*
X582392D01*
X565000Y180939D02*
Y189500D01*
Y180939D02*
X568126Y177813D01*
Y171500D02*
Y177813D01*
X587077Y139076D02*
X590033D01*
X587000Y139000D02*
X587077Y139076D01*
X590033D02*
X600563Y149606D01*
X562923Y154923D02*
X563000Y155000D01*
X561327Y152500D02*
X562923Y154097D01*
Y154923D01*
X554488Y152500D02*
X561327D01*
X568126Y151106D02*
Y151500D01*
X566764Y149744D02*
X568126Y151106D01*
X567978Y152500D02*
Y161352D01*
X567831Y161500D02*
X567978Y161352D01*
X557000Y163000D02*
X564278Y170278D01*
X568341D01*
X568563Y170500D01*
X563092Y139000D02*
X563200D01*
X563385Y139076D02*
X563552Y139244D01*
X554488Y137500D02*
X554669Y137681D01*
X568563Y140955D02*
Y141000D01*
X567201Y139244D02*
Y139593D01*
X563069Y139131D02*
X563124Y139076D01*
X554669Y137681D02*
X561773D01*
X563092Y139000D01*
X563124Y139076D02*
X563385D01*
X567201Y139593D02*
X568563Y140955D01*
X563552Y139244D02*
X567201D01*
X534819Y147681D02*
X535000Y147500D01*
X529615Y147681D02*
X534819D01*
X516981Y152500D02*
X524796D01*
X515511Y151030D02*
X516981Y152500D01*
X524796D02*
X529615Y147681D01*
X515511Y147095D02*
Y151030D01*
X514915Y146500D02*
X515511Y147095D01*
X510500Y146500D02*
X514915D01*
X509000Y145000D02*
X510500Y146500D01*
X509000Y121520D02*
X514126Y116394D01*
X509000Y121520D02*
Y145000D01*
X514126Y116000D02*
Y116394D01*
X600563Y149606D02*
Y150000D01*
X581328Y116000D02*
X582500Y117172D01*
X576437Y150106D02*
X582500Y144043D01*
Y117172D02*
Y144043D01*
X569735Y116000D02*
X581328D01*
X575075Y123362D02*
X576437Y122000D01*
X575075Y123362D02*
Y124594D01*
X568563Y131106D02*
X575075Y124594D01*
X568563Y131106D02*
Y131500D01*
X567744Y132319D02*
X568563Y131500D01*
X554669Y132319D02*
X567744D01*
X554488Y132500D02*
X554669Y132319D01*
X568563Y117172D02*
X569735Y116000D01*
X568563Y117172D02*
Y122000D01*
X576437Y150106D02*
Y150500D01*
X562646Y122000D02*
X568563D01*
X557146Y127500D02*
X562646Y122000D01*
X554488Y127500D02*
X557146D01*
X539424Y150751D02*
X544000Y146175D01*
Y121394D02*
Y146175D01*
X539000Y116394D02*
X544000Y121394D01*
X535000Y142500D02*
X540800D01*
X535181Y132681D02*
X538000D01*
X535000Y132500D02*
X535181Y132681D01*
X540417Y135098D02*
X540525D01*
X538000Y132681D02*
X540417Y135098D01*
X557000Y157681D02*
Y163000D01*
X556819Y157500D02*
X557000Y157681D01*
X554488Y157500D02*
X556819D01*
X540902Y166339D02*
X541063Y166500D01*
X540902Y160744D02*
Y166339D01*
X523000Y165585D02*
X523541D01*
X522459D02*
X523000D01*
X537839Y157681D02*
X540902Y160744D01*
X523541Y165585D02*
X531445Y157681D01*
X513541Y175169D02*
X521146Y167565D01*
Y166898D02*
Y167565D01*
X513000Y175169D02*
X513541D01*
X521146Y166898D02*
X522459Y165585D01*
X523941Y135496D02*
X527004D01*
X529955Y132545D01*
X522937Y136500D02*
X523941Y135496D01*
X529955Y132545D02*
X534955D01*
X535000Y132500D01*
X540732Y106000D02*
X554000D01*
X531126Y115606D02*
X540732Y106000D01*
X531126Y115606D02*
Y116000D01*
X522000D02*
X531126D01*
X522000D02*
X522469Y116469D01*
Y126031D01*
X522937Y126500D01*
X523756Y127319D01*
X534819D01*
X535000Y127500D01*
X528500Y139500D02*
Y141500D01*
Y139500D02*
X530319Y137681D01*
X534819D01*
X528424Y141577D02*
X528500Y141500D01*
X534819Y137681D02*
X535000Y137500D01*
X523085Y146208D02*
X524398Y144895D01*
X523085Y146208D02*
Y146500D01*
X524398Y144895D02*
X526605D01*
X528424Y141577D02*
Y143077D01*
X526605Y144895D02*
X528424Y143077D01*
X539407Y150751D02*
X539424D01*
X537657Y152500D02*
X539407Y150751D01*
X534819Y152681D02*
X535000Y152500D01*
X537657D01*
X539000Y116000D02*
Y116394D01*
X522926Y157489D02*
X524270Y156145D01*
X502574Y157489D02*
X522926D01*
X524270Y156145D02*
X526855D01*
X502500Y157563D02*
X502574Y157489D01*
X530319Y152681D02*
X534819D01*
X526855Y156145D02*
X530319Y152681D01*
X515063Y126500D02*
Y136500D01*
X512459Y167000D02*
X513000D01*
X510896Y165437D02*
X512459Y167000D01*
X502500Y165437D02*
X510896D01*
X442000Y163000D02*
X442500Y163500D01*
X444898Y113114D02*
Y114000D01*
X438784Y107000D02*
X444898Y113114D01*
X425603Y107000D02*
X438784D01*
X423260Y109343D02*
X425603Y107000D01*
X423260Y109343D02*
Y116118D01*
X427000Y123500D02*
Y134898D01*
X115681Y115681D02*
X122363Y122363D01*
X114000Y117363D02*
X115681Y115681D01*
X150000Y359500D02*
X154000Y363500D01*
D48*
X256500Y356000D02*
X275000D01*
X249252Y348752D02*
X256500Y356000D01*
X249252Y337500D02*
Y348752D01*
X345209Y297291D02*
Y351673D01*
X330000Y289000D02*
Y330500D01*
X345209Y297291D02*
X398945Y243555D01*
X330000Y289000D02*
X357000Y262000D01*
X398945Y243555D02*
X410500D01*
X348850Y375000D02*
X455500D01*
X345209Y371358D02*
X348850Y375000D01*
X455500D02*
X458000Y372500D01*
X330000Y330500D02*
Y357906D01*
X312311Y375594D02*
X330000Y357906D01*
X435000Y244055D02*
X459000D01*
X434750Y243805D02*
X435000Y244055D01*
X410750Y243805D02*
X434750D01*
X410500Y243555D02*
X410750Y243805D01*
X410500Y184500D02*
X434500D01*
X386155Y160155D02*
X410750Y184750D01*
X386000Y157000D02*
X386155Y157155D01*
Y160155D01*
X357000Y193000D02*
Y262000D01*
Y193000D02*
X370500Y179500D01*
X386000D01*
X167500Y377000D02*
X289725D01*
X290320Y376406D02*
X294595D01*
X289725Y377000D02*
X290320Y376406D01*
X294595D02*
X295000Y376000D01*
X154000Y363500D02*
X167500Y377000D01*
D49*
X315750Y319750D02*
X316000Y320000D01*
X314500Y318500D02*
X317000D01*
D50*
X301791Y305791D02*
X314500Y318500D01*
X295980Y305791D02*
X301791D01*
X655604Y312853D02*
Y341211D01*
Y312853D02*
X669024Y299433D01*
Y297071D02*
Y299433D01*
X636315Y360500D02*
X655604Y341211D01*
X633953Y360500D02*
X636315D01*
X631591D02*
X633953D01*
X615693Y376398D02*
X631591Y360500D01*
X608055Y376398D02*
X615693D01*
X608055Y356713D02*
X631495Y333273D01*
Y331096D02*
Y333273D01*
Y331096D02*
X632091Y330500D01*
X634453D01*
X639000Y297047D02*
Y325953D01*
Y252953D02*
X639012Y252965D01*
X669012D01*
X669024Y252976D01*
X618892Y275423D02*
X639000Y255315D01*
X678297Y330750D02*
Y360250D01*
X678047Y360500D02*
X678297Y360250D01*
Y330750D02*
X678547Y330500D01*
X758000Y331815D02*
X758315D01*
X608055Y297657D02*
X618892Y286821D01*
Y275470D02*
Y286821D01*
X608055Y297657D02*
Y317342D01*
X155000Y364500D02*
X181500D01*
X154000Y340268D02*
Y363500D01*
X150000Y336268D02*
X154000Y340268D01*
X197344Y349207D02*
Y364404D01*
Y349207D02*
X209496Y337055D01*
X189000Y339000D02*
X190521D01*
D51*
X114000Y117363D02*
Y218500D01*
X295980Y295520D02*
Y305791D01*
X641182Y212000D02*
X643815D01*
X608055Y258287D02*
X640825Y225517D01*
Y212357D02*
X641182Y212000D01*
X640825Y212357D02*
Y225517D01*
X238000Y249500D02*
Y260000D01*
X232000Y196500D02*
X247000D01*
X224476Y284024D02*
X231413Y277087D01*
Y269780D02*
Y277087D01*
X226558Y264925D02*
X231413Y269780D01*
X227799Y264201D02*
X231974Y260027D01*
X225000Y264563D02*
X225362Y264201D01*
X231974Y260027D02*
X237973D01*
X225362Y264201D02*
X227799D01*
X237973Y260027D02*
X238000Y260000D01*
X225000Y264563D02*
X225362Y264925D01*
X226558D01*
X224476Y284024D02*
Y305658D01*
X233543Y218500D02*
X236858Y221815D01*
Y223358D01*
X242000Y228500D01*
X238000Y249500D02*
X242000Y245500D01*
Y228500D02*
Y245500D01*
X230000Y218500D02*
X233543D01*
X236000Y209469D02*
Y216043D01*
Y209469D02*
X247000Y198468D01*
X787819Y361319D02*
X794500Y368000D01*
X758315Y331815D02*
X787819Y361319D01*
X714500Y190870D02*
X744500D01*
X663500Y212000D02*
X680398D01*
X714370D02*
X714500Y212130D01*
X692602Y212000D02*
X714370D01*
X692602Y211114D02*
Y212000D01*
X692043Y210555D02*
X692602Y211114D01*
X691461Y210555D02*
X692043D01*
X685500Y204594D02*
X691461Y210555D01*
X685500Y195691D02*
Y204594D01*
X685373Y195564D02*
X685500Y195691D01*
X671127Y195564D02*
X685373D01*
X671000Y195437D02*
X671127Y195564D01*
X689240Y167760D02*
X690000Y167000D01*
X689240Y167760D02*
Y188309D01*
X663522Y181106D02*
Y187563D01*
Y181106D02*
X670459Y174169D01*
X671000D01*
X663522Y187563D02*
X671000D01*
X654500Y189106D02*
Y190842D01*
Y189106D02*
X656043Y187563D01*
X663522D01*
X659657Y166000D02*
X671000D01*
X659390Y166268D02*
X659657Y166000D01*
X656043Y166268D02*
X659390D01*
X654500Y167811D02*
X656043Y166268D01*
X654500Y167811D02*
Y171158D01*
X681376Y187925D02*
X681760Y188309D01*
X671362Y187925D02*
X681376D01*
X671000Y187563D02*
X671362Y187925D01*
X784633Y210685D02*
X785000D01*
X757000Y202000D02*
X769500Y214500D01*
X780818D01*
X741623Y202000D02*
X757000D01*
X780818Y214500D02*
X784633Y210685D01*
X741007Y201384D02*
X741623Y202000D01*
X743350Y203727D02*
Y210980D01*
X734729Y201384D02*
X741007D01*
X743350Y210980D02*
X744500Y212130D01*
X700339Y173000D02*
X706339Y167000D01*
X291656Y264156D02*
X296656D01*
X457102Y114000D02*
Y128102D01*
X458000Y129000D01*
X419000Y163000D02*
X442000D01*
X415500Y134898D02*
X427000D01*
X415500Y147102D02*
X427000D01*
X373602D02*
X415500D01*
X341000Y114500D02*
X373602Y147102D01*
X304000Y228102D02*
Y251500D01*
X290854Y218500D02*
X294398D01*
X303000D01*
X294398D02*
X304000Y228102D01*
X293256Y262244D02*
X304000Y251500D01*
X296656Y264156D02*
X312000Y279500D01*
X291500Y264000D02*
X291656Y264156D01*
X291894Y264000D02*
X293256Y262638D01*
Y262244D02*
Y262638D01*
X328500Y157000D02*
X338000Y166500D01*
X295980Y295520D02*
X312000Y279500D01*
X303000Y218500D02*
X338000Y183500D01*
Y166500D02*
Y183500D01*
X128000Y128000D02*
Y144000D01*
X122363Y122363D02*
X128000Y128000D01*
X311000Y197000D02*
X328500Y179500D01*
X297000Y197000D02*
X311000D01*
X218000D02*
X229500Y185500D01*
X206858Y231655D02*
X218000Y220513D01*
Y197000D02*
Y220513D01*
X199000Y236000D02*
X202543D01*
X302500Y168000D02*
X313500Y157000D01*
X192000Y258815D02*
X193815Y257000D01*
X213000D01*
X243500Y185500D02*
X261000Y168000D01*
X302500D01*
X206858Y231655D02*
Y231685D01*
X215500Y259500D02*
Y264563D01*
X213000Y257000D02*
X215500Y259500D01*
X229500Y185500D02*
X243500D01*
X192000Y240315D02*
Y258815D01*
Y240315D02*
X196315Y236000D01*
X199000D01*
X202543D02*
X206858Y231685D01*
X307251Y177500D02*
X307757Y178005D01*
X267500Y177500D02*
X307251D01*
X307757Y178005D02*
X312005D01*
X313500Y179500D01*
X262748Y182252D02*
X267500Y177500D01*
X262748Y182252D02*
Y196500D01*
X281252Y195031D02*
Y198969D01*
X273691Y188191D02*
X278594Y193095D01*
X279315D02*
X281252Y195031D01*
X278594Y193095D02*
X279315D01*
X258500Y237500D02*
Y260500D01*
X274500Y205720D02*
X281252Y198969D01*
X274500Y205720D02*
Y225043D01*
X263543Y236000D02*
X274500Y225043D01*
X260000Y236000D02*
X263543D01*
X260043Y258500D02*
X275543D01*
X280744Y263701D01*
X281138D01*
X258500Y260043D02*
Y260500D01*
X281138Y263701D02*
X281500Y264063D01*
X258500Y260043D02*
X260043Y258500D01*
X258500Y237500D02*
X260000Y236000D01*
X269575Y264425D02*
X271638D01*
X258500Y280185D02*
X260043Y278642D01*
Y273957D02*
Y278642D01*
Y273957D02*
X269575Y264425D01*
X271638D02*
X272000Y264063D01*
Y271937D02*
X272394D01*
X278028Y277571D01*
Y305791D01*
X259000Y305000D02*
X277665D01*
X291469Y271905D02*
X291500Y271874D01*
X281532Y271905D02*
X291469D01*
X281500Y271937D02*
X281532Y271905D01*
X272000Y271937D02*
X281500D01*
X278028Y305362D02*
Y305791D01*
X277665Y305000D02*
X278028Y305362D01*
X224909Y161721D02*
X231000Y167811D01*
X223858Y161161D02*
X224417Y161721D01*
X231000Y167811D02*
Y178000D01*
X224417Y161721D02*
X224909D01*
X223858Y129331D02*
Y161161D01*
X201000Y166303D02*
Y178000D01*
Y166303D02*
X206142Y161161D01*
Y129331D02*
Y161161D01*
X290910Y334500D02*
X310952D01*
X312952Y336500D01*
X287004Y330594D02*
X290910Y334500D01*
X312952Y336500D02*
X314000D01*
X205138Y264925D02*
X205500Y264563D01*
X202342Y264925D02*
X205138D01*
X193657Y273610D02*
X202342Y264925D01*
X192000Y275153D02*
X193543Y273610D01*
X193657D01*
X192000Y275153D02*
Y278500D01*
X189000Y340048D02*
X190937Y341985D01*
Y342800D02*
X197344Y349207D01*
X189000Y339000D02*
Y340048D01*
X190937Y341985D02*
Y342800D01*
X158500Y248000D02*
X184000Y222500D01*
Y214500D02*
Y222500D01*
Y214500D02*
X201500Y197000D01*
X144500Y248000D02*
X158500D01*
X205500Y272437D02*
X206012Y272949D01*
Y305146D01*
X206524Y305658D01*
X215500Y272437D02*
X225000D01*
X205500D02*
X215500D01*
X206524Y303689D02*
Y305658D01*
X202335Y299500D02*
X206524Y303689D01*
X189000Y299500D02*
X202335D01*
D52*
X791043Y262043D02*
X799500Y270500D01*
X779000Y262043D02*
X791043D01*
X249252Y319047D02*
Y335531D01*
X235862Y305658D02*
X249252Y319047D01*
X224476Y305658D02*
X235862D01*
X669024Y252976D02*
X671602Y250398D01*
X717000D01*
X618892Y275423D02*
Y275470D01*
X750559Y262043D02*
X779000D01*
X750000Y262602D02*
X750559Y262043D01*
X739000Y262602D02*
X750000D01*
X728000D02*
X739000D01*
X717000D02*
X728000D01*
X717000Y250398D02*
X728000D01*
X739000D01*
X750000D01*
X265000Y337500D02*
X280098D01*
M02*
