M48
;Layer_Color=9474304
;FILE_FORMAT=4:4
METRIC,TZ
;TYPE=PLATED
T01F00S00C0.2794
T02F00S00C0.5000
T03F00S00C0.7000
T04F00S00C0.7112
T05F00S00C0.8000
T06F00S00C1.0000
T08F00S00C1.1000
T09F00S00C1.1989
T10F00S00C1.2000
T11F00S00C1.3000
T12F00S00C3.2000
%
T01
X1220470Y266700
Y285750
X1239520
X1257300
Y266700
X1314450Y276860
X1342390Y359410
X1373632Y361950
X1372934Y343149
X1430528Y353060
X1431290Y364490
X1446530Y372110
X1457960
X1464310Y345440
X1490980Y353060
X1507490Y379730
X1501140Y388620
X1430020Y393700
X1428750Y293370
X1416050
X1494790Y288290
X1507490
X1630680Y448310
Y458470
Y469900
Y483870
Y495300
X1916430Y469900
Y461010
X1925320
Y452120
X1916430
X1925320Y469900
X1868170Y779780
X1485900Y533400
Y524510
Y515620
Y506730
Y497840
Y488950
Y480060
Y471170
X1480820Y434340
X1483360Y405130
X1492250Y397510
X1414780Y414020
X1384300Y403860
X1408430Y501650
Y510540
Y519430
X1342390Y496570
X787400Y802640
X779780
X786130Y810260
X676910Y899160
Y906780
Y914400
X669290
X661670
X654050
Y906780
X661670
X669290
Y899160
X661670
X654050
X795020Y817880
X802640
X810260
Y810260
Y802640
X802640
Y810260
X793750
X795020Y802640
X1765300Y810260
X1786890
X1840230Y812800
X1852930
X1865630
X1878330
X1892300
X1868170Y842010
T02
X276860Y276860
X293831Y269831
X310801Y276860
X317831Y293831
X310801Y310801
X293831Y317831
X276860Y310801
X269831Y293831
X1992760Y295910
X1999789Y312881
X2016760Y319910
X2033731Y312881
X2040760Y295910
X2033731Y278939
X2016760Y271910
X1999789Y278939
X310341Y919019
X317370Y935990
X310341Y952961
X293370Y959990
X276399Y952961
X269370Y935990
X276399Y919019
X293370Y911990
X2001059Y917749
X1994030Y934720
X2001059Y951691
X2018030Y958720
X2035001Y951691
X2042030Y934720
X2035001Y917749
X2018030Y910720
T03
X1101830Y743250
X876830Y893250
Y943250
T04
X1871980Y381000
X1866212Y511515
X1778000Y439420
X1982470Y581660
X1064260Y414020
X694690Y477520
X367030Y629920
X699206Y903600
X838200Y839470
T05
X1557020Y289560
Y314960
Y340360
X1625600
Y314960
Y289560
X1544460Y606050
Y656050
Y706050
Y756050
X1244460
Y706050
Y656050
Y606050
X586740Y452120
X510540
X1244460Y806050
Y851050
Y906050
Y956050
X1544460
Y906050
Y856050
Y806050
T06
X325120Y365760
X1891030Y356870
X1925320Y732320
Y782320
X1811020Y781050
Y731050
X1447800Y560070
X1372800
X1162050Y679450
X792480Y709930
X657860Y774700
X604520Y660400
X480060Y760730
Y861060
X797560Y854710
X1163320Y946150
X1812290Y894080
Y844080
X1925320Y842810
Y892810
T08
X511810Y500380
X588010
T09
X506200Y554990
X505460Y599440
X583460
X584200Y554990
X660770
X660400Y599440
X738400
X738770Y554990
T10
X866140Y290830
X948690
X1623060Y642500
X1699320Y642560
Y754560
X1623060Y754500
X1162050Y728980
X1165860Y619900
X1104900
X1042670Y618630
X948690Y563880
X866140
X834390Y455930
X796290
Y398780
X834390
X980440
Y455930
X1042670Y468630
X1104900Y469900
X1165860
X381000Y579120
Y854120
X1162050Y878980
X1610240Y915670
X1611510Y839470
X1723510
X1722240Y915670
T11
X1696720Y316230
X1746720
X1993900Y485140
Y535140
T12
X293831Y293831
X2016760Y295910
X293370Y935990
X2018030Y934720
M30
