G04*
G04 #@! TF.GenerationSoftware,Altium Limited,Altium Designer,26.6.0 (10)*
G04*
G04 Layer_Physical_Order=2*
G04 Layer_Color=16711680*
G04 Board_Origin=0|0*
%FSLAX25Y25*%
%MOIN*%
G70*
G04*
G04 #@! TF.SameCoordinates,8E7C0F2F-DEA9-465B-9AF9-77FAD4C454B9*
G04*
G04*
G04 #@! TF.FilePolarity,Positive*
G04*
G01*
G75*
G04:AMPARAMS|DCode=14|XSize=47.24mil|YSize=55.12mil|CornerRadius=4.96mil|HoleSize=0mil|Usage=FLASHONLY|Rotation=180.000|XOffset=0mil|YOffset=0mil|HoleType=Round|Shape=RoundedRectangle|*
%AMROUNDEDRECTD14*
21,1,0.04724,0.04520,0,0,180.0*
21,1,0.03732,0.05512,0,0,180.0*
1,1,0.00992,-0.01866,0.02260*
1,1,0.00992,0.01866,0.02260*
1,1,0.00992,0.01866,-0.02260*
1,1,0.00992,-0.01866,-0.02260*
%
%ADD14ROUNDEDRECTD14*%
G04:AMPARAMS|DCode=15|XSize=51.18mil|YSize=68.9mil|CornerRadius=4.86mil|HoleSize=0mil|Usage=FLASHONLY|Rotation=90.000|XOffset=0mil|YOffset=0mil|HoleType=Round|Shape=RoundedRectangle|*
%AMROUNDEDRECTD15*
21,1,0.05118,0.05917,0,0,90.0*
21,1,0.04146,0.06890,0,0,90.0*
1,1,0.00972,0.02959,0.02073*
1,1,0.00972,0.02959,-0.02073*
1,1,0.00972,-0.02959,-0.02073*
1,1,0.00972,-0.02959,0.02073*
%
%ADD15ROUNDEDRECTD15*%
G04:AMPARAMS|DCode=17|XSize=46.26mil|YSize=57.09mil|CornerRadius=4.86mil|HoleSize=0mil|Usage=FLASHONLY|Rotation=90.000|XOffset=0mil|YOffset=0mil|HoleType=Round|Shape=RoundedRectangle|*
%AMROUNDEDRECTD17*
21,1,0.04626,0.04737,0,0,90.0*
21,1,0.03655,0.05709,0,0,90.0*
1,1,0.00972,0.02369,0.01827*
1,1,0.00972,0.02369,-0.01827*
1,1,0.00972,-0.02369,-0.01827*
1,1,0.00972,-0.02369,0.01827*
%
%ADD17ROUNDEDRECTD17*%
G04:AMPARAMS|DCode=19|XSize=46.26mil|YSize=57.09mil|CornerRadius=4.86mil|HoleSize=0mil|Usage=FLASHONLY|Rotation=0.000|XOffset=0mil|YOffset=0mil|HoleType=Round|Shape=RoundedRectangle|*
%AMROUNDEDRECTD19*
21,1,0.04626,0.04737,0,0,0.0*
21,1,0.03655,0.05709,0,0,0.0*
1,1,0.00972,0.01827,-0.02369*
1,1,0.00972,-0.01827,-0.02369*
1,1,0.00972,-0.01827,0.02369*
1,1,0.00972,0.01827,0.02369*
%
%ADD19ROUNDEDRECTD19*%
G04:AMPARAMS|DCode=23|XSize=51.18mil|YSize=68.9mil|CornerRadius=4.86mil|HoleSize=0mil|Usage=FLASHONLY|Rotation=0.000|XOffset=0mil|YOffset=0mil|HoleType=Round|Shape=RoundedRectangle|*
%AMROUNDEDRECTD23*
21,1,0.05118,0.05917,0,0,0.0*
21,1,0.04146,0.06890,0,0,0.0*
1,1,0.00972,0.02073,-0.02959*
1,1,0.00972,-0.02073,-0.02959*
1,1,0.00972,-0.02073,0.02959*
1,1,0.00972,0.02073,0.02959*
%
%ADD23ROUNDEDRECTD23*%
%ADD26R,0.07874X0.11811*%
%ADD28C,0.07874*%
G04:AMPARAMS|DCode=29|XSize=177.17mil|YSize=129.92mil|CornerRadius=5.2mil|HoleSize=0mil|Usage=FLASHONLY|Rotation=270.000|XOffset=0mil|YOffset=0mil|HoleType=Round|Shape=RoundedRectangle|*
%AMROUNDEDRECTD29*
21,1,0.17717,0.11953,0,0,270.0*
21,1,0.16677,0.12992,0,0,270.0*
1,1,0.01039,-0.05976,-0.08339*
1,1,0.01039,-0.05976,0.08339*
1,1,0.01039,0.05976,0.08339*
1,1,0.01039,0.05976,-0.08339*
%
%ADD29ROUNDEDRECTD29*%
G04:AMPARAMS|DCode=30|XSize=177.17mil|YSize=129.92mil|CornerRadius=5.2mil|HoleSize=0mil|Usage=FLASHONLY|Rotation=0.000|XOffset=0mil|YOffset=0mil|HoleType=Round|Shape=RoundedRectangle|*
%AMROUNDEDRECTD30*
21,1,0.17717,0.11953,0,0,0.0*
21,1,0.16677,0.12992,0,0,0.0*
1,1,0.01039,0.08339,-0.05976*
1,1,0.01039,-0.08339,-0.05976*
1,1,0.01039,-0.08339,0.05976*
1,1,0.01039,0.08339,0.05976*
%
%ADD30ROUNDEDRECTD30*%
%ADD31C,0.09449*%
%ADD32C,0.06299*%
%ADD33R,0.08661X0.08661*%
G04:AMPARAMS|DCode=34|XSize=177.17mil|YSize=106.3mil|CornerRadius=4.78mil|HoleSize=0mil|Usage=FLASHONLY|Rotation=180.000|XOffset=0mil|YOffset=0mil|HoleType=Round|Shape=RoundedRectangle|*
%AMROUNDEDRECTD34*
21,1,0.17717,0.09673,0,0,180.0*
21,1,0.16760,0.10630,0,0,180.0*
1,1,0.00957,-0.08380,0.04837*
1,1,0.00957,0.08380,0.04837*
1,1,0.00957,0.08380,-0.04837*
1,1,0.00957,-0.08380,-0.04837*
%
%ADD34ROUNDEDRECTD34*%
%ADD35C,0.03150*%
%ADD36C,0.25197*%
%ADD37C,0.07677*%
%ADD38C,0.05669*%
%ADD39C,0.11811*%
G04:AMPARAMS|DCode=40|XSize=106.3mil|YSize=98.43mil|CornerRadius=49.21mil|HoleSize=0mil|Usage=FLASHONLY|Rotation=90.000|XOffset=0mil|YOffset=0mil|HoleType=Round|Shape=RoundedRectangle|*
%AMROUNDEDRECTD40*
21,1,0.10630,0.00000,0,0,90.0*
21,1,0.00787,0.09843,0,0,90.0*
1,1,0.09843,0.00000,0.00394*
1,1,0.09843,0.00000,-0.00394*
1,1,0.09843,0.00000,-0.00394*
1,1,0.09843,0.00000,0.00394*
%
%ADD40ROUNDEDRECTD40*%
%ADD41R,0.07874X0.07874*%
G04:AMPARAMS|DCode=42|XSize=86.61mil|YSize=86.61mil|CornerRadius=43.31mil|HoleSize=0mil|Usage=FLASHONLY|Rotation=180.000|XOffset=0mil|YOffset=0mil|HoleType=Round|Shape=RoundedRectangle|*
%AMROUNDEDRECTD42*
21,1,0.08661,0.00000,0,0,180.0*
21,1,0.00000,0.08661,0,0,180.0*
1,1,0.08661,0.00000,0.00000*
1,1,0.08661,0.00000,0.00000*
1,1,0.08661,0.00000,0.00000*
1,1,0.08661,0.00000,0.00000*
%
%ADD42ROUNDEDRECTD42*%
%ADD43R,0.06299X0.06299*%
G04:AMPARAMS|DCode=44|XSize=62.99mil|YSize=62.99mil|CornerRadius=31.5mil|HoleSize=0mil|Usage=FLASHONLY|Rotation=0.000|XOffset=0mil|YOffset=0mil|HoleType=Round|Shape=RoundedRectangle|*
%AMROUNDEDRECTD44*
21,1,0.06299,0.00000,0,0,0.0*
21,1,0.00000,0.06299,0,0,0.0*
1,1,0.06299,0.00000,0.00000*
1,1,0.06299,0.00000,0.00000*
1,1,0.06299,0.00000,0.00000*
1,1,0.06299,0.00000,0.00000*
%
%ADD44ROUNDEDRECTD44*%
%ADD45C,0.02400*%
%ADD46C,0.05000*%
%ADD47C,0.02000*%
%ADD48C,0.11000*%
%ADD50C,0.11800*%
%ADD51C,0.04000*%
%ADD52C,0.07800*%
G04:AMPARAMS|DCode=53|XSize=76.77mil|YSize=23.62mil|CornerRadius=2.95mil|HoleSize=0mil|Usage=FLASHONLY|Rotation=270.000|XOffset=0mil|YOffset=0mil|HoleType=Round|Shape=RoundedRectangle|*
%AMROUNDEDRECTD53*
21,1,0.07677,0.01772,0,0,270.0*
21,1,0.07087,0.02362,0,0,270.0*
1,1,0.00591,-0.00886,-0.03543*
1,1,0.00591,-0.00886,0.03543*
1,1,0.00591,0.00886,0.03543*
1,1,0.00591,0.00886,-0.03543*
%
%ADD53ROUNDEDRECTD53*%
G04:AMPARAMS|DCode=54|XSize=120.08mil|YSize=108.27mil|CornerRadius=4.87mil|HoleSize=0mil|Usage=FLASHONLY|Rotation=180.000|XOffset=0mil|YOffset=0mil|HoleType=Round|Shape=RoundedRectangle|*
%AMROUNDEDRECTD54*
21,1,0.12008,0.09852,0,0,180.0*
21,1,0.11033,0.10827,0,0,180.0*
1,1,0.00974,-0.05517,0.04926*
1,1,0.00974,0.05517,0.04926*
1,1,0.00974,0.05517,-0.04926*
1,1,0.00974,-0.05517,-0.04926*
%
%ADD54ROUNDEDRECTD54*%
G04:AMPARAMS|DCode=55|XSize=86.61mil|YSize=47.24mil|CornerRadius=4.96mil|HoleSize=0mil|Usage=FLASHONLY|Rotation=180.000|XOffset=0mil|YOffset=0mil|HoleType=Round|Shape=RoundedRectangle|*
%AMROUNDEDRECTD55*
21,1,0.08661,0.03732,0,0,180.0*
21,1,0.07669,0.04724,0,0,180.0*
1,1,0.00992,-0.03835,0.01866*
1,1,0.00992,0.03835,0.01866*
1,1,0.00992,0.03835,-0.01866*
1,1,0.00992,-0.03835,-0.01866*
%
%ADD55ROUNDEDRECTD55*%
G04:AMPARAMS|DCode=56|XSize=251.97mil|YSize=228.35mil|CornerRadius=4.57mil|HoleSize=0mil|Usage=FLASHONLY|Rotation=180.000|XOffset=0mil|YOffset=0mil|HoleType=Round|Shape=RoundedRectangle|*
%AMROUNDEDRECTD56*
21,1,0.25197,0.21921,0,0,180.0*
21,1,0.24284,0.22835,0,0,180.0*
1,1,0.00913,-0.12142,0.10961*
1,1,0.00913,0.12142,0.10961*
1,1,0.00913,0.12142,-0.10961*
1,1,0.00913,-0.12142,-0.10961*
%
%ADD56ROUNDEDRECTD56*%
G04:AMPARAMS|DCode=57|XSize=52.17mil|YSize=70.87mil|CornerRadius=4.96mil|HoleSize=0mil|Usage=FLASHONLY|Rotation=0.000|XOffset=0mil|YOffset=0mil|HoleType=Round|Shape=RoundedRectangle|*
%AMROUNDEDRECTD57*
21,1,0.05217,0.06096,0,0,0.0*
21,1,0.04225,0.07087,0,0,0.0*
1,1,0.00991,0.02113,-0.03048*
1,1,0.00991,-0.02113,-0.03048*
1,1,0.00991,-0.02113,0.03048*
1,1,0.00991,0.02113,0.03048*
%
%ADD57ROUNDEDRECTD57*%
G36*
X708063Y380906D02*
Y378861D01*
X707235Y377852D01*
X706594Y376653D01*
X706200Y375353D01*
X706131Y374652D01*
X704121D01*
X704052Y375353D01*
X703658Y376653D01*
X703017Y377852D01*
X702189Y378861D01*
Y380471D01*
X702189Y380906D01*
X703239Y382471D01*
X707013D01*
X708063Y380906D01*
D02*
G37*
G36*
X808471Y374940D02*
X806471Y374460D01*
X806130Y375127D01*
X804872Y376859D01*
X803359Y378372D01*
X801627Y379630D01*
X800931Y382230D01*
X801083Y382471D01*
X808471D01*
Y374940D01*
D02*
G37*
G36*
X691488Y380563D02*
X691442Y379765D01*
X690392Y378903D01*
X679519Y368029D01*
X678643D01*
X678607Y368026D01*
X669709D01*
X669116Y367908D01*
X668613Y367572D01*
X668277Y367069D01*
X668159Y366476D01*
Y354524D01*
X668277Y353931D01*
X668613Y353428D01*
X669116Y353092D01*
X669709Y352974D01*
X686386D01*
X686979Y353092D01*
X687481Y353428D01*
X687817Y353931D01*
X687935Y354524D01*
Y356836D01*
X698194Y367094D01*
X702189D01*
Y369139D01*
X703017Y370148D01*
X703658Y371347D01*
X704052Y372647D01*
X704121Y373348D01*
X706131D01*
X706200Y372647D01*
X706567Y371438D01*
Y352000D01*
X706700Y350647D01*
X707094Y349347D01*
X707735Y348148D01*
X708563Y347139D01*
Y347063D01*
X708632D01*
X709097Y346597D01*
X709097Y346597D01*
X710148Y345735D01*
X711347Y345094D01*
X712647Y344700D01*
X714000Y344567D01*
X714000Y344567D01*
X773628D01*
X792567Y325628D01*
Y308500D01*
Y306872D01*
X780943Y295248D01*
X758000D01*
X756647Y295115D01*
X755438Y294748D01*
X713000D01*
X712869Y294736D01*
X711961Y296656D01*
X715872Y300567D01*
X757500D01*
X758853Y300700D01*
X760153Y301094D01*
X761352Y301735D01*
X762403Y302597D01*
X762903Y303097D01*
X763765Y304148D01*
X764406Y305347D01*
X764800Y306647D01*
X764933Y308000D01*
X764800Y309353D01*
X764406Y310653D01*
X763765Y311852D01*
X762903Y312903D01*
X761852Y313765D01*
X760653Y314406D01*
X759353Y314800D01*
X758000Y314933D01*
X756647Y314800D01*
X755438Y314433D01*
X719933D01*
Y325382D01*
X755438D01*
X756647Y325015D01*
X758000Y324882D01*
X759353Y325015D01*
X760653Y325409D01*
X761852Y326050D01*
X762903Y326912D01*
X763765Y327963D01*
X764406Y329162D01*
X764800Y330462D01*
X764933Y331815D01*
X764800Y333168D01*
X764406Y334468D01*
X763765Y335667D01*
X762903Y336718D01*
X762403Y337218D01*
X761352Y338080D01*
X760153Y338721D01*
X758853Y339115D01*
X757500Y339248D01*
X713500D01*
X713500Y339248D01*
X712147Y339115D01*
X710847Y338721D01*
X709648Y338080D01*
X708597Y337218D01*
X708597Y337217D01*
X708097Y336718D01*
X707235Y335667D01*
X706594Y334468D01*
X706200Y333168D01*
X706067Y331815D01*
Y322318D01*
X705797Y322022D01*
X704067Y321147D01*
X704000Y321174D01*
Y319000D01*
Y316826D01*
X704067Y316853D01*
X705797Y315979D01*
X706067Y315682D01*
Y310372D01*
X681597Y285903D01*
X680735Y284852D01*
X680094Y283653D01*
X679700Y282353D01*
X679567Y281000D01*
Y275687D01*
X673690Y269810D01*
X666744Y262864D01*
X663047D01*
X662454Y262747D01*
X661952Y262411D01*
X661616Y261908D01*
X661498Y261315D01*
Y253476D01*
X669024D01*
X676967D01*
X680002Y256511D01*
X681360Y257860D01*
X681987Y257380D01*
X682717Y257077D01*
X683500Y256974D01*
X703500D01*
Y244000D01*
X678462D01*
X676549Y244638D01*
Y252476D01*
X669024D01*
X661498D01*
Y244638D01*
X659586Y244000D01*
X648443D01*
X646526Y244614D01*
Y252453D01*
X639000D01*
X631474D01*
Y244614D01*
X629557Y244000D01*
X617000D01*
X609500Y251500D01*
X609263Y253500D01*
X609961Y253687D01*
X611087Y254337D01*
X612006Y255256D01*
X612656Y256382D01*
X612992Y257637D01*
Y258937D01*
X612656Y260193D01*
X612006Y261319D01*
X611087Y262238D01*
X609961Y262888D01*
X608705Y263224D01*
X607405D01*
X606149Y262888D01*
X605024Y262238D01*
X604105Y261319D01*
X603455Y260193D01*
X603118Y258937D01*
X601157Y259031D01*
X601413Y275960D01*
X603417Y276209D01*
X603455Y276067D01*
X604105Y274941D01*
X605024Y274022D01*
X606149Y273372D01*
X607405Y273035D01*
X608705D01*
X609961Y273372D01*
X611087Y274022D01*
X612006Y274941D01*
X612656Y276067D01*
X612992Y277323D01*
Y278622D01*
X612656Y279878D01*
X612006Y281004D01*
X611087Y281923D01*
X609961Y282573D01*
X608705Y282909D01*
X607405D01*
X606149Y282573D01*
X605024Y281923D01*
X604105Y281004D01*
X603455Y279878D01*
X601477Y280225D01*
X601561Y285782D01*
X608258Y292478D01*
X608436Y292711D01*
X608446Y292721D01*
X608705D01*
X609961Y293057D01*
X611087Y293707D01*
X612006Y294626D01*
X612656Y295752D01*
X612992Y297007D01*
Y297158D01*
X608055D01*
Y297657D01*
X607555D01*
Y302594D01*
X607405D01*
X606149Y302258D01*
X605024Y301608D01*
X604105Y300689D01*
X603778Y300122D01*
X601786Y300672D01*
X601987Y313980D01*
X603995Y314502D01*
X604105Y314311D01*
X605024Y313392D01*
X606149Y312742D01*
X607405Y312405D01*
X607555D01*
Y317342D01*
Y322280D01*
X607405D01*
X606149Y321943D01*
X605024Y321293D01*
X604105Y320374D01*
X604083Y320336D01*
X602091Y320886D01*
X602276Y333163D01*
X603490Y333716D01*
X604286Y333815D01*
X605024Y333077D01*
X606149Y332427D01*
X607405Y332090D01*
X608705D01*
X609961Y332427D01*
X611087Y333077D01*
X612006Y333996D01*
X612656Y335122D01*
X612992Y336378D01*
Y337678D01*
X612656Y338933D01*
X612006Y340059D01*
X611087Y340978D01*
X609961Y341628D01*
X608705Y341965D01*
X607405D01*
X606149Y341628D01*
X605024Y340978D01*
X604385Y340339D01*
X603238Y340575D01*
X602395Y341077D01*
X602568Y352531D01*
X602637Y352582D01*
X604579Y353207D01*
X605024Y352762D01*
X606149Y352112D01*
X607405Y351776D01*
X608705D01*
X609961Y352112D01*
X611087Y352762D01*
X612006Y353681D01*
X612656Y354807D01*
X612992Y356063D01*
Y357363D01*
X612656Y358618D01*
X612006Y359744D01*
X611087Y360663D01*
X609961Y361313D01*
X608705Y361650D01*
X607405D01*
X606149Y361313D01*
X605024Y360663D01*
X604686Y360326D01*
X602699Y361167D01*
X602859Y371783D01*
X604872Y372599D01*
X605024Y372447D01*
X606149Y371797D01*
X607405Y371461D01*
X608705D01*
X609961Y371797D01*
X611087Y372447D01*
X612006Y373366D01*
X612656Y374492D01*
X612992Y375748D01*
Y377048D01*
X612656Y378303D01*
X612006Y379429D01*
X611087Y380348D01*
X610875Y380471D01*
X611411Y382471D01*
X689739D01*
X691488Y380563D01*
D02*
G37*
G36*
X788069Y382230D02*
X787373Y379630D01*
X785641Y378372D01*
X784128Y376859D01*
X782870Y375127D01*
X781898Y373220D01*
X781236Y371184D01*
X780902Y369070D01*
Y368500D01*
X794500D01*
Y368000D01*
X795000D01*
Y354402D01*
X795570D01*
X797684Y354736D01*
X799720Y355398D01*
X801627Y356370D01*
X803359Y357628D01*
X804872Y359141D01*
X806130Y360873D01*
X806471Y361541D01*
X808471Y361060D01*
Y282500D01*
X790634D01*
X789805Y284500D01*
X804403Y299097D01*
X804403Y299097D01*
X805265Y300148D01*
X805906Y301347D01*
X806300Y302647D01*
X806433Y304000D01*
X806433Y304000D01*
Y308500D01*
Y328500D01*
X806300Y329853D01*
X805906Y331153D01*
X805265Y332352D01*
X804403Y333403D01*
X781403Y356403D01*
X780352Y357265D01*
X779153Y357906D01*
X777853Y358300D01*
X776500Y358433D01*
X720433D01*
Y373994D01*
X720300Y375347D01*
X719906Y376648D01*
X719265Y377847D01*
X718403Y378897D01*
X718397Y378903D01*
X717937Y379280D01*
Y380906D01*
X718987Y382471D01*
X787917D01*
X788069Y382230D01*
D02*
G37*
G36*
X706079Y287946D02*
X706067Y287815D01*
X706200Y286462D01*
X706594Y285162D01*
X707235Y283963D01*
X708063Y282954D01*
Y282878D01*
X708139D01*
X709148Y282050D01*
X710347Y281409D01*
X711647Y281015D01*
X713000Y280882D01*
X719268D01*
X720034Y279034D01*
X704026Y263026D01*
X689129D01*
X688364Y264874D01*
X691403Y267912D01*
X691403Y267912D01*
X692265Y268963D01*
X692906Y270162D01*
X693300Y271462D01*
X693433Y272815D01*
X693433Y272815D01*
Y278128D01*
X704159Y288854D01*
X706079Y287946D01*
D02*
G37*
G36*
X608555Y233665D02*
X608705D01*
X609961Y234002D01*
X611087Y234652D01*
X612006Y235571D01*
X612656Y236697D01*
X612967Y237858D01*
X701980Y237370D01*
X702740Y235520D01*
X699069Y231848D01*
X698588Y231222D01*
X698286Y230492D01*
X698183Y229709D01*
Y203872D01*
X697374D01*
X696790Y203756D01*
X696295Y203425D01*
X695965Y202930D01*
X695849Y202346D01*
Y198614D01*
X695965Y198030D01*
X696295Y197536D01*
X696790Y197205D01*
X697374Y197089D01*
X701285D01*
X702354Y195089D01*
X702225Y194896D01*
X701709D01*
Y191504D01*
Y188112D01*
X705043D01*
X705627Y188228D01*
X706122Y188559D01*
X706453Y189054D01*
X706456Y189070D01*
X706879Y189246D01*
X707506Y189726D01*
X728827Y211047D01*
X728889Y211129D01*
X729407Y211232D01*
X729898Y211560D01*
X729923Y211598D01*
X731923Y211110D01*
Y203524D01*
X731468Y202735D01*
X731346Y202280D01*
X714620Y185553D01*
X706001D01*
X705627Y185803D01*
X705043Y185919D01*
X697374D01*
X696790Y185803D01*
X696295Y185472D01*
X695965Y184977D01*
X695849Y184394D01*
Y180661D01*
X695965Y180078D01*
X696295Y179583D01*
X696790Y179252D01*
X696974Y179216D01*
Y174759D01*
X696738Y174351D01*
X696500Y173461D01*
Y172539D01*
X696738Y171649D01*
X697199Y170851D01*
X697851Y170199D01*
X697961Y170136D01*
Y129345D01*
X694416Y125800D01*
X692194Y126368D01*
X691557Y127471D01*
X690656Y128372D01*
X689553Y129009D01*
X688322Y129339D01*
X688185D01*
Y124500D01*
X687685D01*
Y124000D01*
X682846D01*
Y123863D01*
X683176Y122632D01*
X683813Y121529D01*
X684714Y120628D01*
X685817Y119991D01*
X686385Y117769D01*
X679655Y111039D01*
X645028D01*
X644463Y111614D01*
X643713Y113039D01*
X643835Y113495D01*
Y114505D01*
X643573Y115480D01*
X643069Y116355D01*
X642354Y117069D01*
X642039Y117251D01*
Y120749D01*
X642354Y120931D01*
X643069Y121645D01*
X643395Y122211D01*
X663735D01*
X664128Y121529D01*
X665029Y120628D01*
X666132Y119991D01*
X667363Y119661D01*
X668637D01*
X669868Y119991D01*
X670971Y120628D01*
X671872Y121529D01*
X672509Y122632D01*
X672839Y123863D01*
Y125137D01*
X672509Y126368D01*
X671872Y127471D01*
X670971Y128372D01*
X669868Y129009D01*
X668953Y129254D01*
Y129630D01*
X668953Y129630D01*
X668798Y130410D01*
X668356Y131071D01*
X668356Y131071D01*
X662328Y137099D01*
Y140260D01*
X662212Y140844D01*
X661882Y141338D01*
X661387Y141669D01*
X660976Y141751D01*
Y144063D01*
X660976Y144063D01*
X660821Y144843D01*
X660379Y145505D01*
X658442Y147442D01*
X657780Y147884D01*
X657000Y148039D01*
X620345D01*
X586942Y181442D01*
X586650Y181637D01*
X586432Y182714D01*
X586408Y183082D01*
X586492Y183881D01*
X586865Y184254D01*
X587174Y185000D01*
X582826D01*
X583135Y184254D01*
X583350Y184039D01*
X582811Y182157D01*
X582736Y182039D01*
X556282D01*
X553329Y184992D01*
Y187760D01*
X553212Y188344D01*
X552882Y188838D01*
X552387Y189169D01*
X551803Y189285D01*
X548071D01*
X547487Y189169D01*
X547157Y188948D01*
X546826Y188838D01*
X545931D01*
X544754Y189840D01*
X544671Y190530D01*
X544813Y191784D01*
X544912Y192075D01*
X545174Y192162D01*
X546826D01*
X547157Y192052D01*
X547487Y191831D01*
X548071Y191715D01*
X549437D01*
Y195500D01*
Y199285D01*
X548071D01*
X547487Y199169D01*
X547157Y198948D01*
X546826Y198838D01*
X545174D01*
X544843Y198948D01*
X544513Y199169D01*
X543929Y199285D01*
X540197D01*
X539613Y199169D01*
X539118Y198838D01*
X538788Y198344D01*
X538671Y197760D01*
Y197539D01*
X529326D01*
X528938Y197700D01*
X528062D01*
X527254Y197365D01*
X526635Y196746D01*
X526300Y195938D01*
Y195062D01*
X526461Y194674D01*
Y145352D01*
X526284Y145057D01*
X524866Y143785D01*
X521134D01*
X520550Y143669D01*
X520220Y143448D01*
X519889Y143338D01*
X518237D01*
X517906Y143448D01*
X517576Y143669D01*
X516992Y143785D01*
X513260D01*
X512676Y143669D01*
X512181Y143338D01*
X511851Y142844D01*
X511734Y142260D01*
Y140283D01*
X510244D01*
X509464Y140128D01*
X508802Y139686D01*
X503058Y133942D01*
X502616Y133280D01*
X502461Y132500D01*
Y114500D01*
X502616Y113720D01*
X503058Y113058D01*
X512058Y104058D01*
X512720Y103616D01*
X513155Y103529D01*
X512958Y101529D01*
X497254D01*
X497154Y101688D01*
X496641Y103529D01*
X496865Y103754D01*
X497174Y104500D01*
X492826D01*
X493135Y103754D01*
X493359Y103529D01*
X492846Y101688D01*
X492746Y101529D01*
X482754D01*
X482654Y101688D01*
X482141Y103529D01*
X482365Y103754D01*
X482674Y104500D01*
X478326D01*
X478635Y103754D01*
X478859Y103529D01*
X478346Y101688D01*
X478246Y101529D01*
X396500D01*
Y150000D01*
X411110Y164610D01*
X414669Y161052D01*
X415296Y160571D01*
X416025Y160268D01*
X416809Y160165D01*
X416910D01*
X417649Y159739D01*
X418539Y159500D01*
X419461D01*
X420351Y159739D01*
X421149Y160199D01*
X421801Y160851D01*
X422261Y161649D01*
X422500Y162539D01*
Y163461D01*
X422261Y164351D01*
X421801Y165149D01*
X421149Y165801D01*
X420351Y166261D01*
X419461Y166500D01*
X418539D01*
X417940Y166339D01*
X415390Y168890D01*
X421000Y174500D01*
X490000D01*
X523500Y208000D01*
X552276D01*
X552446Y207715D01*
X552889Y206000D01*
X552635Y205746D01*
X552326Y205000D01*
X556674D01*
X556365Y205746D01*
X556111Y206000D01*
X556554Y207715D01*
X556724Y208000D01*
X578500D01*
X580524Y210024D01*
X582460Y209479D01*
X583105Y207822D01*
X583127Y207726D01*
X582826Y207000D01*
X587174D01*
X586865Y207746D01*
X586361Y208250D01*
X586865Y208754D01*
X587174Y209500D01*
X585000D01*
Y210500D01*
X587174D01*
X586865Y211246D01*
X586246Y211865D01*
X585438Y212200D01*
X584700Y214200D01*
X587000Y216500D01*
Y236582D01*
X588418Y237992D01*
X603129Y237912D01*
X603455Y236697D01*
X604105Y235571D01*
X605024Y234652D01*
X606149Y234002D01*
X607405Y233665D01*
X607555D01*
Y238602D01*
X608555D01*
Y233665D01*
D02*
G37*
G36*
X725607Y225679D02*
X725686Y225560D01*
X726178Y225232D01*
X726757Y225117D01*
X729584D01*
X734067Y220634D01*
X734014Y220504D01*
X733047Y218825D01*
X732762Y218768D01*
X732271Y218440D01*
X732192Y218321D01*
X731249Y218142D01*
X730921D01*
X729978Y218321D01*
X729898Y218440D01*
X729407Y218768D01*
X728827Y218883D01*
X727500D01*
Y215000D01*
X726500D01*
Y218883D01*
X726396D01*
X723441Y221838D01*
Y224450D01*
X725441Y225710D01*
X725607Y225679D01*
D02*
G37*
G36*
X808471Y236786D02*
Y123083D01*
X808230Y122931D01*
X805630Y123627D01*
X804372Y125359D01*
X802859Y126872D01*
X801127Y128130D01*
X799220Y129102D01*
X797184Y129764D01*
X795070Y130098D01*
X794500D01*
Y116500D01*
X794000D01*
Y116000D01*
X780402D01*
Y115430D01*
X780736Y113316D01*
X781398Y111280D01*
X782370Y109373D01*
X783628Y107641D01*
X785141Y106128D01*
X786873Y104870D01*
X788780Y103898D01*
X789914Y103529D01*
X789597Y101529D01*
X683542D01*
X683345Y103529D01*
X683780Y103616D01*
X684442Y104058D01*
X731643Y151260D01*
X733078Y150642D01*
X733500Y150288D01*
Y149539D01*
X733739Y148649D01*
X734199Y147851D01*
X734851Y147199D01*
X735649Y146739D01*
X736539Y146500D01*
X737461D01*
X738351Y146739D01*
X739149Y147199D01*
X739801Y147851D01*
X740262Y148649D01*
X740500Y149539D01*
Y150461D01*
X740467Y150583D01*
X747442Y157558D01*
X747884Y158220D01*
X748039Y159000D01*
Y216123D01*
X748039Y216123D01*
X747884Y216903D01*
X747442Y217565D01*
X747442Y217565D01*
X741238Y223769D01*
X742004Y225617D01*
X742743D01*
X743322Y225732D01*
X743814Y226060D01*
X743893Y226179D01*
X744836Y226358D01*
X745164D01*
X746107Y226179D01*
X746186Y226060D01*
X746678Y225732D01*
X747257Y225617D01*
X748585D01*
Y229500D01*
X749585D01*
Y225617D01*
X750912D01*
X751492Y225732D01*
X751854Y225974D01*
X778741D01*
X779149Y225739D01*
X779604Y225617D01*
X788878Y216342D01*
X787650Y214742D01*
X786868Y215194D01*
X785637Y215524D01*
X784363D01*
X783132Y215194D01*
X782029Y214557D01*
X781128Y213656D01*
X780491Y212553D01*
X780161Y211322D01*
Y210126D01*
X776544Y206508D01*
X773885D01*
X773869Y206511D01*
X769131D01*
X768552Y206396D01*
X768060Y206068D01*
X767732Y205576D01*
X767617Y204997D01*
Y201342D01*
X767732Y200762D01*
X768060Y200271D01*
X768179Y200192D01*
X768358Y199249D01*
Y198921D01*
X768179Y197977D01*
X768060Y197898D01*
X767732Y197407D01*
X767617Y196827D01*
Y195500D01*
X771500D01*
Y195000D01*
X772000D01*
Y191658D01*
X773869D01*
X774448Y191773D01*
X774749Y191974D01*
X778210D01*
X780286Y189899D01*
X780491Y189132D01*
X781128Y188029D01*
X782029Y187128D01*
X783132Y186491D01*
X784363Y186161D01*
X784500D01*
Y191000D01*
Y195839D01*
X784363D01*
X783213Y195530D01*
X781603Y197140D01*
X780977Y197620D01*
X780247Y197923D01*
X779464Y198026D01*
X776652D01*
X776000Y199178D01*
X776862Y200456D01*
X777797D01*
X778580Y200559D01*
X779310Y200862D01*
X779937Y201343D01*
X784441Y205847D01*
X785637D01*
X786868Y206176D01*
X787971Y206813D01*
X788872Y207714D01*
X789509Y208817D01*
X789839Y210048D01*
Y211322D01*
X789509Y212553D01*
X789057Y213335D01*
X790657Y214563D01*
X792974Y212247D01*
Y203253D01*
X785559Y195839D01*
X785500D01*
Y191500D01*
X789839D01*
Y191559D01*
X798140Y199860D01*
X798621Y200487D01*
X798923Y201217D01*
X799026Y202000D01*
Y213500D01*
X798923Y214283D01*
X798621Y215013D01*
X798140Y215640D01*
X783883Y229896D01*
X783762Y230351D01*
X783301Y231149D01*
X782649Y231801D01*
X781851Y232261D01*
X781000Y232489D01*
Y229000D01*
X780000D01*
Y232489D01*
X779149Y232261D01*
X778741Y232026D01*
X752395D01*
X752311Y232448D01*
X752110Y232749D01*
Y235677D01*
X753529Y237087D01*
X808471Y236786D01*
D02*
G37*
G36*
X723474Y237252D02*
Y234555D01*
X722321Y232990D01*
X721493Y232883D01*
X720915D01*
Y229000D01*
X720415D01*
Y228500D01*
X717073D01*
Y226631D01*
X717189Y226052D01*
X717389Y225751D01*
Y220585D01*
X717493Y219801D01*
X717795Y219072D01*
X718276Y218445D01*
X722971Y213750D01*
X708569Y199348D01*
X706569Y200176D01*
Y202346D01*
X706453Y202930D01*
X706122Y203425D01*
X705627Y203756D01*
X705043Y203872D01*
X704235D01*
Y228455D01*
X713088Y237309D01*
X723474Y237252D01*
D02*
G37*
G36*
X538671Y193240D02*
X538788Y192656D01*
X539118Y192162D01*
X539613Y191831D01*
X540024Y191749D01*
Y189251D01*
X539613Y189169D01*
X539118Y188838D01*
X538788Y188344D01*
X538671Y187760D01*
Y183240D01*
X538788Y182656D01*
X539118Y182162D01*
X539613Y181831D01*
X540197Y181715D01*
X543929D01*
X544513Y181831D01*
X544843Y182052D01*
X545174Y182162D01*
X546826D01*
X547157Y182052D01*
X547487Y181831D01*
X548071Y181715D01*
X550838D01*
X553995Y178558D01*
X554657Y178116D01*
X555437Y177961D01*
X584655D01*
X618058Y144558D01*
X618720Y144116D01*
X619500Y143961D01*
X654929D01*
X655381Y143327D01*
X654581Y141794D01*
X653533Y141655D01*
X653513Y141669D01*
X652929Y141785D01*
X649197D01*
X648613Y141669D01*
X648118Y141338D01*
X647788Y140844D01*
X647672Y140260D01*
Y139646D01*
X643606D01*
X642826Y139490D01*
X642164Y139048D01*
X640857Y137740D01*
X640505Y137835D01*
X639495D01*
X638520Y137573D01*
X637645Y137068D01*
X636932Y136354D01*
X636427Y135480D01*
X636165Y134505D01*
Y133495D01*
X636260Y133143D01*
X621819Y118703D01*
X619874Y119586D01*
Y136003D01*
X619719Y136783D01*
X619277Y137444D01*
X602066Y154655D01*
X602066Y154655D01*
X588365Y168356D01*
X588037Y168846D01*
X585026Y171858D01*
X584865Y172246D01*
X584246Y172865D01*
X583438Y173200D01*
X582562D01*
X581754Y172865D01*
X581135Y172246D01*
X580800Y171438D01*
Y170562D01*
X581135Y169754D01*
X581754Y169135D01*
X582142Y168974D01*
X584826Y166290D01*
X585154Y165800D01*
X599182Y151771D01*
X599182Y151771D01*
X599182Y151771D01*
X611354Y139599D01*
X611402Y139018D01*
X610906Y137219D01*
X610645Y137068D01*
X609932Y136354D01*
X609750Y136039D01*
X601689D01*
X592261Y145467D01*
X592842Y146797D01*
X593000Y146989D01*
Y149500D01*
X593500D01*
Y150000D01*
X595674D01*
X595365Y150746D01*
X594746Y151365D01*
X593938Y151700D01*
X593253Y152500D01*
X591000D01*
Y153500D01*
X593174D01*
X592865Y154246D01*
X592246Y154865D01*
X591497Y155175D01*
X591438Y155200D01*
X590276Y155776D01*
X589700Y156938D01*
X589675Y156997D01*
X589365Y157746D01*
X588746Y158365D01*
X587938Y158700D01*
X587684D01*
X586026Y160358D01*
X585865Y160746D01*
X585246Y161365D01*
X584500Y161674D01*
Y159500D01*
X584000D01*
Y159000D01*
X581826D01*
X582135Y158254D01*
X580602Y157126D01*
X576361Y161367D01*
X577126Y163215D01*
X577366D01*
X577950Y163331D01*
X578445Y163662D01*
X578775Y164156D01*
X578892Y164740D01*
Y166500D01*
X575500D01*
Y167000D01*
X575000D01*
Y170785D01*
X573634D01*
X573050Y170669D01*
X572720Y170448D01*
X572389Y170338D01*
X570737D01*
X570406Y170448D01*
X570076Y170669D01*
X569492Y170785D01*
X565760D01*
X565176Y170669D01*
X564681Y170338D01*
X564351Y169844D01*
X564234Y169260D01*
Y166099D01*
X561558Y163422D01*
X559380Y163504D01*
X559026Y163858D01*
X558865Y164246D01*
X558246Y164865D01*
X557438Y165200D01*
X556562D01*
X555754Y164865D01*
X555135Y164246D01*
X554800Y163438D01*
Y162562D01*
X555135Y161754D01*
X555754Y161135D01*
X556142Y160974D01*
X557761Y159355D01*
Y158533D01*
X556497Y156883D01*
X555169D01*
Y153000D01*
X554169D01*
Y156883D01*
X552842D01*
X552262Y156768D01*
X551771Y156440D01*
X551692Y156321D01*
X550749Y156142D01*
X550421D01*
X549477Y156321D01*
X549398Y156440D01*
X548907Y156768D01*
X548561Y156837D01*
X547664Y157872D01*
X547242Y158500D01*
X542826D01*
X543135Y157754D01*
X543541Y156610D01*
X543273Y155948D01*
X543158Y155369D01*
Y150631D01*
X543273Y150052D01*
X543602Y149560D01*
X544093Y149232D01*
X544418Y149167D01*
Y146850D01*
X544008Y146768D01*
X543517Y146440D01*
X543189Y145948D01*
X543111Y145559D01*
X541845Y144921D01*
X541238Y144700D01*
X540362D01*
X539554Y144365D01*
X538935Y143746D01*
X538698Y143173D01*
X536772Y141248D01*
X536587Y140971D01*
X535955Y140339D01*
X531183D01*
X530700Y141062D01*
Y141938D01*
X530539Y142326D01*
Y193461D01*
X538671D01*
Y193240D01*
D02*
G37*
G36*
X551607Y139679D02*
X551686Y139560D01*
X552178Y139232D01*
X552757Y139117D01*
X552798Y138949D01*
X552898Y137117D01*
X552530Y136871D01*
X548945Y133285D01*
X546571D01*
X545987Y133169D01*
X545657Y132948D01*
X545326Y132838D01*
X543674D01*
X543343Y132948D01*
X543013Y133169D01*
X542725Y134661D01*
Y135536D01*
X542390Y136344D01*
X541772Y136963D01*
X541601Y137605D01*
X541505Y138710D01*
X541549Y139061D01*
X541672Y139163D01*
X543517Y139560D01*
X544008Y139232D01*
X544588Y139117D01*
X548243D01*
X548822Y139232D01*
X549314Y139560D01*
X549393Y139679D01*
X550336Y139858D01*
X550664D01*
X551607Y139679D01*
D02*
G37*
G36*
X569342Y162794D02*
X569696Y162264D01*
X599402Y132558D01*
X600064Y132116D01*
X600844Y131961D01*
X609750D01*
X609932Y131646D01*
X610645Y130931D01*
X610961Y130749D01*
Y127251D01*
X610645Y127068D01*
X609932Y126355D01*
X609427Y125480D01*
X609165Y124505D01*
Y123495D01*
X609427Y122520D01*
X609932Y121645D01*
X610645Y120931D01*
X611520Y120427D01*
X611752Y120365D01*
X612656Y118665D01*
X612710Y118165D01*
X612495Y117835D01*
X611520Y117573D01*
X610645Y117069D01*
X609932Y116355D01*
X609427Y115480D01*
X609165Y114505D01*
Y113495D01*
X609288Y113039D01*
X608536Y111614D01*
X607972Y111039D01*
X596862D01*
X596688Y111181D01*
X595711Y113000D01*
X593500D01*
Y113500D01*
X593000D01*
Y115674D01*
X592271Y115372D01*
X592254Y115365D01*
X591000Y114954D01*
X589746Y115365D01*
X589729Y115372D01*
X589000Y115674D01*
Y113500D01*
X588500D01*
Y113000D01*
X586289D01*
X585312Y111181D01*
X585138Y111039D01*
X518326D01*
X517938Y111200D01*
X517062D01*
X516674Y111039D01*
X515845D01*
X511039Y115845D01*
Y126205D01*
X513638D01*
X513688Y126215D01*
X516866D01*
X517450Y126331D01*
X517780Y126552D01*
X518111Y126662D01*
X519763D01*
X520094Y126552D01*
X520424Y126331D01*
X521008Y126215D01*
X524740D01*
X525324Y126331D01*
X525819Y126662D01*
X526149Y127156D01*
X526265Y127740D01*
Y132260D01*
X526149Y132844D01*
X525819Y133338D01*
X525324Y133669D01*
X524976Y133738D01*
Y136237D01*
X525098Y136261D01*
X536478D01*
X536999Y136056D01*
X537996Y135030D01*
X537755Y132930D01*
X537618Y132838D01*
X537288Y132344D01*
X537172Y131760D01*
Y127240D01*
X537288Y126656D01*
X537618Y126162D01*
X538113Y125831D01*
X538697Y125715D01*
X542429D01*
X543013Y125831D01*
X543343Y126052D01*
X543674Y126162D01*
X545326D01*
X545657Y126052D01*
X545987Y125831D01*
X546571Y125715D01*
X550303D01*
X550887Y125831D01*
X551382Y126162D01*
X551712Y126656D01*
X551828Y127240D01*
Y130401D01*
X554817Y133390D01*
X557429D01*
X558209Y133545D01*
X558871Y133987D01*
X561242Y136358D01*
X561822Y136992D01*
X562762Y136800D01*
X563638D01*
X564446Y137135D01*
X564472Y137161D01*
X573817D01*
X574258Y136500D01*
X576500D01*
Y136000D01*
X577000D01*
Y133826D01*
X577746Y134135D01*
X578365Y134754D01*
X578700Y135562D01*
Y135998D01*
X580197Y136956D01*
X580548Y137077D01*
X581133Y136961D01*
X586174D01*
X586562Y136800D01*
X587438D01*
X588246Y137135D01*
X588865Y137754D01*
X589200Y138562D01*
Y139438D01*
X588865Y140246D01*
X588246Y140865D01*
X587438Y141200D01*
X586562D01*
X586174Y141039D01*
X581780D01*
X581713Y141084D01*
X580933Y141239D01*
X566964D01*
X565743Y143000D01*
X563500D01*
Y143500D01*
X563000D01*
Y145785D01*
X561839Y147358D01*
Y152317D01*
X562562Y152800D01*
X563438D01*
X564246Y153135D01*
X564865Y153754D01*
X565200Y154562D01*
Y155438D01*
X565039Y155826D01*
Y161136D01*
X567118Y163215D01*
X568921D01*
X569342Y162794D01*
D02*
G37*
G36*
X520217Y135667D02*
X520289Y134968D01*
X520129Y133723D01*
X520019Y133423D01*
X519763Y133338D01*
X518111D01*
X517780Y133448D01*
X517450Y133669D01*
X516866Y133785D01*
X513134D01*
X512550Y133669D01*
X512055Y133338D01*
X511725Y132844D01*
X511609Y132260D01*
Y130283D01*
X510172D01*
X509391Y130128D01*
X509274Y130050D01*
X507616Y130648D01*
X507212Y130997D01*
X507056Y132172D01*
X511089Y136205D01*
X513764D01*
X513813Y136215D01*
X516992D01*
X517576Y136331D01*
X517906Y136552D01*
X518237Y136662D01*
X519063D01*
X520217Y135667D01*
D02*
G37*
G36*
X737961Y196959D02*
Y163345D01*
X704039Y129423D01*
X702039Y130251D01*
Y170136D01*
X702149Y170199D01*
X702801Y170851D01*
X703262Y171649D01*
X703500Y172539D01*
Y173461D01*
X703262Y174351D01*
X703026Y174759D01*
Y179136D01*
X705043D01*
X705627Y179252D01*
X706001Y179502D01*
X715873D01*
X716656Y179605D01*
X717386Y179907D01*
X718013Y180388D01*
X735625Y198000D01*
X735961Y198090D01*
X736112Y198102D01*
X737961Y196959D01*
D02*
G37*
G36*
X647788Y135156D02*
X648118Y134662D01*
X648613Y134331D01*
X649197Y134215D01*
X652929D01*
X653513Y134331D01*
X653843Y134552D01*
X654174Y134662D01*
X655826D01*
X656157Y134552D01*
X656487Y134331D01*
X657071Y134215D01*
X659445D01*
X663862Y129798D01*
X664063Y128044D01*
X662671Y126289D01*
X643106D01*
X643069Y126355D01*
X642354Y127068D01*
X641480Y127573D01*
X641249Y127635D01*
X640344Y129335D01*
X640290Y129835D01*
X640505Y130165D01*
X641480Y130427D01*
X642354Y130931D01*
X643069Y131646D01*
X643573Y132520D01*
X643835Y133495D01*
Y134505D01*
X645524Y135567D01*
X647706D01*
X647788Y135156D01*
D02*
G37*
G36*
X636041Y124571D02*
X636165Y124453D01*
Y123495D01*
X636427Y122520D01*
X636932Y121645D01*
X637645Y120931D01*
X637961Y120749D01*
Y117251D01*
X637645Y117069D01*
X636932Y116355D01*
X636427Y115480D01*
X636165Y114505D01*
Y113495D01*
X636287Y113039D01*
X635536Y111614D01*
X634972Y111039D01*
X622536D01*
X621771Y112887D01*
X634353Y125469D01*
X636041Y124571D01*
D02*
G37*
G36*
X808471Y109917D02*
Y101529D01*
X798403D01*
X798086Y103529D01*
X799220Y103898D01*
X801127Y104870D01*
X802859Y106128D01*
X804372Y107641D01*
X805630Y109373D01*
X808230Y110069D01*
X808471Y109917D01*
D02*
G37*
%LPC*%
G36*
X642291Y368026D02*
X625614D01*
X625021Y367908D01*
X624518Y367572D01*
X624183Y367069D01*
X624065Y366476D01*
Y354524D01*
X624183Y353931D01*
X624518Y353428D01*
X625021Y353092D01*
X625614Y352974D01*
X642291D01*
X642884Y353092D01*
X643387Y353428D01*
X643723Y353931D01*
X643841Y354524D01*
Y366476D01*
X643723Y367069D01*
X643387Y367572D01*
X642884Y367908D01*
X642291Y368026D01*
D02*
G37*
G36*
X686886Y338026D02*
X670209D01*
X669616Y337908D01*
X669113Y337572D01*
X668777Y337069D01*
X668659Y336476D01*
Y324524D01*
X668777Y323931D01*
X669113Y323428D01*
X669616Y323092D01*
X670209Y322974D01*
X686886D01*
X687479Y323092D01*
X687982Y323428D01*
X688317Y323931D01*
X688435Y324524D01*
Y336476D01*
X688317Y337069D01*
X687982Y337572D01*
X687479Y337908D01*
X686886Y338026D01*
D02*
G37*
G36*
X642791D02*
X626114D01*
X625521Y337908D01*
X625019Y337572D01*
X624683Y337069D01*
X624565Y336476D01*
Y324524D01*
X624683Y323931D01*
X625019Y323428D01*
X625521Y323092D01*
X626114Y322974D01*
X642791D01*
X643384Y323092D01*
X643887Y323428D01*
X644223Y323931D01*
X644341Y324524D01*
Y336476D01*
X644223Y337069D01*
X643887Y337572D01*
X643384Y337908D01*
X642791Y338026D01*
D02*
G37*
G36*
X739000Y322174D02*
X738271Y321872D01*
X738254Y321865D01*
X737000Y321454D01*
X735746Y321865D01*
X735729Y321872D01*
X735000Y322174D01*
Y320000D01*
Y317826D01*
X735729Y318128D01*
X735746Y318135D01*
X737000Y318546D01*
X738254Y318135D01*
X738271Y318128D01*
X739000Y317826D01*
Y320000D01*
Y322174D01*
D02*
G37*
G36*
X734000D02*
X733271Y321872D01*
X733254Y321865D01*
X732000Y321454D01*
X730746Y321865D01*
X730729Y321872D01*
X730000Y322174D01*
Y320000D01*
Y317826D01*
X730729Y318128D01*
X730746Y318135D01*
X732000Y318546D01*
X733254Y318135D01*
X733271Y318128D01*
X734000Y317826D01*
Y320000D01*
Y322174D01*
D02*
G37*
G36*
X729000D02*
X728271Y321872D01*
X728254Y321865D01*
X727000Y321454D01*
X725746Y321865D01*
X725729Y321872D01*
X725000Y322174D01*
Y320000D01*
Y317826D01*
X725729Y318128D01*
X725746Y318135D01*
X727000Y318546D01*
X728254Y318135D01*
X728271Y318128D01*
X729000Y317826D01*
Y320000D01*
Y322174D01*
D02*
G37*
G36*
X744500D02*
X743754Y321865D01*
X743414Y321526D01*
X742250Y321367D01*
X741086Y321526D01*
X740746Y321865D01*
X740000Y322174D01*
Y320000D01*
Y317826D01*
X740746Y318135D01*
X741086Y318475D01*
X742250Y318633D01*
X743414Y318475D01*
X743754Y318135D01*
X744500Y317826D01*
Y320000D01*
Y322174D01*
D02*
G37*
G36*
X745500D02*
Y320500D01*
X747174D01*
X746865Y321246D01*
X746246Y321865D01*
X745500Y322174D01*
D02*
G37*
G36*
X724000D02*
X723254Y321865D01*
X722635Y321246D01*
X722326Y320500D01*
X724000D01*
Y322174D01*
D02*
G37*
G36*
X703000Y321174D02*
X702254Y320865D01*
X701635Y320246D01*
X701326Y319500D01*
X703000D01*
Y321174D01*
D02*
G37*
G36*
X695500D02*
Y319500D01*
X697174D01*
X696865Y320246D01*
X696246Y320865D01*
X695500Y321174D01*
D02*
G37*
G36*
X694500D02*
X693754Y320865D01*
X693135Y320246D01*
X692826Y319500D01*
X694500D01*
Y321174D01*
D02*
G37*
G36*
X608705Y322280D02*
X608555D01*
Y317843D01*
X612992D01*
Y317992D01*
X612656Y319248D01*
X612006Y320374D01*
X611087Y321293D01*
X609961Y321943D01*
X608705Y322280D01*
D02*
G37*
G36*
X747174Y319500D02*
X745500D01*
Y317826D01*
X746246Y318135D01*
X746865Y318754D01*
X747174Y319500D01*
D02*
G37*
G36*
X724000D02*
X722326D01*
X722635Y318754D01*
X723254Y318135D01*
X724000Y317826D01*
Y319500D01*
D02*
G37*
G36*
X703000Y318500D02*
X701326D01*
X701635Y317754D01*
X702254Y317135D01*
X703000Y316826D01*
Y318500D01*
D02*
G37*
G36*
X697174D02*
X695500D01*
Y316826D01*
X696246Y317135D01*
X696865Y317754D01*
X697174Y318500D01*
D02*
G37*
G36*
X694500D02*
X692826D01*
X693135Y317754D01*
X693754Y317135D01*
X694500Y316826D01*
Y318500D01*
D02*
G37*
G36*
X612992Y316843D02*
X608555D01*
Y312405D01*
X608705D01*
X609961Y312742D01*
X611087Y313392D01*
X612006Y314311D01*
X612656Y315437D01*
X612992Y316692D01*
Y316843D01*
D02*
G37*
G36*
X608705Y302594D02*
X608555D01*
Y298158D01*
X612992D01*
Y298307D01*
X612656Y299563D01*
X612006Y300689D01*
X611087Y301608D01*
X609961Y302258D01*
X608705Y302594D01*
D02*
G37*
G36*
X675000Y306959D02*
X663047D01*
X662454Y306841D01*
X661952Y306505D01*
X661616Y306002D01*
X661498Y305410D01*
Y288732D01*
X661616Y288139D01*
X661952Y287637D01*
X662454Y287301D01*
X663047Y287183D01*
X675000D01*
X675593Y287301D01*
X676096Y287637D01*
X676432Y288139D01*
X676549Y288732D01*
Y305410D01*
X676432Y306002D01*
X676096Y306505D01*
X675593Y306841D01*
X675000Y306959D01*
D02*
G37*
G36*
X644976Y306935D02*
X633024D01*
X632431Y306817D01*
X631928Y306482D01*
X631592Y305979D01*
X631474Y305386D01*
Y288709D01*
X631592Y288116D01*
X631928Y287613D01*
X632431Y287277D01*
X633024Y287159D01*
X644976D01*
X645569Y287277D01*
X646072Y287613D01*
X646408Y288116D01*
X646526Y288709D01*
Y305386D01*
X646408Y305979D01*
X646072Y306482D01*
X645569Y306817D01*
X644976Y306935D01*
D02*
G37*
G36*
Y262841D02*
X639500D01*
Y253453D01*
X646526D01*
Y261291D01*
X646408Y261884D01*
X646072Y262387D01*
X645569Y262723D01*
X644976Y262841D01*
D02*
G37*
G36*
X638500D02*
X633024D01*
X632431Y262723D01*
X631928Y262387D01*
X631592Y261884D01*
X631474Y261291D01*
Y253453D01*
X638500D01*
Y262841D01*
D02*
G37*
G36*
X794000Y367500D02*
X780902D01*
Y366930D01*
X781236Y364816D01*
X781898Y362780D01*
X782870Y360873D01*
X784128Y359141D01*
X785641Y357628D01*
X787373Y356370D01*
X789280Y355398D01*
X791316Y354736D01*
X793430Y354402D01*
X794000D01*
Y367500D01*
D02*
G37*
G36*
X587174Y206000D02*
X582826D01*
X583135Y205254D01*
X583639Y204750D01*
X583135Y204246D01*
X582826Y203500D01*
X587174D01*
X586865Y204246D01*
X586361Y204750D01*
X586865Y205254D01*
X587174Y206000D01*
D02*
G37*
G36*
Y202500D02*
X582826D01*
X583135Y201754D01*
X583639Y201250D01*
X583135Y200746D01*
X582826Y200000D01*
X587174D01*
X586865Y200746D01*
X586361Y201250D01*
X586865Y201754D01*
X587174Y202500D01*
D02*
G37*
G36*
X688517Y203950D02*
X683500D01*
Y198008D01*
X690033D01*
Y202434D01*
X690032Y202437D01*
Y202465D01*
X689919Y203033D01*
X689598Y203515D01*
X689116Y203837D01*
X688547Y203950D01*
X688520D01*
X688517Y203950D01*
D02*
G37*
G36*
X669311D02*
X664294D01*
X664291Y203950D01*
X664264D01*
X663695Y203837D01*
X663214Y203515D01*
X662892Y203033D01*
X662779Y202465D01*
Y202437D01*
X662778Y202434D01*
Y198008D01*
X669311D01*
Y203950D01*
D02*
G37*
G36*
X587174Y199000D02*
X582826D01*
X583135Y198254D01*
X583639Y197750D01*
X583135Y197246D01*
X582826Y196500D01*
X587174D01*
X586865Y197246D01*
X586361Y197750D01*
X586865Y198254D01*
X587174Y199000D01*
D02*
G37*
G36*
X642500Y197174D02*
Y195500D01*
X644174D01*
X643865Y196246D01*
X643246Y196865D01*
X642500Y197174D01*
D02*
G37*
G36*
X641500D02*
X640754Y196865D01*
X640135Y196246D01*
X639826Y195500D01*
X641500D01*
Y197174D01*
D02*
G37*
G36*
X556674Y197000D02*
X555000D01*
Y195326D01*
X555746Y195635D01*
X556365Y196254D01*
X556674Y197000D01*
D02*
G37*
G36*
X587174Y195500D02*
X582826D01*
X583135Y194754D01*
X583639Y194250D01*
X583135Y193746D01*
X582826Y193000D01*
X587174D01*
X586865Y193746D01*
X586361Y194250D01*
X586865Y194754D01*
X587174Y195500D01*
D02*
G37*
G36*
X675328Y203950D02*
X670311D01*
Y197508D01*
X669811D01*
Y197008D01*
X662778D01*
Y192582D01*
X662779Y192579D01*
Y192004D01*
X675906D01*
Y203950D01*
X675331D01*
X675328Y203950D01*
D02*
G37*
G36*
X556674Y204000D02*
X552326D01*
X552635Y203254D01*
X553139Y202750D01*
X552635Y202246D01*
X552300Y201438D01*
Y201226D01*
X552088Y200397D01*
X550664Y199285D01*
X550437D01*
Y195500D01*
Y191715D01*
X551803D01*
X552387Y191831D01*
X552882Y192162D01*
X553212Y192656D01*
X553329Y193240D01*
Y194810D01*
X554000Y195258D01*
Y197500D01*
X554500D01*
Y198000D01*
X556674D01*
X556365Y198746D01*
X555861Y199250D01*
X556365Y199754D01*
X556674Y200500D01*
X554500D01*
Y201500D01*
X556674D01*
X556365Y202246D01*
X555861Y202750D01*
X556365Y203254D01*
X556674Y204000D01*
D02*
G37*
G36*
X644174Y194500D02*
X639826D01*
X640135Y193754D01*
X640222Y192750D01*
X640135Y191746D01*
X639826Y191000D01*
X644174D01*
X643865Y191746D01*
X643778Y192750D01*
X643865Y193754D01*
X644174Y194500D01*
D02*
G37*
G36*
X587174Y192000D02*
X582826D01*
X583135Y191254D01*
X583639Y190750D01*
X583135Y190246D01*
X582826Y189500D01*
X587174D01*
X586865Y190246D01*
X586361Y190750D01*
X586865Y191254D01*
X587174Y192000D01*
D02*
G37*
G36*
X682500Y203950D02*
X677483D01*
X677480Y203950D01*
X676905D01*
Y191504D01*
Y179058D01*
X677480D01*
X677483Y179058D01*
X682500D01*
Y185500D01*
X683000D01*
Y186000D01*
X690033D01*
Y188478D01*
X696417D01*
X696790Y188228D01*
X697374Y188112D01*
X700709D01*
Y191504D01*
Y194896D01*
X697374D01*
X696790Y194779D01*
X696417Y194530D01*
X690033D01*
Y197008D01*
X683000D01*
Y197508D01*
X682500D01*
Y203950D01*
D02*
G37*
G36*
X587174Y188500D02*
X582826D01*
X583135Y187754D01*
X583639Y187250D01*
X583135Y186746D01*
X582826Y186000D01*
X587174D01*
X586865Y186746D01*
X586361Y187250D01*
X586865Y187754D01*
X587174Y188500D01*
D02*
G37*
G36*
X644174Y190000D02*
X639826D01*
X640135Y189254D01*
X640475Y188914D01*
X640633Y187750D01*
X640475Y186586D01*
X640135Y186246D01*
X639826Y185500D01*
X644174D01*
X643865Y186246D01*
X643526Y186586D01*
X643367Y187750D01*
X643526Y188914D01*
X643865Y189254D01*
X644174Y190000D01*
D02*
G37*
G36*
Y184500D02*
X639826D01*
X640135Y183754D01*
X640222Y182750D01*
X640135Y181746D01*
X639826Y181000D01*
X644174D01*
X643865Y181746D01*
X643778Y182750D01*
X643865Y183754D01*
X644174Y184500D01*
D02*
G37*
G36*
X690033Y185000D02*
X683500D01*
Y179058D01*
X688517D01*
X688520Y179058D01*
X688547D01*
X689116Y179171D01*
X689598Y179493D01*
X689919Y179975D01*
X690032Y180543D01*
Y180571D01*
X690033Y180574D01*
Y185000D01*
D02*
G37*
G36*
X675906Y191004D02*
X662779D01*
Y190429D01*
X662778Y190426D01*
Y186000D01*
X669811D01*
Y185500D01*
X670311D01*
Y179058D01*
X675328D01*
X675331Y179058D01*
X675906D01*
Y191004D01*
D02*
G37*
G36*
X669311Y185000D02*
X662778D01*
Y180574D01*
X662779Y180571D01*
Y180543D01*
X662892Y179975D01*
X663214Y179493D01*
X663695Y179171D01*
X664264Y179058D01*
X664291D01*
X664294Y179058D01*
X669311D01*
Y185000D01*
D02*
G37*
G36*
X644174Y180000D02*
X639826D01*
X640135Y179254D01*
X640660Y178500D01*
X640135Y177746D01*
X639826Y177000D01*
X644174D01*
X643865Y177746D01*
X643340Y178500D01*
X643865Y179254D01*
X644174Y180000D01*
D02*
G37*
G36*
Y176000D02*
X642500D01*
Y174326D01*
X643246Y174635D01*
X643865Y175254D01*
X644174Y176000D01*
D02*
G37*
G36*
X641500D02*
X639826D01*
X640135Y175254D01*
X640754Y174635D01*
X641500Y174326D01*
Y176000D01*
D02*
G37*
G36*
X687185Y129339D02*
X687048D01*
X685817Y129009D01*
X684714Y128372D01*
X683813Y127471D01*
X683176Y126368D01*
X682846Y125137D01*
Y125000D01*
X687185D01*
Y129339D01*
D02*
G37*
G36*
X495500Y114674D02*
Y113000D01*
X497174D01*
X496865Y113746D01*
X496246Y114365D01*
X495500Y114674D01*
D02*
G37*
G36*
X494500D02*
X493754Y114365D01*
X493135Y113746D01*
X492826Y113000D01*
X494500D01*
Y114674D01*
D02*
G37*
G36*
X488500D02*
Y113000D01*
X490174D01*
X489865Y113746D01*
X489246Y114365D01*
X488500Y114674D01*
D02*
G37*
G36*
X487500D02*
X486754Y114365D01*
X486135Y113746D01*
X485826Y113000D01*
X487500D01*
Y114674D01*
D02*
G37*
G36*
X481000D02*
Y113000D01*
X482674D01*
X482365Y113746D01*
X481746Y114365D01*
X481000Y114674D01*
D02*
G37*
G36*
X480000D02*
X479254Y114365D01*
X478635Y113746D01*
X478326Y113000D01*
X480000D01*
Y114674D01*
D02*
G37*
G36*
X497174Y112000D02*
X495500D01*
Y110326D01*
X496246Y110635D01*
X496865Y111254D01*
X497174Y112000D01*
D02*
G37*
G36*
X494500D02*
X492826D01*
X493135Y111254D01*
X493754Y110635D01*
X494500Y110326D01*
Y112000D01*
D02*
G37*
G36*
X490174D02*
X488500D01*
Y110326D01*
X489246Y110635D01*
X489865Y111254D01*
X490174Y112000D01*
D02*
G37*
G36*
X487500D02*
X485826D01*
X486135Y111254D01*
X486754Y110635D01*
X487500Y110326D01*
Y112000D01*
D02*
G37*
G36*
X482674D02*
X481000D01*
Y110326D01*
X481746Y110635D01*
X482365Y111254D01*
X482674Y112000D01*
D02*
G37*
G36*
X480000D02*
X478326D01*
X478635Y111254D01*
X479254Y110635D01*
X480000Y110326D01*
Y112000D01*
D02*
G37*
G36*
X495500Y107174D02*
Y105500D01*
X497174D01*
X496865Y106246D01*
X496246Y106865D01*
X495500Y107174D01*
D02*
G37*
G36*
X494500D02*
X493754Y106865D01*
X493135Y106246D01*
X492826Y105500D01*
X494500D01*
Y107174D01*
D02*
G37*
G36*
X481000D02*
Y105500D01*
X482674D01*
X482365Y106246D01*
X481746Y106865D01*
X481000Y107174D01*
D02*
G37*
G36*
X480000D02*
X479254Y106865D01*
X478635Y106246D01*
X478326Y105500D01*
X480000D01*
Y107174D01*
D02*
G37*
G36*
X771000Y194500D02*
X767617D01*
Y193173D01*
X767732Y192593D01*
X768060Y192102D01*
X768552Y191773D01*
X769131Y191658D01*
X771000D01*
Y194500D01*
D02*
G37*
G36*
X757500Y187174D02*
X756754Y186865D01*
X756250Y186361D01*
X755746Y186865D01*
X755000Y187174D01*
Y185000D01*
X754500D01*
Y184500D01*
X752326D01*
X752635Y183754D01*
X753139Y183250D01*
X752635Y182746D01*
X752326Y182000D01*
X754500D01*
Y181000D01*
X752326D01*
X752635Y180254D01*
X753139Y179750D01*
X752635Y179246D01*
X752326Y178500D01*
X754500D01*
Y178000D01*
X755000D01*
Y175826D01*
X755746Y176135D01*
X756250Y176639D01*
X756754Y176135D01*
X757500Y175826D01*
Y178000D01*
X758000D01*
Y178500D01*
X760174D01*
X759865Y179246D01*
X759361Y179750D01*
X759865Y180254D01*
X760174Y181000D01*
X758000D01*
Y182000D01*
X760174D01*
X759865Y182746D01*
X759361Y183250D01*
X759865Y183754D01*
X760174Y184500D01*
X758000D01*
Y185000D01*
X757500D01*
Y187174D01*
D02*
G37*
G36*
X789839Y190500D02*
X785500D01*
Y186161D01*
X785637D01*
X786868Y186491D01*
X787971Y187128D01*
X788872Y188029D01*
X789509Y189132D01*
X789839Y190363D01*
Y190500D01*
D02*
G37*
G36*
X758500Y187174D02*
Y185500D01*
X760174D01*
X759865Y186246D01*
X759246Y186865D01*
X758500Y187174D01*
D02*
G37*
G36*
X754000D02*
X753254Y186865D01*
X752635Y186246D01*
X752326Y185500D01*
X754000D01*
Y187174D01*
D02*
G37*
G36*
X760174Y177500D02*
X758500D01*
Y175826D01*
X759246Y176135D01*
X759865Y176754D01*
X760174Y177500D01*
D02*
G37*
G36*
X754000D02*
X752326D01*
X752635Y176754D01*
X753254Y176135D01*
X754000Y175826D01*
Y177500D01*
D02*
G37*
G36*
X745150Y145437D02*
X745000D01*
Y141000D01*
X749437D01*
Y141150D01*
X749101Y142406D01*
X748451Y143531D01*
X747531Y144451D01*
X746406Y145101D01*
X745150Y145437D01*
D02*
G37*
G36*
X744000D02*
X743850D01*
X742594Y145101D01*
X741469Y144451D01*
X740549Y143531D01*
X739899Y142406D01*
X739563Y141150D01*
Y141000D01*
X744000D01*
Y145437D01*
D02*
G37*
G36*
X749437Y140000D02*
X745000D01*
Y135563D01*
X745150D01*
X746406Y135899D01*
X747531Y136549D01*
X748451Y137469D01*
X749101Y138594D01*
X749437Y139850D01*
Y140000D01*
D02*
G37*
G36*
X744000D02*
X739563D01*
Y139850D01*
X739899Y138594D01*
X740549Y137469D01*
X741469Y136549D01*
X742594Y135899D01*
X743850Y135563D01*
X744000D01*
Y140000D01*
D02*
G37*
G36*
X793500Y130098D02*
X792930D01*
X790816Y129764D01*
X788780Y129102D01*
X786873Y128130D01*
X785141Y126872D01*
X783628Y125359D01*
X782370Y123627D01*
X781398Y121720D01*
X780736Y119684D01*
X780402Y117570D01*
Y117000D01*
X793500D01*
Y130098D01*
D02*
G37*
G36*
X719915Y232883D02*
X718588D01*
X718008Y232768D01*
X717517Y232440D01*
X717189Y231948D01*
X717073Y231369D01*
Y229500D01*
X719915D01*
Y232883D01*
D02*
G37*
G36*
X577366Y170785D02*
X576000D01*
Y167500D01*
X578892D01*
Y169260D01*
X578775Y169844D01*
X578445Y170338D01*
X577950Y170669D01*
X577366Y170785D01*
D02*
G37*
G36*
X583500Y161674D02*
X582754Y161365D01*
X582135Y160746D01*
X581826Y160000D01*
X583500D01*
Y161674D01*
D02*
G37*
G36*
X545500Y161174D02*
Y159500D01*
X547174D01*
X546865Y160246D01*
X546246Y160865D01*
X545500Y161174D01*
D02*
G37*
G36*
X544500D02*
X543754Y160865D01*
X543135Y160246D01*
X542826Y159500D01*
X544500D01*
Y161174D01*
D02*
G37*
G36*
X595674Y149000D02*
X594000D01*
Y147326D01*
X594746Y147635D01*
X595365Y148254D01*
X595674Y149000D01*
D02*
G37*
G36*
X574500Y148674D02*
Y147000D01*
X576174D01*
X575865Y147746D01*
X575246Y148365D01*
X574500Y148674D01*
D02*
G37*
G36*
X569000D02*
X568254Y148365D01*
X567635Y147746D01*
X567326Y147000D01*
X569000D01*
Y148674D01*
D02*
G37*
G36*
X576174Y146000D02*
X574500D01*
Y144326D01*
X575246Y144635D01*
X575865Y145254D01*
X576174Y146000D01*
D02*
G37*
G36*
X569000D02*
X567326D01*
X567635Y145254D01*
X568254Y144635D01*
X569000Y144326D01*
Y146000D01*
D02*
G37*
G36*
X570000Y148674D02*
Y146500D01*
Y144326D01*
X570746Y144635D01*
X571750Y144722D01*
X572754Y144635D01*
X573500Y144326D01*
Y146500D01*
Y148674D01*
X572754Y148365D01*
X571750Y148278D01*
X570746Y148365D01*
X570000Y148674D01*
D02*
G37*
G36*
X564000Y145674D02*
Y144000D01*
X565674D01*
X565365Y144746D01*
X564746Y145365D01*
X564000Y145674D01*
D02*
G37*
G36*
X576000Y135500D02*
X574326D01*
X574635Y134754D01*
X575254Y134135D01*
X576000Y133826D01*
Y135500D01*
D02*
G37*
G36*
X562000Y117674D02*
X561271Y117372D01*
X561254Y117365D01*
X560000Y116954D01*
X558746Y117365D01*
X558729Y117372D01*
X558000Y117674D01*
Y115500D01*
Y113326D01*
X558729Y113628D01*
X558746Y113635D01*
X560000Y114046D01*
X561254Y113635D01*
X561271Y113628D01*
X562000Y113326D01*
Y115500D01*
Y117674D01*
D02*
G37*
G36*
X563000D02*
Y116000D01*
X564674D01*
X564365Y116746D01*
X563746Y117365D01*
X563000Y117674D01*
D02*
G37*
G36*
X557000D02*
X556254Y117365D01*
X555635Y116746D01*
X555326Y116000D01*
X557000D01*
Y117674D01*
D02*
G37*
G36*
X594000Y115674D02*
Y114000D01*
X595674D01*
X595365Y114746D01*
X594746Y115365D01*
X594000Y115674D01*
D02*
G37*
G36*
X588000D02*
X587254Y115365D01*
X586635Y114746D01*
X586326Y114000D01*
X588000D01*
Y115674D01*
D02*
G37*
G36*
X564674Y115000D02*
X563000D01*
Y113326D01*
X563746Y113635D01*
X564365Y114254D01*
X564674Y115000D01*
D02*
G37*
G36*
X557000D02*
X555326D01*
X555635Y114254D01*
X556254Y113635D01*
X557000Y113326D01*
Y115000D01*
D02*
G37*
%LPD*%
D14*
X549937Y195500D02*
D03*
X575500Y167000D02*
D03*
X523000Y140000D02*
D03*
X522874Y130000D02*
D03*
X540563Y129500D02*
D03*
X542063Y185500D02*
D03*
Y195500D02*
D03*
X567626Y167000D02*
D03*
X515126Y140000D02*
D03*
X548437Y129500D02*
D03*
X515000Y130000D02*
D03*
X658937Y138000D02*
D03*
X651063D02*
D03*
X549937Y185500D02*
D03*
D15*
X410000Y330898D02*
D03*
X377000D02*
D03*
X388000Y343102D02*
D03*
Y330898D02*
D03*
X410000Y343102D02*
D03*
X377000D02*
D03*
X399000Y330898D02*
D03*
Y343102D02*
D03*
D17*
X771500Y195000D02*
D03*
Y203169D02*
D03*
D19*
X749085Y229500D02*
D03*
X720415Y229000D02*
D03*
X727000Y215000D02*
D03*
X554669Y153000D02*
D03*
X554585Y143000D02*
D03*
X546415D02*
D03*
X546500Y153000D02*
D03*
X728585Y229000D02*
D03*
X735169Y215000D02*
D03*
X740915Y229500D02*
D03*
D23*
X144398Y297500D02*
D03*
X157102Y257000D02*
D03*
X144898D02*
D03*
X144500Y269500D02*
D03*
X156705D02*
D03*
X156602Y297500D02*
D03*
Y283500D02*
D03*
X144398D02*
D03*
D26*
X697252Y374000D02*
D03*
X713000D02*
D03*
D28*
X608055Y376398D02*
D03*
Y356713D02*
D03*
Y337028D02*
D03*
Y277972D02*
D03*
Y258287D02*
D03*
X489945Y238602D02*
D03*
Y258287D02*
D03*
Y277972D02*
D03*
Y297657D02*
D03*
Y317342D02*
D03*
Y335059D02*
D03*
Y356713D02*
D03*
Y376398D02*
D03*
X608055Y238602D02*
D03*
Y317342D02*
D03*
Y297657D02*
D03*
X458000Y372500D02*
D03*
X238000Y260000D02*
D03*
X457500Y267500D02*
D03*
X758000Y308000D02*
D03*
Y331815D02*
D03*
X713500Y332315D02*
D03*
X713000Y307500D02*
D03*
X744500Y140500D02*
D03*
X570000Y220500D02*
D03*
X312000Y279500D02*
D03*
X540472Y220500D02*
D03*
X128000Y144000D02*
D03*
X189000Y339000D02*
D03*
Y299500D02*
D03*
X314000Y336500D02*
D03*
X259000Y305000D02*
D03*
D29*
X669024Y297071D02*
D03*
X639000Y297047D02*
D03*
Y252953D02*
D03*
X669024Y252976D02*
D03*
D30*
X633953Y360500D02*
D03*
X634453Y330500D02*
D03*
X678047Y360500D02*
D03*
X678547Y330500D02*
D03*
D31*
X457500Y346055D02*
D03*
Y287000D02*
D03*
X459000Y185000D02*
D03*
X150000Y228000D02*
D03*
X435000Y185000D02*
D03*
X410500Y184500D02*
D03*
X150000Y336268D02*
D03*
X410500Y243555D02*
D03*
X435000Y244055D02*
D03*
X459000D02*
D03*
D32*
X345209Y371358D02*
D03*
Y351673D02*
D03*
X433791Y292618D02*
D03*
D33*
X231500Y197000D02*
D03*
D34*
X230000Y218500D02*
D03*
X290854D02*
D03*
X199000Y236000D02*
D03*
X260000D02*
D03*
X290709D02*
D03*
X260146Y218500D02*
D03*
X229709Y236000D02*
D03*
X199291Y218500D02*
D03*
D35*
X801181Y374681D02*
D03*
X794500Y377449D02*
D03*
X803949Y368000D02*
D03*
X801181Y361319D02*
D03*
X787819Y374681D02*
D03*
X785051Y368000D02*
D03*
X787819Y361319D02*
D03*
X794500Y358551D02*
D03*
X803449Y116500D02*
D03*
X800681Y123181D02*
D03*
Y109819D02*
D03*
X794000Y107051D02*
D03*
Y125949D02*
D03*
X787319Y123181D02*
D03*
Y109819D02*
D03*
X784551Y116500D02*
D03*
X124949Y368500D02*
D03*
X122181Y361819D02*
D03*
Y375181D02*
D03*
X115500Y377949D02*
D03*
X108819Y375181D02*
D03*
X115500Y359051D02*
D03*
X106051Y368500D02*
D03*
X108819Y361819D02*
D03*
X125130Y115681D02*
D03*
X122363Y122363D02*
D03*
Y109000D02*
D03*
X115681Y125130D02*
D03*
X109000Y122363D02*
D03*
X115681Y106233D02*
D03*
X106233Y115681D02*
D03*
X109000Y109000D02*
D03*
D36*
X794500Y368000D02*
D03*
X794000Y116500D02*
D03*
X115500Y368500D02*
D03*
X115681Y115681D02*
D03*
D37*
X785000Y191000D02*
D03*
X687685Y124500D02*
D03*
X785000Y210685D02*
D03*
X668000Y124500D02*
D03*
D38*
X613000Y124000D02*
D03*
Y134000D02*
D03*
X640000D02*
D03*
Y124000D02*
D03*
Y114000D02*
D03*
X613000D02*
D03*
D39*
X373500Y222000D02*
D03*
X341000D02*
D03*
X373500Y114500D02*
D03*
X341000D02*
D03*
X313500Y157000D02*
D03*
Y179500D02*
D03*
X328500D02*
D03*
X386000Y157000D02*
D03*
Y179500D02*
D03*
X328500Y157000D02*
D03*
D40*
X114000Y238500D02*
D03*
Y218500D02*
D03*
X114500Y315000D02*
D03*
Y295000D02*
D03*
X799500Y328500D02*
D03*
Y308500D02*
D03*
Y270500D02*
D03*
Y250500D02*
D03*
D41*
X713500Y352000D02*
D03*
X758000Y351500D02*
D03*
Y288315D02*
D03*
X713000Y287815D02*
D03*
D42*
X201500Y197000D02*
D03*
D43*
X201000Y178000D02*
D03*
D44*
X231000D02*
D03*
D45*
X574000Y146500D02*
D03*
X263500Y360000D02*
D03*
X312500Y319000D02*
D03*
X309500D02*
D03*
X319000Y316000D02*
D03*
Y319000D02*
D03*
Y322000D02*
D03*
X316000D02*
D03*
X313000D02*
D03*
X316000Y319000D02*
D03*
Y316000D02*
D03*
X313000D02*
D03*
X310000D02*
D03*
X307000D02*
D03*
X257500Y360000D02*
D03*
X260500D02*
D03*
X266500D02*
D03*
X257500Y357000D02*
D03*
X260500D02*
D03*
X263500D02*
D03*
X266500D02*
D03*
X257500Y354000D02*
D03*
X260500D02*
D03*
X263500D02*
D03*
X266500D02*
D03*
X642000Y176500D02*
D03*
Y180500D02*
D03*
Y190500D02*
D03*
Y195000D02*
D03*
X695000Y319000D02*
D03*
X703500D02*
D03*
X735500Y307000D02*
D03*
Y331500D02*
D03*
X745000Y320000D02*
D03*
X739500D02*
D03*
X734500D02*
D03*
X729500D02*
D03*
X724500D02*
D03*
X754500Y185000D02*
D03*
Y181500D02*
D03*
X758000D02*
D03*
Y178000D02*
D03*
X754500D02*
D03*
X758000Y185000D02*
D03*
X642000D02*
D03*
X585000Y210000D02*
D03*
Y206500D02*
D03*
Y203000D02*
D03*
Y199500D02*
D03*
Y192500D02*
D03*
Y189000D02*
D03*
Y185500D02*
D03*
Y196000D02*
D03*
X593500Y149500D02*
D03*
X591000Y153000D02*
D03*
X587500Y156500D02*
D03*
X584000Y159500D02*
D03*
X569500Y146500D02*
D03*
X576500Y136000D02*
D03*
X563500Y143500D02*
D03*
X554500Y204500D02*
D03*
Y197500D02*
D03*
Y201000D02*
D03*
X545000Y159000D02*
D03*
X593500Y113500D02*
D03*
X588500D02*
D03*
X562500Y115500D02*
D03*
X557500D02*
D03*
X495000Y105000D02*
D03*
X480500D02*
D03*
X495000Y112500D02*
D03*
X488000D02*
D03*
X480500D02*
D03*
X517500Y109000D02*
D03*
X528500Y195500D02*
D03*
X583000Y171000D02*
D03*
X587000Y139000D02*
D03*
X563000Y155000D02*
D03*
X563200Y139000D02*
D03*
X540800Y142500D02*
D03*
X540525Y135098D02*
D03*
X557000Y163000D02*
D03*
X528500Y141500D02*
D03*
D46*
X275278Y355748D02*
D03*
X737000Y150000D02*
D03*
X780500Y229000D02*
D03*
X734729Y201384D02*
D03*
X700000Y173000D02*
D03*
X419000Y163000D02*
D03*
X330000Y330500D02*
D03*
X273500Y188000D02*
D03*
X144500Y248000D02*
D03*
D47*
X122181Y361819D02*
X125363Y365000D01*
X152000Y228000D02*
Y229181D01*
X584000Y159500D02*
X587000Y156500D01*
X587500D01*
X732898Y229225D02*
Y232398D01*
X731500Y233796D02*
Y247500D01*
X732898Y229225D02*
X746000Y216123D01*
X731500Y233796D02*
X732898Y232398D01*
X746000Y159000D02*
Y216123D01*
X737000Y150000D02*
X746000Y159000D01*
X726500Y244843D02*
Y247500D01*
X683000Y105500D02*
X740000Y162500D01*
Y217881D01*
X513500Y105500D02*
X683000D01*
X738026Y219854D02*
X740000Y217881D01*
X563200Y139000D02*
X563308D01*
X563508Y139200D01*
X580933D01*
X581133Y139000D01*
X587000D01*
X734949Y214780D02*
X735169Y215000D01*
X734729Y201384D02*
X734949Y201604D01*
X640000Y134000D02*
X643606Y137606D01*
X650669D02*
X651063Y138000D01*
X615500Y109500D02*
X640000Y134000D01*
X643606Y137606D02*
X650669D01*
X615500Y109000D02*
X680500D01*
X517500D02*
X615500D01*
Y109500D01*
X509000Y115000D02*
Y127073D01*
X515000Y109000D02*
X517500D01*
X509000Y115000D02*
X515000Y109000D01*
X504500Y114500D02*
X513500Y105500D01*
X504500Y114500D02*
Y132500D01*
X680500Y109000D02*
X700000Y128500D01*
Y173000D01*
X509000Y127073D02*
X510172Y128244D01*
X513638D01*
X515000Y129606D01*
Y130000D01*
X504500Y132500D02*
X510244Y138244D01*
X737730Y219854D02*
X738026D01*
X728585Y229000D02*
X737730Y219854D01*
X510244Y138244D02*
X513764D01*
X515126Y139606D01*
Y140000D01*
X640000Y114000D02*
Y124000D01*
X528500Y195500D02*
X542063D01*
X528500Y141500D02*
Y195500D01*
X640000Y124000D02*
X640250Y124250D01*
X667750D01*
X668000Y124500D01*
X666914Y125586D02*
X668000Y124500D01*
X666914Y125586D02*
Y129630D01*
X658937Y137606D02*
X666914Y129630D01*
X658937Y137606D02*
Y138000D01*
Y144063D01*
X657000Y146000D02*
X658937Y144063D01*
X619500Y146000D02*
X657000D01*
X585500Y180000D02*
X619500Y146000D01*
X555437Y180000D02*
X585500D01*
X551693Y183744D02*
X555437Y180000D01*
X551299Y183744D02*
X551693D01*
X549937Y185106D02*
X551299Y183744D01*
X549937Y185106D02*
Y185500D01*
X583000Y171000D02*
X586596Y167404D01*
Y167242D02*
Y167404D01*
Y167242D02*
X600624Y153213D01*
X600624D01*
X617835Y136003D01*
Y118835D02*
Y136003D01*
X567626Y166606D02*
Y167394D01*
X569776Y165244D02*
X571138Y163882D01*
Y163706D02*
Y163882D01*
Y163706D02*
X600844Y134000D01*
X568988Y165244D02*
X569776D01*
X600844Y134000D02*
X613000D01*
X567626Y166606D02*
X568988Y165244D01*
X613000Y124000D02*
Y134000D01*
Y114000D02*
X617835Y118835D01*
X567626Y166606D02*
Y167394D01*
X542063Y185500D02*
Y195500D01*
X563000Y161980D02*
X567626Y166606D01*
X563000Y155000D02*
Y161980D01*
X559800Y137800D02*
Y160200D01*
X557077Y162924D02*
X559800Y160200D01*
X557429Y135429D02*
X559800Y137800D01*
X554627Y152958D02*
X554669Y153000D01*
X554627Y143042D02*
Y152958D01*
X554585Y143000D02*
X554627Y143042D01*
X540900Y142400D02*
Y142492D01*
X540985Y142577D01*
X545992D01*
X536800Y138300D02*
X538214Y139714D01*
Y139806D01*
X540800Y142392D01*
X545992Y142577D02*
X546458Y143042D01*
X540800Y142392D02*
Y142500D01*
X522937Y130063D02*
Y139937D01*
X540525Y135098D02*
X540544Y135079D01*
Y129519D02*
Y135079D01*
Y129519D02*
X540563Y129500D01*
X524362Y138300D02*
X536800D01*
X553972Y135429D02*
X557429D01*
X548437Y129894D02*
X553972Y135429D01*
X548437Y129500D02*
Y129894D01*
X546458Y143042D02*
Y152958D01*
X546500Y153000D01*
X522937Y139937D02*
X523000Y140000D01*
Y139662D02*
X524362Y138300D01*
X522874Y130000D02*
X522937Y130063D01*
X542063Y185106D02*
Y185500D01*
X150000Y228000D02*
X152000D01*
X120000Y364000D02*
X122181Y361819D01*
X147984Y336268D02*
X150000D01*
X145717Y334000D02*
X147984Y336268D01*
X144398Y296614D02*
Y297500D01*
X142783Y295000D02*
X144398Y296614D01*
X201000Y178000D02*
X201500Y178500D01*
X156904Y254199D02*
X157102Y254000D01*
X156705Y269500D02*
X156904Y269301D01*
X144449Y269551D02*
X144500Y269500D01*
X144398Y283500D02*
X144449Y283449D01*
D48*
X258144Y356000D02*
X335889D01*
X341212Y361323D01*
X457500Y372000D02*
X458000Y372500D01*
X457500Y346055D02*
Y372000D01*
X458000Y372500D02*
X486047D01*
X489945Y376398D01*
X444000Y331500D02*
X486386D01*
X489945Y335059D01*
X457500Y287000D02*
Y302614D01*
X486386Y331500D01*
X341212Y361323D02*
X414177D01*
X433000Y342500D01*
X444000Y331500D01*
D50*
X307000Y320323D02*
X315177D01*
X319116Y318500D02*
X452616Y185000D01*
X317000Y318500D02*
X319116D01*
X315177Y320323D02*
X317000Y318500D01*
X180677Y320323D02*
X307000D01*
X452616Y185000D02*
X459000D01*
X713500Y332315D02*
X757500D01*
X678592Y264908D02*
X686500Y272815D01*
X669620Y253572D02*
Y255935D01*
X686500Y272815D02*
Y281000D01*
X669024Y252976D02*
X669620Y253572D01*
X686500Y281000D02*
X713000Y307500D01*
X669620Y255935D02*
X678592Y264908D01*
X682391Y361096D02*
X695295Y374000D01*
X678643Y361096D02*
X682391D01*
X678047Y360500D02*
X678643Y361096D01*
X695295Y374000D02*
X697252D01*
X713000D02*
X713494D01*
X713500Y373994D01*
Y352000D02*
Y373994D01*
X758000Y351500D02*
X776500D01*
X799500Y328500D01*
X714000Y351500D02*
X758000D01*
X713500Y352000D02*
X714000Y351500D01*
X799500Y308500D02*
Y328500D01*
X757500Y332315D02*
X758000Y331815D01*
X713000D02*
X713500Y332315D01*
X713000Y307500D02*
Y331815D01*
X799500Y304000D02*
Y308500D01*
X783815Y288315D02*
X799500Y304000D01*
X758000Y288315D02*
X783815D01*
X713000Y287815D02*
X757500D01*
Y307500D02*
X758000Y308000D01*
X713000Y307500D02*
X757500D01*
X173000Y233412D02*
Y312647D01*
X151500Y226500D02*
X166088D01*
X173000Y233412D01*
X150000Y228000D02*
X151500Y226500D01*
X173000Y312647D02*
X180677Y320323D01*
X114000Y238500D02*
X122000D01*
X148000Y226000D02*
X150000Y228000D01*
X134500Y226000D02*
X148000D01*
X122000Y238500D02*
X134500Y226000D01*
X114000Y218500D02*
Y238500D01*
X114500Y295000D02*
Y315000D01*
X121412Y334000D02*
X147732D01*
X114500Y315000D02*
Y327088D01*
X147732Y334000D02*
X150000Y336268D01*
X114500Y327088D02*
X121412Y334000D01*
D51*
X125363Y365500D02*
X135500D01*
X120000D02*
X125363D01*
X734157Y260000D02*
X736500Y262343D01*
X683500Y260000D02*
X734157D01*
X678592Y264908D02*
X683500Y260000D01*
X736500Y262343D02*
Y266988D01*
X410000Y330898D02*
X421398D01*
X433000Y342500D01*
X457500Y267500D02*
Y287000D01*
X668811Y184500D02*
X669811Y185500D01*
X726687Y213187D02*
Y214687D01*
X705366Y191866D02*
X726687Y213187D01*
X701571Y191866D02*
X705366D01*
X726687Y214687D02*
X727000Y215000D01*
X701209Y191504D02*
X701571Y191866D01*
X736500Y242770D02*
Y247500D01*
Y242770D02*
X740915Y238354D01*
Y229500D02*
Y238354D01*
X606118Y294618D02*
Y294672D01*
X608055Y296609D02*
Y297657D01*
X571500Y222020D02*
Y260000D01*
X606118Y294672D02*
X608055Y296609D01*
X571500Y260000D02*
X606118Y294618D01*
X570000Y220500D02*
Y220520D01*
X571500Y222020D01*
X720125Y241125D02*
X725171Y246171D01*
X720415Y220585D02*
Y229000D01*
Y220585D02*
X725146Y215854D01*
X726687D01*
X676405Y191504D02*
X701209D01*
X741500Y246480D02*
Y247500D01*
Y246480D02*
X749085Y238896D01*
Y229500D02*
Y238896D01*
Y229313D02*
X749398Y229000D01*
X780500D01*
X796000Y213500D01*
Y202000D02*
Y213500D01*
X785000Y191000D02*
X796000Y202000D01*
X783464Y191000D02*
X785000D01*
X779464Y195000D02*
X783464Y191000D01*
X771500Y195000D02*
X779464D01*
X771500Y203169D02*
X771813Y203482D01*
X777797D01*
X785000Y210685D01*
X734949Y201604D02*
Y214780D01*
X715873Y182528D02*
X734729Y201384D01*
X701209Y182528D02*
X715873D01*
X701209Y200480D02*
Y229709D01*
X712625Y241125D01*
X725171Y246171D02*
X726500Y247500D01*
X712625Y241125D02*
X720125D01*
X726500Y233139D02*
Y244843D01*
Y233139D02*
X728272Y231367D01*
Y229313D02*
Y231367D01*
Y229313D02*
X728585Y229000D01*
X700000Y173000D02*
Y181319D01*
X515500Y220500D02*
X540472D01*
X480000Y185000D02*
X515500Y220500D01*
X459000Y185000D02*
X480000D01*
X152000Y229181D02*
X156043Y233224D01*
Y237892D01*
X156652Y238500D01*
X399000Y343102D02*
X410000D01*
X388000Y330898D02*
X399000D01*
X377000Y343102D02*
X388000D01*
X373500Y206500D02*
Y222000D01*
Y206500D02*
X416809Y163191D01*
X418809D01*
X419000Y163000D01*
X376602Y330500D02*
X377000Y330898D01*
X330000Y330500D02*
X376602D01*
X341000Y220423D02*
X355000Y206423D01*
Y133000D02*
X373500Y114500D01*
X355000Y133000D02*
Y206423D01*
X135500Y365500D02*
X180677Y320323D01*
X117000Y368500D02*
X120000Y365500D01*
X115500Y368500D02*
X117000D01*
X341000Y220423D02*
Y222000D01*
X272661Y219661D02*
X283850Y230850D01*
X260146Y218500D02*
X261307Y219661D01*
X272661D01*
X283850Y230850D02*
Y232685D01*
X287165Y236000D02*
X290709D01*
X283850Y232685D02*
X287165Y236000D01*
X263500Y178000D02*
X273500Y188000D01*
X231000Y178000D02*
X263500D01*
X114500Y295000D02*
X116012Y296512D01*
X119764Y297500D02*
X144398D01*
X116012Y296512D02*
X118776D01*
X119764Y297500D01*
X222850Y232685D02*
X226165Y236000D01*
X229709D01*
X211585Y220585D02*
X222850Y231850D01*
X201376Y220585D02*
X211585D01*
X222850Y231850D02*
Y232685D01*
X199291Y218500D02*
X201376Y220585D01*
X201500Y178500D02*
Y197000D01*
X144424Y247924D02*
X144500Y248000D01*
X144424Y238576D02*
Y247924D01*
X144500Y253602D02*
X144898Y254000D01*
X144348Y238500D02*
X144424Y238576D01*
X144500Y249000D02*
Y253602D01*
X156904Y254199D02*
Y269301D01*
X144449Y269551D02*
Y283449D01*
X156602Y283500D02*
Y297500D01*
D52*
X728462Y275727D02*
X794114D01*
X725419Y270000D02*
Y272683D01*
X728462Y275727D01*
X799341Y270500D02*
X799500D01*
X794114Y275727D02*
X799341Y270500D01*
X799500Y250500D02*
Y270500D01*
D53*
X736500Y266988D02*
D03*
X741500Y247500D02*
D03*
X726500D02*
D03*
Y266988D02*
D03*
X731500D02*
D03*
X741500D02*
D03*
X736500Y247500D02*
D03*
X731500D02*
D03*
D54*
X683000Y197508D02*
D03*
Y185500D02*
D03*
X669811D02*
D03*
Y197508D02*
D03*
D55*
X701209Y191504D02*
D03*
Y200480D02*
D03*
Y182528D02*
D03*
D56*
X676405Y191504D02*
D03*
D57*
X156652Y238500D02*
D03*
X144348D02*
D03*
M02*
