G04*
G04 #@! TF.GenerationSoftware,Altium Limited,Altium Designer,26.6.0 (10)*
G04*
G04 Layer_Color=16711935*
G04 Board_Origin=0|0*
%FSLAX25Y25*%
%MOIN*%
G70*
G04*
G04 #@! TF.SameCoordinates,8E7C0F2F-DEA9-465B-9AF9-77FAD4C454B9*
G04*
G04*
G04 #@! TF.FilePolarity,Negative*
G04*
G01*
G75*
G04:AMPARAMS|DCode=14|XSize=47.24mil|YSize=55.12mil|CornerRadius=4.96mil|HoleSize=0mil|Usage=FLASHONLY|Rotation=180.000|XOffset=0mil|YOffset=0mil|HoleType=Round|Shape=RoundedRectangle|*
%AMROUNDEDRECTD14*
21,1,0.04724,0.04520,0,0,180.0*
21,1,0.03732,0.05512,0,0,180.0*
1,1,0.00992,-0.01866,0.02260*
1,1,0.00992,0.01866,0.02260*
1,1,0.00992,0.01866,-0.02260*
1,1,0.00992,-0.01866,-0.02260*
%
%ADD14ROUNDEDRECTD14*%
G04:AMPARAMS|DCode=15|XSize=51.18mil|YSize=68.9mil|CornerRadius=4.86mil|HoleSize=0mil|Usage=FLASHONLY|Rotation=90.000|XOffset=0mil|YOffset=0mil|HoleType=Round|Shape=RoundedRectangle|*
%AMROUNDEDRECTD15*
21,1,0.05118,0.05917,0,0,90.0*
21,1,0.04146,0.06890,0,0,90.0*
1,1,0.00972,0.02959,0.02073*
1,1,0.00972,0.02959,-0.02073*
1,1,0.00972,-0.02959,-0.02073*
1,1,0.00972,-0.02959,0.02073*
%
%ADD15ROUNDEDRECTD15*%
G04:AMPARAMS|DCode=17|XSize=46.26mil|YSize=57.09mil|CornerRadius=4.86mil|HoleSize=0mil|Usage=FLASHONLY|Rotation=90.000|XOffset=0mil|YOffset=0mil|HoleType=Round|Shape=RoundedRectangle|*
%AMROUNDEDRECTD17*
21,1,0.04626,0.04737,0,0,90.0*
21,1,0.03655,0.05709,0,0,90.0*
1,1,0.00972,0.02369,0.01827*
1,1,0.00972,0.02369,-0.01827*
1,1,0.00972,-0.02369,-0.01827*
1,1,0.00972,-0.02369,0.01827*
%
%ADD17ROUNDEDRECTD17*%
G04:AMPARAMS|DCode=19|XSize=46.26mil|YSize=57.09mil|CornerRadius=4.86mil|HoleSize=0mil|Usage=FLASHONLY|Rotation=0.000|XOffset=0mil|YOffset=0mil|HoleType=Round|Shape=RoundedRectangle|*
%AMROUNDEDRECTD19*
21,1,0.04626,0.04737,0,0,0.0*
21,1,0.03655,0.05709,0,0,0.0*
1,1,0.00972,0.01827,-0.02369*
1,1,0.00972,-0.01827,-0.02369*
1,1,0.00972,-0.01827,0.02369*
1,1,0.00972,0.01827,0.02369*
%
%ADD19ROUNDEDRECTD19*%
G04:AMPARAMS|DCode=23|XSize=51.18mil|YSize=68.9mil|CornerRadius=4.86mil|HoleSize=0mil|Usage=FLASHONLY|Rotation=0.000|XOffset=0mil|YOffset=0mil|HoleType=Round|Shape=RoundedRectangle|*
%AMROUNDEDRECTD23*
21,1,0.05118,0.05917,0,0,0.0*
21,1,0.04146,0.06890,0,0,0.0*
1,1,0.00972,0.02073,-0.02959*
1,1,0.00972,-0.02073,-0.02959*
1,1,0.00972,-0.02073,0.02959*
1,1,0.00972,0.02073,0.02959*
%
%ADD23ROUNDEDRECTD23*%
%ADD26R,0.07874X0.11811*%
%ADD28C,0.07874*%
G04:AMPARAMS|DCode=29|XSize=177.17mil|YSize=129.92mil|CornerRadius=5.2mil|HoleSize=0mil|Usage=FLASHONLY|Rotation=270.000|XOffset=0mil|YOffset=0mil|HoleType=Round|Shape=RoundedRectangle|*
%AMROUNDEDRECTD29*
21,1,0.17717,0.11953,0,0,270.0*
21,1,0.16677,0.12992,0,0,270.0*
1,1,0.01039,-0.05976,-0.08339*
1,1,0.01039,-0.05976,0.08339*
1,1,0.01039,0.05976,0.08339*
1,1,0.01039,0.05976,-0.08339*
%
%ADD29ROUNDEDRECTD29*%
G04:AMPARAMS|DCode=30|XSize=177.17mil|YSize=129.92mil|CornerRadius=5.2mil|HoleSize=0mil|Usage=FLASHONLY|Rotation=0.000|XOffset=0mil|YOffset=0mil|HoleType=Round|Shape=RoundedRectangle|*
%AMROUNDEDRECTD30*
21,1,0.17717,0.11953,0,0,0.0*
21,1,0.16677,0.12992,0,0,0.0*
1,1,0.01039,0.08339,-0.05976*
1,1,0.01039,-0.08339,-0.05976*
1,1,0.01039,-0.08339,0.05976*
1,1,0.01039,0.08339,0.05976*
%
%ADD30ROUNDEDRECTD30*%
%ADD31C,0.09449*%
%ADD32C,0.06299*%
%ADD33R,0.08661X0.08661*%
G04:AMPARAMS|DCode=34|XSize=177.17mil|YSize=106.3mil|CornerRadius=4.78mil|HoleSize=0mil|Usage=FLASHONLY|Rotation=180.000|XOffset=0mil|YOffset=0mil|HoleType=Round|Shape=RoundedRectangle|*
%AMROUNDEDRECTD34*
21,1,0.17717,0.09673,0,0,180.0*
21,1,0.16760,0.10630,0,0,180.0*
1,1,0.00957,-0.08380,0.04837*
1,1,0.00957,0.08380,0.04837*
1,1,0.00957,0.08380,-0.04837*
1,1,0.00957,-0.08380,-0.04837*
%
%ADD34ROUNDEDRECTD34*%
%ADD35C,0.03150*%
%ADD36C,0.25197*%
%ADD37C,0.07677*%
%ADD38C,0.05669*%
%ADD39C,0.11811*%
G04:AMPARAMS|DCode=40|XSize=106.3mil|YSize=98.43mil|CornerRadius=49.21mil|HoleSize=0mil|Usage=FLASHONLY|Rotation=90.000|XOffset=0mil|YOffset=0mil|HoleType=Round|Shape=RoundedRectangle|*
%AMROUNDEDRECTD40*
21,1,0.10630,0.00000,0,0,90.0*
21,1,0.00787,0.09843,0,0,90.0*
1,1,0.09843,0.00000,0.00394*
1,1,0.09843,0.00000,-0.00394*
1,1,0.09843,0.00000,-0.00394*
1,1,0.09843,0.00000,0.00394*
%
%ADD40ROUNDEDRECTD40*%
%ADD41R,0.07874X0.07874*%
G04:AMPARAMS|DCode=42|XSize=86.61mil|YSize=86.61mil|CornerRadius=43.31mil|HoleSize=0mil|Usage=FLASHONLY|Rotation=180.000|XOffset=0mil|YOffset=0mil|HoleType=Round|Shape=RoundedRectangle|*
%AMROUNDEDRECTD42*
21,1,0.08661,0.00000,0,0,180.0*
21,1,0.00000,0.08661,0,0,180.0*
1,1,0.08661,0.00000,0.00000*
1,1,0.08661,0.00000,0.00000*
1,1,0.08661,0.00000,0.00000*
1,1,0.08661,0.00000,0.00000*
%
%ADD42ROUNDEDRECTD42*%
%ADD43R,0.06299X0.06299*%
G04:AMPARAMS|DCode=44|XSize=62.99mil|YSize=62.99mil|CornerRadius=31.5mil|HoleSize=0mil|Usage=FLASHONLY|Rotation=0.000|XOffset=0mil|YOffset=0mil|HoleType=Round|Shape=RoundedRectangle|*
%AMROUNDEDRECTD44*
21,1,0.06299,0.00000,0,0,0.0*
21,1,0.00000,0.06299,0,0,0.0*
1,1,0.06299,0.00000,0.00000*
1,1,0.06299,0.00000,0.00000*
1,1,0.06299,0.00000,0.00000*
1,1,0.06299,0.00000,0.00000*
%
%ADD44ROUNDEDRECTD44*%
%ADD45C,0.02400*%
%ADD46C,0.05000*%
G04:AMPARAMS|DCode=53|XSize=76.77mil|YSize=23.62mil|CornerRadius=2.95mil|HoleSize=0mil|Usage=FLASHONLY|Rotation=270.000|XOffset=0mil|YOffset=0mil|HoleType=Round|Shape=RoundedRectangle|*
%AMROUNDEDRECTD53*
21,1,0.07677,0.01772,0,0,270.0*
21,1,0.07087,0.02362,0,0,270.0*
1,1,0.00591,-0.00886,-0.03543*
1,1,0.00591,-0.00886,0.03543*
1,1,0.00591,0.00886,0.03543*
1,1,0.00591,0.00886,-0.03543*
%
%ADD53ROUNDEDRECTD53*%
G04:AMPARAMS|DCode=55|XSize=86.61mil|YSize=47.24mil|CornerRadius=4.96mil|HoleSize=0mil|Usage=FLASHONLY|Rotation=180.000|XOffset=0mil|YOffset=0mil|HoleType=Round|Shape=RoundedRectangle|*
%AMROUNDEDRECTD55*
21,1,0.08661,0.03732,0,0,180.0*
21,1,0.07669,0.04724,0,0,180.0*
1,1,0.00992,-0.03835,0.01866*
1,1,0.00992,0.03835,0.01866*
1,1,0.00992,0.03835,-0.01866*
1,1,0.00992,-0.03835,-0.01866*
%
%ADD55ROUNDEDRECTD55*%
G04:AMPARAMS|DCode=56|XSize=251.97mil|YSize=228.35mil|CornerRadius=4.57mil|HoleSize=0mil|Usage=FLASHONLY|Rotation=180.000|XOffset=0mil|YOffset=0mil|HoleType=Round|Shape=RoundedRectangle|*
%AMROUNDEDRECTD56*
21,1,0.25197,0.21921,0,0,180.0*
21,1,0.24284,0.22835,0,0,180.0*
1,1,0.00913,-0.12142,0.10961*
1,1,0.00913,0.12142,0.10961*
1,1,0.00913,0.12142,-0.10961*
1,1,0.00913,-0.12142,-0.10961*
%
%ADD56ROUNDEDRECTD56*%
G04:AMPARAMS|DCode=57|XSize=52.17mil|YSize=70.87mil|CornerRadius=4.96mil|HoleSize=0mil|Usage=FLASHONLY|Rotation=0.000|XOffset=0mil|YOffset=0mil|HoleType=Round|Shape=RoundedRectangle|*
%AMROUNDEDRECTD57*
21,1,0.05217,0.06096,0,0,0.0*
21,1,0.04225,0.07087,0,0,0.0*
1,1,0.00991,0.02113,-0.03048*
1,1,0.00991,-0.02113,-0.03048*
1,1,0.00991,-0.02113,0.03048*
1,1,0.00991,0.02113,0.03048*
%
%ADD57ROUNDEDRECTD57*%
D14*
X549937Y195500D02*
D03*
X575500Y167000D02*
D03*
X523000Y140000D02*
D03*
X522874Y130000D02*
D03*
X540563Y129500D02*
D03*
X542063Y185500D02*
D03*
Y195500D02*
D03*
X567626Y167000D02*
D03*
X515126Y140000D02*
D03*
X548437Y129500D02*
D03*
X515000Y130000D02*
D03*
X658937Y138000D02*
D03*
X651063D02*
D03*
X549937Y185500D02*
D03*
D15*
X410000Y330898D02*
D03*
X377000D02*
D03*
X388000Y343102D02*
D03*
Y330898D02*
D03*
X410000Y343102D02*
D03*
X377000D02*
D03*
X399000Y330898D02*
D03*
Y343102D02*
D03*
D17*
X771500Y195000D02*
D03*
Y203169D02*
D03*
D19*
X749085Y229500D02*
D03*
X720415Y229000D02*
D03*
X727000Y215000D02*
D03*
X554669Y153000D02*
D03*
X554585Y143000D02*
D03*
X546415D02*
D03*
X546500Y153000D02*
D03*
X728585Y229000D02*
D03*
X735169Y215000D02*
D03*
X740915Y229500D02*
D03*
D23*
X144398Y297500D02*
D03*
X157102Y257000D02*
D03*
X144898D02*
D03*
X144500Y269500D02*
D03*
X156705D02*
D03*
X156602Y297500D02*
D03*
Y283500D02*
D03*
X144398D02*
D03*
D26*
X697252Y374000D02*
D03*
X713000D02*
D03*
D28*
X608055Y376398D02*
D03*
Y356713D02*
D03*
Y337028D02*
D03*
Y277972D02*
D03*
Y258287D02*
D03*
X489945Y238602D02*
D03*
Y258287D02*
D03*
Y277972D02*
D03*
Y297657D02*
D03*
Y317342D02*
D03*
Y335059D02*
D03*
Y356713D02*
D03*
Y376398D02*
D03*
X608055Y238602D02*
D03*
Y317342D02*
D03*
Y297657D02*
D03*
X458000Y372500D02*
D03*
X238000Y260000D02*
D03*
X457500Y267500D02*
D03*
X758000Y308000D02*
D03*
Y331815D02*
D03*
X713500Y332315D02*
D03*
X713000Y307500D02*
D03*
X744500Y140500D02*
D03*
X570000Y220500D02*
D03*
X312000Y279500D02*
D03*
X540472Y220500D02*
D03*
X128000Y144000D02*
D03*
X189000Y339000D02*
D03*
Y299500D02*
D03*
X314000Y336500D02*
D03*
X259000Y305000D02*
D03*
D29*
X669024Y297071D02*
D03*
X639000Y297047D02*
D03*
Y252953D02*
D03*
X669024Y252976D02*
D03*
D30*
X633953Y360500D02*
D03*
X634453Y330500D02*
D03*
X678047Y360500D02*
D03*
X678547Y330500D02*
D03*
D31*
X457500Y346055D02*
D03*
Y287000D02*
D03*
X459000Y185000D02*
D03*
X150000Y228000D02*
D03*
X435000Y185000D02*
D03*
X410500Y184500D02*
D03*
X150000Y336268D02*
D03*
X410500Y243555D02*
D03*
X435000Y244055D02*
D03*
X459000D02*
D03*
D32*
X345209Y371358D02*
D03*
Y351673D02*
D03*
X433791Y292618D02*
D03*
D33*
X231500Y197000D02*
D03*
D34*
X230000Y218500D02*
D03*
X290854D02*
D03*
X199000Y236000D02*
D03*
X260000D02*
D03*
X290709D02*
D03*
X260146Y218500D02*
D03*
X229709Y236000D02*
D03*
X199291Y218500D02*
D03*
D35*
X801181Y374681D02*
D03*
X794500Y377449D02*
D03*
X803949Y368000D02*
D03*
X801181Y361319D02*
D03*
X787819Y374681D02*
D03*
X785051Y368000D02*
D03*
X787819Y361319D02*
D03*
X794500Y358551D02*
D03*
X803449Y116500D02*
D03*
X800681Y123181D02*
D03*
Y109819D02*
D03*
X794000Y107051D02*
D03*
Y125949D02*
D03*
X787319Y123181D02*
D03*
Y109819D02*
D03*
X784551Y116500D02*
D03*
X124949Y368500D02*
D03*
X122181Y361819D02*
D03*
Y375181D02*
D03*
X115500Y377949D02*
D03*
X108819Y375181D02*
D03*
X115500Y359051D02*
D03*
X106051Y368500D02*
D03*
X108819Y361819D02*
D03*
X125130Y115681D02*
D03*
X122363Y122363D02*
D03*
Y109000D02*
D03*
X115681Y125130D02*
D03*
X109000Y122363D02*
D03*
X115681Y106233D02*
D03*
X106233Y115681D02*
D03*
X109000Y109000D02*
D03*
D36*
X794500Y368000D02*
D03*
X794000Y116500D02*
D03*
X115500Y368500D02*
D03*
X115681Y115681D02*
D03*
D37*
X785000Y191000D02*
D03*
X687685Y124500D02*
D03*
X785000Y210685D02*
D03*
X668000Y124500D02*
D03*
D38*
X613000Y124000D02*
D03*
Y134000D02*
D03*
X640000D02*
D03*
Y124000D02*
D03*
Y114000D02*
D03*
X613000D02*
D03*
D39*
X373500Y222000D02*
D03*
X341000D02*
D03*
X373500Y114500D02*
D03*
X341000D02*
D03*
X313500Y157000D02*
D03*
Y179500D02*
D03*
X328500D02*
D03*
X386000Y157000D02*
D03*
Y179500D02*
D03*
X328500Y157000D02*
D03*
D40*
X114000Y238500D02*
D03*
Y218500D02*
D03*
X114500Y315000D02*
D03*
Y295000D02*
D03*
X799500Y328500D02*
D03*
Y308500D02*
D03*
Y270500D02*
D03*
Y250500D02*
D03*
D41*
X713500Y352000D02*
D03*
X758000Y351500D02*
D03*
Y288315D02*
D03*
X713000Y287815D02*
D03*
D42*
X201500Y197000D02*
D03*
D43*
X201000Y178000D02*
D03*
D44*
X231000D02*
D03*
D45*
X574000Y146500D02*
D03*
X263500Y360000D02*
D03*
X312500Y319000D02*
D03*
X309500D02*
D03*
X319000Y316000D02*
D03*
Y319000D02*
D03*
Y322000D02*
D03*
X316000D02*
D03*
X313000D02*
D03*
X316000Y319000D02*
D03*
Y316000D02*
D03*
X313000D02*
D03*
X310000D02*
D03*
X307000D02*
D03*
X257500Y360000D02*
D03*
X260500D02*
D03*
X266500D02*
D03*
X257500Y357000D02*
D03*
X260500D02*
D03*
X263500D02*
D03*
X266500D02*
D03*
X257500Y354000D02*
D03*
X260500D02*
D03*
X263500D02*
D03*
X266500D02*
D03*
X642000Y176500D02*
D03*
Y180500D02*
D03*
Y190500D02*
D03*
Y195000D02*
D03*
X695000Y319000D02*
D03*
X703500D02*
D03*
X735500Y307000D02*
D03*
Y331500D02*
D03*
X745000Y320000D02*
D03*
X739500D02*
D03*
X734500D02*
D03*
X729500D02*
D03*
X724500D02*
D03*
X754500Y185000D02*
D03*
Y181500D02*
D03*
X758000D02*
D03*
Y178000D02*
D03*
X754500D02*
D03*
X758000Y185000D02*
D03*
X642000D02*
D03*
X585000Y210000D02*
D03*
Y206500D02*
D03*
Y203000D02*
D03*
Y199500D02*
D03*
Y192500D02*
D03*
Y189000D02*
D03*
Y185500D02*
D03*
Y196000D02*
D03*
X593500Y149500D02*
D03*
X591000Y153000D02*
D03*
X587500Y156500D02*
D03*
X584000Y159500D02*
D03*
X569500Y146500D02*
D03*
X576500Y136000D02*
D03*
X563500Y143500D02*
D03*
X554500Y204500D02*
D03*
Y197500D02*
D03*
Y201000D02*
D03*
X545000Y159000D02*
D03*
X593500Y113500D02*
D03*
X588500D02*
D03*
X562500Y115500D02*
D03*
X557500D02*
D03*
X495000Y105000D02*
D03*
X480500D02*
D03*
X495000Y112500D02*
D03*
X488000D02*
D03*
X480500D02*
D03*
X517500Y109000D02*
D03*
X528500Y195500D02*
D03*
X583000Y171000D02*
D03*
X587000Y139000D02*
D03*
X563000Y155000D02*
D03*
X563200Y139000D02*
D03*
X540800Y142500D02*
D03*
X540525Y135098D02*
D03*
X557000Y163000D02*
D03*
X528500Y141500D02*
D03*
D46*
X275278Y355748D02*
D03*
X737000Y150000D02*
D03*
X780500Y229000D02*
D03*
X734729Y201384D02*
D03*
X700000Y173000D02*
D03*
X419000Y163000D02*
D03*
X330000Y330500D02*
D03*
X273500Y188000D02*
D03*
X144500Y248000D02*
D03*
D53*
X736500Y266988D02*
D03*
X741500Y247500D02*
D03*
X726500D02*
D03*
Y266988D02*
D03*
X731500D02*
D03*
X741500D02*
D03*
X736500Y247500D02*
D03*
X731500D02*
D03*
D55*
X701209Y191504D02*
D03*
Y200480D02*
D03*
Y182528D02*
D03*
D56*
X676405Y191504D02*
D03*
D57*
X156652Y238500D02*
D03*
X144348D02*
D03*
M02*
