G04*
G04 #@! TF.GenerationSoftware,Altium Limited,Altium Designer,26.6.0 (10)*
G04*
G04 Layer_Color=8421504*
G04 Board_Origin=0|0*
%FSLAX25Y25*%
%MOIN*%
G70*
G04*
G04 #@! TF.SameCoordinates,8E7C0F2F-DEA9-465B-9AF9-77FAD4C454B9*
G04*
G04*
G04 #@! TF.FilePolarity,Positive*
G04*
G01*
G75*
G04:AMPARAMS|DCode=11|XSize=137.8mil|YSize=70.87mil|CornerRadius=4.96mil|HoleSize=0mil|Usage=FLASHONLY|Rotation=180.000|XOffset=0mil|YOffset=0mil|HoleType=Round|Shape=RoundedRectangle|*
%AMROUNDEDRECTD11*
21,1,0.13780,0.06095,0,0,180.0*
21,1,0.12787,0.07087,0,0,180.0*
1,1,0.00992,-0.06394,0.03047*
1,1,0.00992,0.06394,0.03047*
1,1,0.00992,0.06394,-0.03047*
1,1,0.00992,-0.06394,-0.03047*
%
%ADD11ROUNDEDRECTD11*%
G04:AMPARAMS|DCode=12|XSize=86.61mil|YSize=47.24mil|CornerRadius=4.96mil|HoleSize=0mil|Usage=FLASHONLY|Rotation=90.000|XOffset=0mil|YOffset=0mil|HoleType=Round|Shape=RoundedRectangle|*
%AMROUNDEDRECTD12*
21,1,0.08661,0.03732,0,0,90.0*
21,1,0.07669,0.04724,0,0,90.0*
1,1,0.00992,0.01866,0.03835*
1,1,0.00992,0.01866,-0.03835*
1,1,0.00992,-0.01866,-0.03835*
1,1,0.00992,-0.01866,0.03835*
%
%ADD12ROUNDEDRECTD12*%
G04:AMPARAMS|DCode=13|XSize=47.24mil|YSize=55.12mil|CornerRadius=4.96mil|HoleSize=0mil|Usage=FLASHONLY|Rotation=270.000|XOffset=0mil|YOffset=0mil|HoleType=Round|Shape=RoundedRectangle|*
%AMROUNDEDRECTD13*
21,1,0.04724,0.04520,0,0,270.0*
21,1,0.03732,0.05512,0,0,270.0*
1,1,0.00992,-0.02260,-0.01866*
1,1,0.00992,-0.02260,0.01866*
1,1,0.00992,0.02260,0.01866*
1,1,0.00992,0.02260,-0.01866*
%
%ADD13ROUNDEDRECTD13*%
G04:AMPARAMS|DCode=14|XSize=47.24mil|YSize=55.12mil|CornerRadius=4.96mil|HoleSize=0mil|Usage=FLASHONLY|Rotation=180.000|XOffset=0mil|YOffset=0mil|HoleType=Round|Shape=RoundedRectangle|*
%AMROUNDEDRECTD14*
21,1,0.04724,0.04520,0,0,180.0*
21,1,0.03732,0.05512,0,0,180.0*
1,1,0.00992,-0.01866,0.02260*
1,1,0.00992,0.01866,0.02260*
1,1,0.00992,0.01866,-0.02260*
1,1,0.00992,-0.01866,-0.02260*
%
%ADD14ROUNDEDRECTD14*%
G04:AMPARAMS|DCode=15|XSize=51.18mil|YSize=68.9mil|CornerRadius=4.86mil|HoleSize=0mil|Usage=FLASHONLY|Rotation=90.000|XOffset=0mil|YOffset=0mil|HoleType=Round|Shape=RoundedRectangle|*
%AMROUNDEDRECTD15*
21,1,0.05118,0.05917,0,0,90.0*
21,1,0.04146,0.06890,0,0,90.0*
1,1,0.00972,0.02959,0.02073*
1,1,0.00972,0.02959,-0.02073*
1,1,0.00972,-0.02959,-0.02073*
1,1,0.00972,-0.02959,0.02073*
%
%ADD15ROUNDEDRECTD15*%
G04:AMPARAMS|DCode=16|XSize=137.8mil|YSize=62.99mil|CornerRadius=5.04mil|HoleSize=0mil|Usage=FLASHONLY|Rotation=270.000|XOffset=0mil|YOffset=0mil|HoleType=Round|Shape=RoundedRectangle|*
%AMROUNDEDRECTD16*
21,1,0.13780,0.05291,0,0,270.0*
21,1,0.12772,0.06299,0,0,270.0*
1,1,0.01008,-0.02646,-0.06386*
1,1,0.01008,-0.02646,0.06386*
1,1,0.01008,0.02646,0.06386*
1,1,0.01008,0.02646,-0.06386*
%
%ADD16ROUNDEDRECTD16*%
G04:AMPARAMS|DCode=17|XSize=46.26mil|YSize=57.09mil|CornerRadius=4.86mil|HoleSize=0mil|Usage=FLASHONLY|Rotation=90.000|XOffset=0mil|YOffset=0mil|HoleType=Round|Shape=RoundedRectangle|*
%AMROUNDEDRECTD17*
21,1,0.04626,0.04737,0,0,90.0*
21,1,0.03655,0.05709,0,0,90.0*
1,1,0.00972,0.02369,0.01827*
1,1,0.00972,0.02369,-0.01827*
1,1,0.00972,-0.02369,-0.01827*
1,1,0.00972,-0.02369,0.01827*
%
%ADD17ROUNDEDRECTD17*%
G04:AMPARAMS|DCode=18|XSize=137.8mil|YSize=70.87mil|CornerRadius=4.96mil|HoleSize=0mil|Usage=FLASHONLY|Rotation=270.000|XOffset=0mil|YOffset=0mil|HoleType=Round|Shape=RoundedRectangle|*
%AMROUNDEDRECTD18*
21,1,0.13780,0.06095,0,0,270.0*
21,1,0.12787,0.07087,0,0,270.0*
1,1,0.00992,-0.03047,-0.06394*
1,1,0.00992,-0.03047,0.06394*
1,1,0.00992,0.03047,0.06394*
1,1,0.00992,0.03047,-0.06394*
%
%ADD18ROUNDEDRECTD18*%
G04:AMPARAMS|DCode=19|XSize=46.26mil|YSize=57.09mil|CornerRadius=4.86mil|HoleSize=0mil|Usage=FLASHONLY|Rotation=0.000|XOffset=0mil|YOffset=0mil|HoleType=Round|Shape=RoundedRectangle|*
%AMROUNDEDRECTD19*
21,1,0.04626,0.04737,0,0,0.0*
21,1,0.03655,0.05709,0,0,0.0*
1,1,0.00972,0.01827,-0.02369*
1,1,0.00972,-0.01827,-0.02369*
1,1,0.00972,-0.01827,0.02369*
1,1,0.00972,0.01827,0.02369*
%
%ADD19ROUNDEDRECTD19*%
G04:AMPARAMS|DCode=20|XSize=76.77mil|YSize=23.62mil|CornerRadius=2.95mil|HoleSize=0mil|Usage=FLASHONLY|Rotation=0.000|XOffset=0mil|YOffset=0mil|HoleType=Round|Shape=RoundedRectangle|*
%AMROUNDEDRECTD20*
21,1,0.07677,0.01772,0,0,0.0*
21,1,0.07087,0.02362,0,0,0.0*
1,1,0.00591,0.03543,-0.00886*
1,1,0.00591,-0.03543,-0.00886*
1,1,0.00591,-0.03543,0.00886*
1,1,0.00591,0.03543,0.00886*
%
%ADD20ROUNDEDRECTD20*%
G04:AMPARAMS|DCode=21|XSize=58.07mil|YSize=23.62mil|CornerRadius=2.95mil|HoleSize=0mil|Usage=FLASHONLY|Rotation=90.000|XOffset=0mil|YOffset=0mil|HoleType=Round|Shape=RoundedRectangle|*
%AMROUNDEDRECTD21*
21,1,0.05807,0.01772,0,0,90.0*
21,1,0.05217,0.02362,0,0,90.0*
1,1,0.00591,0.00886,0.02608*
1,1,0.00591,0.00886,-0.02608*
1,1,0.00591,-0.00886,-0.02608*
1,1,0.00591,-0.00886,0.02608*
%
%ADD21ROUNDEDRECTD21*%
%ADD22R,0.13583X0.07284*%
G04:AMPARAMS|DCode=23|XSize=51.18mil|YSize=68.9mil|CornerRadius=4.86mil|HoleSize=0mil|Usage=FLASHONLY|Rotation=0.000|XOffset=0mil|YOffset=0mil|HoleType=Round|Shape=RoundedRectangle|*
%AMROUNDEDRECTD23*
21,1,0.05118,0.05917,0,0,0.0*
21,1,0.04146,0.06890,0,0,0.0*
1,1,0.00972,0.02073,-0.02959*
1,1,0.00972,-0.02073,-0.02959*
1,1,0.00972,-0.02073,0.02959*
1,1,0.00972,0.02073,0.02959*
%
%ADD23ROUNDEDRECTD23*%
%ADD24R,0.05118X0.06102*%
G04:AMPARAMS|DCode=25|XSize=120.08mil|YSize=108.27mil|CornerRadius=4.87mil|HoleSize=0mil|Usage=FLASHONLY|Rotation=90.000|XOffset=0mil|YOffset=0mil|HoleType=Round|Shape=RoundedRectangle|*
%AMROUNDEDRECTD25*
21,1,0.12008,0.09852,0,0,90.0*
21,1,0.11033,0.10827,0,0,90.0*
1,1,0.00974,0.04926,0.05517*
1,1,0.00974,0.04926,-0.05517*
1,1,0.00974,-0.04926,-0.05517*
1,1,0.00974,-0.04926,0.05517*
%
%ADD25ROUNDEDRECTD25*%
D11*
X643815Y212000D02*
D03*
X477685Y129000D02*
D03*
X709685Y167000D02*
D03*
X458000Y129000D02*
D03*
X690000Y167000D02*
D03*
X663500Y212000D02*
D03*
D12*
X224476Y305658D02*
D03*
X295980Y305791D02*
D03*
X206524Y305658D02*
D03*
X278028Y305791D02*
D03*
D13*
X225000Y264563D02*
D03*
X502500Y157563D02*
D03*
X291500Y264000D02*
D03*
X215500Y264563D02*
D03*
X671000Y195437D02*
D03*
Y187563D02*
D03*
X502500Y165437D02*
D03*
X291500Y271874D02*
D03*
X281500Y264063D02*
D03*
Y271937D02*
D03*
X272000Y264063D02*
D03*
Y271937D02*
D03*
X225000Y272437D02*
D03*
X215500D02*
D03*
X205500Y264563D02*
D03*
Y272437D02*
D03*
D14*
X568563Y141000D02*
D03*
X576437D02*
D03*
X548937Y166500D02*
D03*
X576437Y131500D02*
D03*
X514126Y116000D02*
D03*
X600563Y150000D02*
D03*
Y159500D02*
D03*
X541063Y166500D02*
D03*
X576437Y122000D02*
D03*
X568563Y131500D02*
D03*
X522937Y136500D02*
D03*
X568563Y122000D02*
D03*
X576000Y151500D02*
D03*
X522000Y116000D02*
D03*
X522937Y126500D02*
D03*
X531126Y116000D02*
D03*
X568126Y151500D02*
D03*
X600563Y169000D02*
D03*
X539000Y116000D02*
D03*
X515063Y136500D02*
D03*
Y126500D02*
D03*
X568126Y171500D02*
D03*
X608437Y169000D02*
D03*
Y159500D02*
D03*
Y150000D02*
D03*
X576000Y171500D02*
D03*
D15*
X750000Y250398D02*
D03*
X728000D02*
D03*
X717000D02*
D03*
X739000D02*
D03*
X597500Y191102D02*
D03*
X427000Y147102D02*
D03*
X415500D02*
D03*
X750000Y262602D02*
D03*
X717000D02*
D03*
X608500Y191102D02*
D03*
Y178898D02*
D03*
X415500Y134898D02*
D03*
X427000D02*
D03*
X739000Y262602D02*
D03*
X728000D02*
D03*
X630500Y178795D02*
D03*
Y191000D02*
D03*
X619500Y191102D02*
D03*
Y178898D02*
D03*
X597500D02*
D03*
D16*
X744500Y190870D02*
D03*
X714500D02*
D03*
X744500Y212130D02*
D03*
X714500D02*
D03*
D17*
X671000Y166000D02*
D03*
X513000Y175169D02*
D03*
X523000Y165585D02*
D03*
Y157415D02*
D03*
X671000Y174169D02*
D03*
X513000Y167000D02*
D03*
D18*
X654500Y171158D02*
D03*
X192000Y258815D02*
D03*
X654500Y190842D02*
D03*
X258500Y260500D02*
D03*
Y280185D02*
D03*
X192000Y278500D02*
D03*
D19*
X576000Y161500D02*
D03*
X514915Y146500D02*
D03*
X567831Y161500D02*
D03*
X523085Y146500D02*
D03*
D20*
X535000Y147500D02*
D03*
X554488Y142500D02*
D03*
Y137500D02*
D03*
X535000Y142500D02*
D03*
X554488Y157500D02*
D03*
Y152500D02*
D03*
Y147500D02*
D03*
Y132500D02*
D03*
Y127500D02*
D03*
X535000D02*
D03*
Y132500D02*
D03*
Y152500D02*
D03*
Y157500D02*
D03*
Y137500D02*
D03*
D21*
X430740Y116118D02*
D03*
X685500Y195691D02*
D03*
X423260Y116118D02*
D03*
X427000Y123500D02*
D03*
X689240Y188309D02*
D03*
X681760D02*
D03*
D22*
X554000Y106000D02*
D03*
X528500Y195500D02*
D03*
X565000Y189500D02*
D03*
D23*
X692602Y212000D02*
D03*
X680398D02*
D03*
X444898Y114000D02*
D03*
X457102D02*
D03*
D24*
X206142Y129331D02*
D03*
Y160669D02*
D03*
X223858Y129331D02*
D03*
Y160669D02*
D03*
D25*
X221504Y337055D02*
D03*
X209496D02*
D03*
X221504Y323866D02*
D03*
X209496D02*
D03*
X293008Y337189D02*
D03*
X281000D02*
D03*
X293008Y324000D02*
D03*
X281000D02*
D03*
M02*
