G04*
G04 #@! TF.GenerationSoftware,Altium Limited,Altium Designer,26.6.0 (10)*
G04*
G04 Layer_Color=128*
G04 Board_Origin=0|0*
%FSLAX25Y25*%
%MOIN*%
G70*
G04*
G04 #@! TF.SameCoordinates,8E7C0F2F-DEA9-465B-9AF9-77FAD4C454B9*
G04*
G04*
G04 #@! TF.FilePolarity,Positive*
G04*
G01*
G75*
G04:AMPARAMS|DCode=14|XSize=47.24mil|YSize=55.12mil|CornerRadius=4.96mil|HoleSize=0mil|Usage=FLASHONLY|Rotation=180.000|XOffset=0mil|YOffset=0mil|HoleType=Round|Shape=RoundedRectangle|*
%AMROUNDEDRECTD14*
21,1,0.04724,0.04520,0,0,180.0*
21,1,0.03732,0.05512,0,0,180.0*
1,1,0.00992,-0.01866,0.02260*
1,1,0.00992,0.01866,0.02260*
1,1,0.00992,0.01866,-0.02260*
1,1,0.00992,-0.01866,-0.02260*
%
%ADD14ROUNDEDRECTD14*%
G04:AMPARAMS|DCode=15|XSize=51.18mil|YSize=68.9mil|CornerRadius=4.86mil|HoleSize=0mil|Usage=FLASHONLY|Rotation=90.000|XOffset=0mil|YOffset=0mil|HoleType=Round|Shape=RoundedRectangle|*
%AMROUNDEDRECTD15*
21,1,0.05118,0.05917,0,0,90.0*
21,1,0.04146,0.06890,0,0,90.0*
1,1,0.00972,0.02959,0.02073*
1,1,0.00972,0.02959,-0.02073*
1,1,0.00972,-0.02959,-0.02073*
1,1,0.00972,-0.02959,0.02073*
%
%ADD15ROUNDEDRECTD15*%
G04:AMPARAMS|DCode=17|XSize=46.26mil|YSize=57.09mil|CornerRadius=4.86mil|HoleSize=0mil|Usage=FLASHONLY|Rotation=90.000|XOffset=0mil|YOffset=0mil|HoleType=Round|Shape=RoundedRectangle|*
%AMROUNDEDRECTD17*
21,1,0.04626,0.04737,0,0,90.0*
21,1,0.03655,0.05709,0,0,90.0*
1,1,0.00972,0.02369,0.01827*
1,1,0.00972,0.02369,-0.01827*
1,1,0.00972,-0.02369,-0.01827*
1,1,0.00972,-0.02369,0.01827*
%
%ADD17ROUNDEDRECTD17*%
G04:AMPARAMS|DCode=19|XSize=46.26mil|YSize=57.09mil|CornerRadius=4.86mil|HoleSize=0mil|Usage=FLASHONLY|Rotation=0.000|XOffset=0mil|YOffset=0mil|HoleType=Round|Shape=RoundedRectangle|*
%AMROUNDEDRECTD19*
21,1,0.04626,0.04737,0,0,0.0*
21,1,0.03655,0.05709,0,0,0.0*
1,1,0.00972,0.01827,-0.02369*
1,1,0.00972,-0.01827,-0.02369*
1,1,0.00972,-0.01827,0.02369*
1,1,0.00972,0.01827,0.02369*
%
%ADD19ROUNDEDRECTD19*%
G04:AMPARAMS|DCode=23|XSize=51.18mil|YSize=68.9mil|CornerRadius=4.86mil|HoleSize=0mil|Usage=FLASHONLY|Rotation=0.000|XOffset=0mil|YOffset=0mil|HoleType=Round|Shape=RoundedRectangle|*
%AMROUNDEDRECTD23*
21,1,0.05118,0.05917,0,0,0.0*
21,1,0.04146,0.06890,0,0,0.0*
1,1,0.00972,0.02073,-0.02959*
1,1,0.00972,-0.02073,-0.02959*
1,1,0.00972,-0.02073,0.02959*
1,1,0.00972,0.02073,0.02959*
%
%ADD23ROUNDEDRECTD23*%
G04:AMPARAMS|DCode=53|XSize=76.77mil|YSize=23.62mil|CornerRadius=2.95mil|HoleSize=0mil|Usage=FLASHONLY|Rotation=270.000|XOffset=0mil|YOffset=0mil|HoleType=Round|Shape=RoundedRectangle|*
%AMROUNDEDRECTD53*
21,1,0.07677,0.01772,0,0,270.0*
21,1,0.07087,0.02362,0,0,270.0*
1,1,0.00591,-0.00886,-0.03543*
1,1,0.00591,-0.00886,0.03543*
1,1,0.00591,0.00886,0.03543*
1,1,0.00591,0.00886,-0.03543*
%
%ADD53ROUNDEDRECTD53*%
G04:AMPARAMS|DCode=54|XSize=120.08mil|YSize=108.27mil|CornerRadius=4.87mil|HoleSize=0mil|Usage=FLASHONLY|Rotation=180.000|XOffset=0mil|YOffset=0mil|HoleType=Round|Shape=RoundedRectangle|*
%AMROUNDEDRECTD54*
21,1,0.12008,0.09852,0,0,180.0*
21,1,0.11033,0.10827,0,0,180.0*
1,1,0.00974,-0.05517,0.04926*
1,1,0.00974,0.05517,0.04926*
1,1,0.00974,0.05517,-0.04926*
1,1,0.00974,-0.05517,-0.04926*
%
%ADD54ROUNDEDRECTD54*%
G04:AMPARAMS|DCode=55|XSize=86.61mil|YSize=47.24mil|CornerRadius=4.96mil|HoleSize=0mil|Usage=FLASHONLY|Rotation=180.000|XOffset=0mil|YOffset=0mil|HoleType=Round|Shape=RoundedRectangle|*
%AMROUNDEDRECTD55*
21,1,0.08661,0.03732,0,0,180.0*
21,1,0.07669,0.04724,0,0,180.0*
1,1,0.00992,-0.03835,0.01866*
1,1,0.00992,0.03835,0.01866*
1,1,0.00992,0.03835,-0.01866*
1,1,0.00992,-0.03835,-0.01866*
%
%ADD55ROUNDEDRECTD55*%
G04:AMPARAMS|DCode=57|XSize=52.17mil|YSize=70.87mil|CornerRadius=4.96mil|HoleSize=0mil|Usage=FLASHONLY|Rotation=0.000|XOffset=0mil|YOffset=0mil|HoleType=Round|Shape=RoundedRectangle|*
%AMROUNDEDRECTD57*
21,1,0.05217,0.06096,0,0,0.0*
21,1,0.04225,0.07087,0,0,0.0*
1,1,0.00991,0.02113,-0.03048*
1,1,0.00991,-0.02113,-0.03048*
1,1,0.00991,-0.02113,0.03048*
1,1,0.00991,0.02113,0.03048*
%
%ADD57ROUNDEDRECTD57*%
D14*
X549937Y195500D02*
D03*
X575500Y167000D02*
D03*
X523000Y140000D02*
D03*
X522874Y130000D02*
D03*
X540563Y129500D02*
D03*
X542063Y185500D02*
D03*
Y195500D02*
D03*
X567626Y167000D02*
D03*
X515126Y140000D02*
D03*
X548437Y129500D02*
D03*
X515000Y130000D02*
D03*
X658937Y138000D02*
D03*
X651063D02*
D03*
X549937Y185500D02*
D03*
D15*
X410000Y330898D02*
D03*
X377000D02*
D03*
X388000Y343102D02*
D03*
Y330898D02*
D03*
X410000Y343102D02*
D03*
X377000D02*
D03*
X399000Y330898D02*
D03*
Y343102D02*
D03*
D17*
X771500Y195000D02*
D03*
Y203169D02*
D03*
D19*
X749085Y229500D02*
D03*
X720415Y229000D02*
D03*
X727000Y215000D02*
D03*
X554669Y153000D02*
D03*
X554585Y143000D02*
D03*
X546415D02*
D03*
X546500Y153000D02*
D03*
X728585Y229000D02*
D03*
X735169Y215000D02*
D03*
X740915Y229500D02*
D03*
D23*
X144398Y297500D02*
D03*
X157102Y257000D02*
D03*
X144898D02*
D03*
X144500Y269500D02*
D03*
X156705D02*
D03*
X156602Y297500D02*
D03*
Y283500D02*
D03*
X144398D02*
D03*
D53*
X736500Y266988D02*
D03*
X741500Y247500D02*
D03*
X726500D02*
D03*
Y266988D02*
D03*
X731500D02*
D03*
X741500D02*
D03*
X736500Y247500D02*
D03*
X731500D02*
D03*
D54*
X683000Y197508D02*
D03*
Y185500D02*
D03*
X669811D02*
D03*
Y197508D02*
D03*
D55*
X701209Y191504D02*
D03*
Y200480D02*
D03*
Y182528D02*
D03*
D57*
X156652Y238500D02*
D03*
X144348D02*
D03*
M02*
